<?xml version="1.0" encoding="UTF-8" standalone="no"?>
<svg
   xmlns:dc="http://purl.org/dc/elements/1.1/"
   xmlns:cc="http://creativecommons.org/ns#"
   xmlns:rdf="http://www.w3.org/1999/02/22-rdf-syntax-ns#"
   xmlns:svg="http://www.w3.org/2000/svg"
   xmlns="http://www.w3.org/2000/svg"
   xmlns:sodipodi="http://sodipodi.sourceforge.net/DTD/sodipodi-0.dtd"
   xmlns:inkscape="http://www.inkscape.org/namespaces/inkscape"
   viewBox="0 0 94.023018 100.80365"
   height="28.44903mm"
   width="26.535385mm"
   version="1.1"
   id="svg11"
   sodipodi:docname="mask-icon.svg"
   inkscape:version="0.92.2 2405546, 2018-03-11">
  <metadata
     id="metadata17">
    <rdf:RDF>
      <cc:Work
         rdf:about="">
        <dc:format>image/svg+xml</dc:format>
        <dc:type
           rdf:resource="http://purl.org/dc/dcmitype/StillImage" />
      </cc:Work>
    </rdf:RDF>
  </metadata>
  <defs
     id="defs15" />
  <sodipodi:namedview
     pagecolor="#ffffff"
     bordercolor="#666666"
     borderopacity="1"
     objecttolerance="10"
     gridtolerance="10"
     guidetolerance="10"
     inkscape:pageopacity="0"
     inkscape:pageshadow="2"
     inkscape:window-width="1918"
     inkscape:window-height="1050"
     id="namedview13"
     showgrid="false"
     inkscape:zoom="4.389722"
     inkscape:cx="84.327632"
     inkscape:cy="80.471867"
     inkscape:window-x="1440"
     inkscape:window-y="28"
     inkscape:window-maximized="0"
     inkscape:current-layer="svg11" />
  <g
     transform="matrix(2.1380005,0,0,2.1380005,-54.205672,-163.09736)"
     id="g4691">
    <path
       style="fill:#000000;fill-opacity:1;stroke:none;stroke-width:2.16672516;stroke-linecap:butt;stroke-linejoin:round;stroke-miterlimit:4;stroke-dasharray:none;stroke-dashoffset:0;stroke-opacity:1"
       d="M 69.873047 1.8867188 C 49.439853 10.158587 44.631812 15.279638 27.402344 33.699219 C 26.673084 23.981278 25.181641 13.546875 25.181641 13.546875 C 25.181641 13.546875 25.475187 25.45721 16.207031 39.664062 C 8.3998971 53.375132 0.01986345 64.11016 0 76.761719 C 0 92.758957 12.877764 105.63672 28.875 105.63672 L 71.388672 105.63672 C 87.385908 105.63672 100.26562 92.758957 100.26562 76.761719 C 100.26562 76.761719 100.6843 64.408324 98.136719 56.992188 C 95.589139 49.576053 81.203054 24.259397 59.242188 13.992188 C 62.500229 19.370147 70.8608 26.826384 64.601562 46.875 C 57.539682 39.824718 53.471302 32.508709 52.9375 27.513672 C 52.203782 20.647956 53.507803 16.033438 69.873047 1.8867188 z M 18.457031 58.890625 C 35.331283 73.31336 53.378797 68.704237 72.273438 60.271484 C 75.170776 64.615833 79.69193 74.893987 88.982422 87.208984 C 79.836822 92.231769 71.758942 97.176973 55.929688 98.242188 C 40.10041 99.307425 25.285156 95.525391 25.285156 95.525391 C 24.579719 94.377256 23.937418 93.191997 23.351562 91.970703 C 21.428245 91.386316 20.300781 90.990234 20.300781 90.990234 C 15.687106 81.958339 16.900957 72.203994 18.457031 58.890625 z "
       transform="matrix(0.43849381,0,0,0.43849381,25.353442,76.284996)"
       id="path985" />
  </g>
</svg>
