<?xml version="1.0" encoding="UTF-8" standalone="no"?>
<!-- Created with Inkscape (http://www.inkscape.org/) -->

<svg
   xmlns:dc="http://purl.org/dc/elements/1.1/"
   xmlns:cc="http://creativecommons.org/ns#"
   xmlns:rdf="http://www.w3.org/1999/02/22-rdf-syntax-ns#"
   xmlns:svg="http://www.w3.org/2000/svg"
   xmlns="http://www.w3.org/2000/svg"
   xmlns:sodipodi="http://sodipodi.sourceforge.net/DTD/sodipodi-0.dtd"
   xmlns:inkscape="http://www.inkscape.org/namespaces/inkscape"
   version="1.1"
   id="svg2"
   width="138"
   height="34"
   viewBox="0 0 138 34"
   sodipodi:docname="logo_full.svg"
   inkscape:version="0.92.2 2405546, 2018-03-11"
   inkscape:export-filename="/home/yantene/dev/web/mastodon/app/javascript/images/mailer/logo_full.png"
   inkscape:export-xdpi="96"
   inkscape:export-ydpi="96">
  <metadata
     id="metadata8">
    <rdf:RDF>
      <cc:Work
         rdf:about="">
        <dc:format>image/svg+xml</dc:format>
        <dc:type
           rdf:resource="http://purl.org/dc/dcmitype/StillImage" />
        <dc:title></dc:title>
      </cc:Work>
    </rdf:RDF>
  </metadata>
  <defs
     id="defs6" />
  <sodipodi:namedview
     pagecolor="#ffffff"
     bordercolor="#666666"
     borderopacity="1"
     objecttolerance="10"
     gridtolerance="10"
     guidetolerance="10"
     inkscape:pageopacity="0"
     inkscape:pageshadow="2"
     inkscape:window-width="958"
     inkscape:window-height="1050"
     id="namedview4"
     showgrid="false"
     inkscape:zoom="1.3882735"
     inkscape:cx="26.137673"
     inkscape:cy="-69.31382"
     inkscape:window-x="1440"
     inkscape:window-y="28"
     inkscape:window-maximized="0"
     inkscape:current-layer="svg2"
     fit-margin-top="0"
     fit-margin-left="0"
     fit-margin-right="0"
     fit-margin-bottom="0" />
  <path
     style="fill:#cd2b2b;fill-opacity:1;stroke:none;stroke-width:0.70074505;stroke-linecap:butt;stroke-linejoin:round;stroke-miterlimit:4;stroke-dasharray:none;stroke-dashoffset:0;stroke-opacity:1"
     d="M 22.301719,0 C 15.77997,2.71074 14.244983,4.38929 8.7457802,10.4255 8.5130196,7.24087 8.0371197,3.82107 8.0371197,3.82107 c 0,0 0.094179,3.90332 -2.863978,8.559 C 2.6813052,16.87327 0.0063401,20.3913 0,24.5373 0,29.77969 4.1104338,34 9.2163394,34 H 22.785442 c 5.105906,0 9.216718,-4.22031 9.216718,-9.4627 0,0 0.133423,-4.04821 -0.679698,-6.47853 C 30.50934,15.62846 25.917848,7.33169 18.908503,3.96706 19.948387,5.72945 22.617005,8.17279 20.619216,14.74285 18.365246,12.43242 17.066496,10.03523 16.89612,8.39833 16.661936,6.14839 17.078355,4.63635 22.301719,3.8e-4 Z"
     id="path985"
     inkscape:connector-curvature="0"
     sodipodi:nodetypes="cccccssczccscc" />
  <path
     style="fill:#331313;fill-opacity:1;stroke:none;stroke-width:1.57907569;stroke-linecap:butt;stroke-linejoin:round;stroke-miterlimit:4;stroke-dasharray:none;stroke-dashoffset:0;stroke-opacity:1"
     d="m 23.067734,19.13348 c -6.030682,2.76347 -11.791183,4.27356 -17.17701,-0.45286 -0.4966588,4.36288 -0.8838923,7.55929 0.5886743,10.5191 0,0 0.3601885,0.13006 0.9740621,0.32157 0.1869899,0.40022 0.3915963,0.7889 0.6167535,1.16515 0,0 4.7285881,1.23899 9.7808851,0.8899 5.052291,-0.34907 7.630966,-1.96986 10.550007,-3.61586 -2.965286,-4.0357 -4.408616,-7.40333 -5.333372,-8.827 z"
     id="path1021"
     inkscape:connector-curvature="0" />
  <path
     inkscape:connector-curvature="0"
     id="path820"
     style="font-style:normal;font-variant:normal;font-weight:bold;font-stretch:normal;font-size:medium;line-height:1.25;font-family:Inconsolata;-inkscape-font-specification:'Inconsolata Bold';letter-spacing:0px;word-spacing:0px;fill:#ffffff;fill-opacity:1;stroke:none;stroke-width:0.73542702"
     d="m 39.550501,12.87961 h 11.241246 v 2.83813 h -7.98086 v 4.35181 h 6.435719 v 2.79447 h -6.435719 v 8.58717 h -3.260386 z" />
  <path
     inkscape:connector-curvature="0"
     id="path822"
     style="font-style:normal;font-variant:normal;font-weight:bold;font-stretch:normal;font-size:medium;line-height:1.25;font-family:Inconsolata;-inkscape-font-specification:'Inconsolata Bold';letter-spacing:0px;word-spacing:0px;fill:#ffffff;fill-opacity:1;stroke:none;stroke-width:0.73542702"
     d="m 54.037958,28.86048 h 3.714004 V 13.92754 H 54.22224 v -2.59071 h 6.818462 v 17.52365 h 3.685653 v 2.59071 H 54.037958 Z" />
  <path
     inkscape:connector-curvature="0"
     id="path824"
     style="font-style:normal;font-variant:normal;font-weight:bold;font-stretch:normal;font-size:medium;line-height:1.25;font-family:Inconsolata;-inkscape-font-specification:'Inconsolata Bold';letter-spacing:0px;word-spacing:0px;fill:#ffffff;fill-opacity:1;stroke:none;stroke-width:0.73542702"
     d="m 73.543575,17.08587 q 2.679186,0 4.281029,1.36813 1.616017,1.36812 1.616017,4.52645 v 8.47074 H 76.336167 V 30.1995 q -0.779657,0.75683 -1.885355,1.19347 -1.091521,0.42208 -2.353149,0.42208 -2.112164,0 -3.21786,-1.06248 -1.105696,-1.07703 -1.105696,-2.91091 0,-1.48455 0.907239,-2.53248 0.921414,-1.04793 2.636659,-1.58645 1.729423,-0.55307 4.125097,-0.55307 h 0.992292 q -0.141757,-1.81931 -0.864709,-2.5907 -0.722955,-0.78595 -2.19722,-0.78595 -0.935588,0 -1.942056,0.50941 -1.006467,0.49486 -1.857,1.39724 l -1.658547,-2.19774 q 1.275806,-1.19347 2.735892,-1.80476 1.47426,-0.61129 2.891821,-0.61129 z m -0.396918,12.18214 q 1.445912,0 2.282271,-0.93149 0.83636,-0.93149 1.006466,-2.94001 h -0.652076 q -2.494906,0 -3.643129,0.55307 -1.148223,0.55307 -1.148223,1.74654 0,0.81506 0.567025,1.19347 0.581198,0.37842 1.587666,0.37842 z" />
  <path
     inkscape:connector-curvature="0"
     id="path826"
     style="font-style:normal;font-variant:normal;font-weight:bold;font-stretch:normal;font-size:medium;line-height:1.25;font-family:Inconsolata;-inkscape-font-specification:'Inconsolata Bold';letter-spacing:0px;word-spacing:0px;fill:#ffffff;fill-opacity:1;stroke:none;stroke-width:0.73542702"
     d="m 88.101909,31.84416 q -0.538671,0 -1.006465,-0.27654 -0.453621,-0.26198 -0.722957,-0.72772 -0.255161,-0.4803 -0.255161,-1.03337 0,-0.53852 0.255161,-0.98971 0.269336,-0.46575 0.722957,-0.72773 0.467794,-0.27653 1.006465,-0.27653 0.524498,0 0.963941,0.27653 0.453621,0.26198 0.70878,0.72773 0.269335,0.45119 0.269335,0.98971 0,0.55307 -0.269335,1.03337 -0.255159,0.46574 -0.70878,0.72772 -0.439443,0.27654 -0.963941,0.27654 z" />
  <path
     inkscape:connector-curvature="0"
     id="path828"
     style="font-style:normal;font-variant:normal;font-weight:bold;font-stretch:normal;font-size:medium;line-height:1.25;font-family:Inconsolata;-inkscape-font-specification:'Inconsolata Bold';letter-spacing:0px;word-spacing:0px;fill:#ffffff;fill-opacity:1;stroke:none;stroke-width:0.73542702"
     d="m 105.48119,17.23142 q 1.00646,0 1.99875,0.39297 1.00647,0.37842 1.78613,1.13525 l -1.55931,3.202 -0.29769,-0.14555 q -0.0284,-0.10188 -0.0567,-0.29109 -0.0425,-0.27653 -0.12758,-0.46574 -0.0709,-0.20377 -0.31186,-0.40753 -0.70878,-0.58218 -1.7436,-0.58218 -1.03482,0 -1.87118,0.50941 -0.83635,0.49485 -1.31833,1.42634 -0.46779,0.93149 -0.46779,2.16862 v 7.27727 H 98.223282 V 17.53706 h 3.345438 v 1.99397 q 0.53868,-1.07703 1.57349,-1.68832 1.049,-0.61129 2.33898,-0.61129 z" />
  <path
     inkscape:connector-curvature="0"
     id="path830"
     style="font-style:normal;font-variant:normal;font-weight:bold;font-stretch:normal;font-size:medium;line-height:1.25;font-family:Inconsolata;-inkscape-font-specification:'Inconsolata Bold';letter-spacing:0px;word-spacing:0px;fill:#ffffff;fill-opacity:1;stroke:none;stroke-width:0.73542702"
     d="m 117.99823,31.93149 q -1.95623,0 -3.48719,-0.87327 -1.53097,-0.87328 -2.40986,-2.50338 -0.86471,-1.64467 -0.86471,-3.87151 0,-2.25595 0.82219,-3.94427 0.82218,-1.68833 2.28227,-2.59071 1.46009,-0.91693 3.30291,-0.91693 1.6302,0 2.93435,0.78594 1.31833,0.77139 2.08381,2.31417 0.76548,1.52823 0.76548,3.69685 0,0.34931 -0.0567,0.98971 l -0.0284,0.40753 h -8.88809 q 0.21263,1.90664 1.16239,2.88179 0.94977,0.9606 2.2681,0.9606 0.93559,0 1.88535,-0.43664 0.94977,-0.45119 1.55932,-1.25169 l 1.8003,1.84843 q -2.05546,2.50338 -5.13157,2.50338 z m 2.18305,-8.95104 q 0,-0.87327 -0.34022,-1.61555 -0.32604,-0.74228 -0.94976,-1.17891 -0.60956,-0.4512 -1.41756,-0.4512 -1.19075,0 -1.97041,0.88783 -0.77966,0.87327 -0.93559,2.35783 z" />
  <path
     inkscape:connector-curvature="0"
     id="path832"
     style="font-style:normal;font-variant:normal;font-weight:bold;font-stretch:normal;font-size:medium;line-height:1.25;font-family:Inconsolata;-inkscape-font-specification:'Inconsolata Bold';letter-spacing:0px;word-spacing:0px;fill:#ffffff;fill-opacity:1;stroke:none;stroke-width:0.73542702"
     d="m 131.3233,31.90238 q -1.61602,0 -2.93435,-0.8005 -1.31833,-0.81505 -2.08381,-2.4306 -0.76548,-1.63011 -0.76548,-3.95884 0,-2.2705 0.77965,-3.97338 0.79383,-1.70288 2.11216,-2.60526 1.31833,-0.90238 2.86347,-0.90238 0.79384,0 1.67272,0.39297 0.87889,0.39297 1.46009,1.00426 v -7.29182 h 3.5439 v 0.33476 q -0.15593,0.17465 -0.19846,0.39297 -0.0425,0.20376 -0.0283,0.69862 l -0.0567,17.01424 q 0,0.50941 0.0567,0.90238 0.0567,0.37842 0.25516,0.77139 h -3.16116 q -0.19845,-0.37842 -0.24098,-0.71317 -0.0283,-0.33476 -0.0283,-0.9606 -0.42527,1.04792 -1.34668,1.58644 -0.92142,0.53852 -1.89953,0.53852 z m 0.46779,-2.77992 q 2.66501,0 2.66501,-4.78843 0,-2.00853 -0.56702,-3.202 -0.56703,-1.19347 -2.01294,-1.19347 -1.53096,0 -2.29644,1.30991 -0.75131,1.3099 -0.75131,3.40576 0,1.55733 0.43944,2.56159 0.45362,1.00426 1.11988,1.45546 0.68043,0.45118 1.40338,0.45118 z" />
</svg>
