<?xml version="1.0" encoding="UTF-8" standalone="no"?>
<!-- Created with Inkscape (http://www.inkscape.org/) -->

<svg
   xmlns:dc="http://purl.org/dc/elements/1.1/"
   xmlns:cc="http://creativecommons.org/ns#"
   xmlns:rdf="http://www.w3.org/1999/02/22-rdf-syntax-ns#"
   xmlns:svg="http://www.w3.org/2000/svg"
   xmlns="http://www.w3.org/2000/svg"
   xmlns:sodipodi="http://sodipodi.sourceforge.net/DTD/sodipodi-0.dtd"
   xmlns:inkscape="http://www.inkscape.org/namespaces/inkscape"
   width="87.3125mm"
   height="64.558334mm"
   viewBox="0 0 87.3125 64.558334"
   version="1.1"
   id="svg8"
   sodipodi:docname="elephant-fren.svg"
   inkscape:export-filename="/home/yantene/x/ddon.png"
   inkscape:export-xdpi="96"
   inkscape:export-ydpi="96"
   inkscape:version="0.92.2 5c3e80d, 2017-08-06">
  <defs
     id="defs2" />
  <sodipodi:namedview
     id="base"
     pagecolor="#ffffff"
     bordercolor="#666666"
     borderopacity="1.0"
     inkscape:pageopacity="0.0"
     inkscape:pageshadow="2"
     inkscape:zoom="1.4142136"
     inkscape:cx="202.09795"
     inkscape:cy="-22.489834"
     inkscape:document-units="mm"
     inkscape:current-layer="layer1"
     showgrid="false"
     showguides="false"
     fit-margin-top="0"
     fit-margin-left="0"
     fit-margin-right="0"
     fit-margin-bottom="0"
     inkscape:window-width="958"
     inkscape:window-height="524"
     inkscape:window-x="960"
     inkscape:window-y="28"
     inkscape:window-maximized="0" />
  <metadata
     id="metadata5">
    <rdf:RDF>
      <cc:Work
         rdf:about="">
        <dc:format>image/svg+xml</dc:format>
        <dc:type
           rdf:resource="http://purl.org/dc/dcmitype/StillImage" />
        <dc:title></dc:title>
      </cc:Work>
    </rdf:RDF>
  </metadata>
  <g
     inkscape:label="レイヤー 1"
     inkscape:groupmode="layer"
     id="layer1"
     transform="translate(-74.321091,-54.536724)">
    <g
       id="g5017"
       transform="translate(1.0583333)">
      <path
         sodipodi:nodetypes="ccccccc"
         inkscape:connector-curvature="0"
         id="rect4515-7"
         d="M 74.033662,115.39035 V 60.225583 h 21.348155 l 8.506683,5.225376 4.83591,6.775368 h 50.70187 v 43.164023"
         style="fill:#f7efe1;fill-opacity:1;stroke:none;stroke-width:1.20000005;stroke-linecap:butt;stroke-linejoin:round;stroke-miterlimit:4;stroke-dasharray:none;stroke-dashoffset:0;stroke-opacity:1" />
      <path
         id="rect4515-5"
         d="m 74.033723,60.22578 v 55.16459 h 18.66501 V 60.22578 Z"
         style="fill:#6a9de8;fill-opacity:1;stroke:none;stroke-width:1.20000005;stroke-linecap:butt;stroke-linejoin:round;stroke-miterlimit:4;stroke-dasharray:none;stroke-dashoffset:0;stroke-opacity:1"
         inkscape:connector-curvature="0" />
      <path
         sodipodi:nodetypes="ccccccc"
         inkscape:connector-curvature="0"
         id="rect4515"
         d="M 74.033661,115.39035 V 60.225582 h 21.348155 l 8.506684,5.225376 4.83591,6.775368 h 50.70187 v 43.164024"
         style="fill:none;fill-opacity:1;stroke:#000000;stroke-width:1.20000005;stroke-linecap:butt;stroke-linejoin:round;stroke-miterlimit:4;stroke-dasharray:none;stroke-dashoffset:0;stroke-opacity:1" />
    </g>
    <g
       id="g4622"
       transform="translate(1.0583333)">
      <rect
         y="63.484715"
         x="111.08054"
         height="9.2207985"
         width="9.2207985"
         id="rect4574"
         style="fill:#ffffff;fill-opacity:1;stroke:#000000;stroke-width:1.20000005;stroke-linecap:butt;stroke-linejoin:round;stroke-miterlimit:4;stroke-dasharray:none;stroke-dashoffset:0;stroke-opacity:1" />
      <path
         d="m 118.80762,65.120086 q 0.038,0.0761 0.10654,0.220685 0.0761,0.144587 0.10654,0.205466 0.0761,0.152196 0.0228,0.304393 -0.0533,0.152197 -0.20547,0.228295 -0.15219,0.0761 -0.312,0.02283 -0.1522,-0.05327 -0.2359,-0.205466 -0.0685,-0.136977 -0.22069,-0.410931 -0.0761,-0.152196 -0.0304,-0.304393 0.0533,-0.159807 0.20547,-0.235905 0.15219,-0.0761 0.31961,-0.02283 0.16742,0.05327 0.24351,0.197855 z m -6.08786,3.158081 q -0.16742,0 -0.28918,-0.121758 -0.11414,-0.121757 -0.11414,-0.289173 0,-0.167417 0.11414,-0.281564 0.12176,-0.121757 0.29679,-0.121757 0.9284,0 2.80042,-0.04566 0.0609,0 0.0457,-0.06088 -0.0533,-0.167416 -0.12937,-0.502249 -0.0152,-0.06088 -0.0837,-0.06088 -1.29367,0.03805 -2.30578,0.03805 -0.16742,0 -0.28917,-0.114147 -0.11415,-0.121757 -0.11415,-0.289174 0,-0.167416 0.11415,-0.289173 0.12175,-0.121758 0.28917,-0.121758 0.70011,0 2.16119,-0.03044 0.0761,0 0.0609,-0.06849 -0.0152,-0.106538 -0.0304,-0.289174 -0.0152,-0.175026 0.0989,-0.304393 0.12176,-0.129367 0.30439,-0.144587 l 0.10654,-0.0076 q 0.17503,-0.0076 0.312,0.114148 0.13698,0.121757 0.1522,0.296783 0.0152,0.213075 0.0304,0.304393 0.0152,0.06088 0.0761,0.06088 0.12176,0 0.35766,-0.0076 0.23591,-0.0076 0.35766,-0.01522 0.0609,0 0.0304,-0.06849 -0.0228,-0.04566 -0.0761,-0.136977 -0.0456,-0.09132 -0.0685,-0.136977 -0.0761,-0.144587 -0.0304,-0.296783 0.0533,-0.159807 0.19785,-0.235905 0.1522,-0.0761 0.3044,-0.02283 0.1598,0.05327 0.24351,0.205466 0.0381,0.06849 0.10654,0.205465 0.0685,0.129367 0.10654,0.197856 0.0685,0.144587 0.0152,0.296783 -0.0456,0.144587 -0.18263,0.220685 -0.0533,0.02283 -0.0381,0.08371 0.008,0.02283 0.008,0.06849 0.008,0.167416 -0.10654,0.289174 -0.11415,0.121757 -0.28156,0.129367 -0.27396,0.01522 -0.79142,0.03044 -0.0685,0 -0.0533,0.06849 0.0457,0.228295 0.13697,0.502249 0.0228,0.06088 0.0913,0.06088 0.47181,-0.01522 1.40021,-0.06088 0.16742,-0.0076 0.28917,0.106537 0.12176,0.114148 0.12937,0.281564 0.008,0.167416 -0.10654,0.296783 -0.11414,0.121758 -0.28156,0.129368 -0.19025,0.0076 -0.56313,0.02283 -0.37288,0.01522 -0.56313,0.02283 -0.0685,0 -0.038,0.05327 0.22829,0.47181 0.42615,0.791423 0.0913,0.144587 0.0457,0.319613 -0.038,0.167416 -0.19025,0.243515 l -0.20547,0.114147 q -0.36527,0.197856 -0.7762,0.03805 -0.66966,-0.251124 -1.30128,-0.251124 -1.11104,0 -1.11104,0.593567 0,0.403321 0.41855,0.593567 0.41854,0.190245 1.45347,0.190245 0.62401,0 1.37738,-0.09132 0.17503,-0.02283 0.31201,0.08371 0.14458,0.106537 0.16741,0.273954 0.0228,0.175026 -0.0913,0.312003 -0.10653,0.144587 -0.27395,0.167416 -0.75337,0.09132 -1.49153,0.09132 -2.91456,0 -2.91456,-1.620894 0,-0.624007 0.55552,-1.004498 0.55551,-0.380492 1.59806,-0.380492 0.63162,0 1.24801,0.197856 h 0.0152 v -0.02283 q -0.14458,-0.296783 -0.27395,-0.593567 -0.0228,-0.06088 -0.0913,-0.06088 -1.82636,0.05327 -3.0972,0.05327 z"
         style="font-style:normal;font-variant:normal;font-weight:bold;font-stretch:normal;font-size:medium;line-height:1.25;font-family:'Rounded M+ 1c';-inkscape-font-specification:'Rounded M+ 1c Bold';text-align:start;writing-mode:lr-tb;text-anchor:start;fill:#6a9de8;fill-opacity:1;stroke:none;stroke-width:2.15711808;stroke-linecap:butt;stroke-linejoin:round;stroke-miterlimit:4;stroke-dasharray:none;stroke-dashoffset:0;stroke-opacity:1"
         id="path4607"
         inkscape:connector-curvature="0" />
    </g>
    <g
       id="g4626"
       transform="translate(1.0583333)">
      <rect
         y="63.484715"
         x="123.1342"
         height="9.2207985"
         width="9.2207985"
         id="rect4574-3"
         style="fill:#ffffff;fill-opacity:1;stroke:#000000;stroke-width:1.20000005;stroke-linecap:butt;stroke-linejoin:round;stroke-miterlimit:4;stroke-dasharray:none;stroke-dashoffset:0;stroke-opacity:1" />
      <path
         d="m 124.7882,67.372597 q -0.17502,0 -0.30439,-0.121758 -0.12937,-0.129367 -0.12937,-0.304393 0,-0.175026 0.12937,-0.304393 0.12937,-0.129367 0.30439,-0.129367 h 0.86752 q 0.0609,0 0.0761,-0.06849 0.11415,-0.502249 0.20547,-1.042547 0.038,-0.175026 0.17502,-0.281564 0.14459,-0.114147 0.32723,-0.09893 l 0.0533,0.0076 q 0.17503,0.01522 0.28157,0.159807 0.10654,0.136977 0.0761,0.312003 -0.0989,0.578347 -0.16742,0.951229 -0.0152,0.06088 0.0533,0.06088 h 0.43376 q 0.3881,0 0.57835,0 0.19785,0 0.43376,0.04566 0.2359,0.04566 0.31961,0.0761 0.0913,0.03044 0.20547,0.175026 0.12175,0.144587 0.14458,0.258734 0.0228,0.114148 0.0609,0.410931 0.038,0.289174 0.038,0.532688 0,0.243515 0,0.730544 0,1.461088 -0.35766,2.153583 -0.35766,0.692495 -0.96645,0.692495 -0.45659,0 -1.19474,-0.220685 -0.17503,-0.05327 -0.25874,-0.213076 -0.0837,-0.159806 -0.0304,-0.342442 l 0.0152,-0.04566 q 0.0533,-0.167417 0.20547,-0.243515 0.1598,-0.08371 0.33483,-0.03044 0.50225,0.152196 0.73054,0.152196 0.12937,0 0.23591,-0.190245 0.10654,-0.190246 0.18263,-0.669666 0.0837,-0.487029 0.0837,-1.194743 0,-0.91318 -0.0837,-1.065377 -0.0761,-0.152196 -0.57073,-0.152196 h -0.73055 q -0.0609,0 -0.0761,0.06088 -0.4718,1.970947 -1.19474,3.812526 -0.0685,0.175026 -0.2359,0.243515 -0.15981,0.0761 -0.32723,0.01522 l -0.0533,-0.01522 q -0.16741,-0.05327 -0.2359,-0.220685 -0.0685,-0.159807 -0.008,-0.327223 0.63162,-1.666553 1.08821,-3.508133 0.0152,-0.06088 -0.0457,-0.06088 z m 5.40298,2.214461 q -0.40332,-1.453478 -0.97406,-2.967835 -0.0609,-0.159806 0.0152,-0.312003 0.0761,-0.159806 0.24352,-0.213075 l 0.0989,-0.03044 q 0.17502,-0.05327 0.34244,0.03044 0.16742,0.08371 0.22829,0.258734 0.52508,1.36977 0.97406,3.013494 0.0457,0.167416 -0.0457,0.327222 -0.0913,0.152197 -0.26634,0.190246 l -0.0913,0.01522 q -0.17502,0.03805 -0.32722,-0.05327 -0.1522,-0.09132 -0.19786,-0.258734 z"
         style="font-style:normal;font-variant:normal;font-weight:bold;font-stretch:normal;font-size:medium;line-height:1.25;font-family:'Rounded M+ 1c';-inkscape-font-specification:'Rounded M+ 1c Bold';text-align:start;writing-mode:lr-tb;text-anchor:start;fill:#6a9de8;fill-opacity:1;stroke:none;stroke-width:2.15711808;stroke-linecap:butt;stroke-linejoin:round;stroke-miterlimit:4;stroke-dasharray:none;stroke-dashoffset:0;stroke-opacity:1"
         id="path4609"
         inkscape:connector-curvature="0" />
    </g>
    <g
       id="g4630"
       transform="translate(1.0583333)">
      <rect
         y="63.484715"
         x="135.18788"
         height="9.2207985"
         width="9.2207985"
         id="rect4574-5"
         style="fill:#ffffff;fill-opacity:1;stroke:#000000;stroke-width:1.20000005;stroke-linecap:butt;stroke-linejoin:round;stroke-miterlimit:4;stroke-dasharray:none;stroke-dashoffset:0;stroke-opacity:1" />
      <path
         d="m 141.2498,65.987607 q -0.038,-0.06849 -0.10654,-0.197856 -0.0685,-0.136977 -0.10654,-0.205465 -0.0761,-0.144587 -0.0304,-0.296783 0.0533,-0.159807 0.19786,-0.235905 0.15219,-0.0761 0.30439,-0.02283 0.15981,0.05327 0.24352,0.205466 0.038,0.06849 0.10653,0.205465 0.0685,0.129367 0.10654,0.197856 0.0761,0.152196 0.0228,0.304393 -0.0533,0.152197 -0.20546,0.220685 -0.14459,0.06849 -0.3044,0.02283 -0.15219,-0.05327 -0.22829,-0.197856 z m 0.89796,-0.806642 q 0.0533,-0.159807 0.20546,-0.235905 0.1522,-0.0761 0.31962,-0.02283 0.16741,0.05327 0.24351,0.197855 0.038,0.0761 0.10654,0.220685 0.0761,0.144587 0.10654,0.205466 0.0761,0.152196 0.0228,0.304393 -0.0533,0.152197 -0.20547,0.228295 -0.1522,0.0761 -0.312,0.02283 -0.1522,-0.05327 -0.23591,-0.205466 -0.0685,-0.136977 -0.22068,-0.410931 -0.0761,-0.152196 -0.0304,-0.304393 z m -2.57213,3.211349 q -0.12936,-0.114147 -0.14458,-0.289174 -0.0152,-0.175026 0.0989,-0.312003 0.11414,-0.144586 0.28917,-0.159806 1.18713,-0.121757 2.29817,-0.129367 0.17502,0 0.29678,0.129367 0.12176,0.121757 0.12176,0.296783 0,0.175026 -0.12937,0.304394 -0.12176,0.121757 -0.29678,0.121757 -1.20997,0.02283 -2.22968,0.129367 -0.16742,0.01522 -0.3044,-0.09132 z m -0.7762,1.849189 q 0,-0.44898 0.44898,-0.90557 0.12937,-0.129367 0.312,-0.136977 0.19025,-0.01522 0.34245,0.08371 0.12936,0.08371 0.13697,0.235905 0.0152,0.152197 -0.0913,0.266344 -0.19025,0.190246 -0.19025,0.357663 0,0.266344 0.35766,0.44137 0.36527,0.167416 0.98928,0.167416 0.45659,0 1.06538,-0.08371 0.17502,-0.02283 0.312,0.08371 0.14459,0.106538 0.16742,0.281564 0.0228,0.182636 -0.0837,0.327223 -0.10654,0.144587 -0.28157,0.167416 -0.624,0.08371 -1.17952,0.08371 -1.05016,0 -1.68177,-0.380491 -0.62401,-0.388102 -0.62401,-0.989279 z m -2.06987,1.38499 q -0.16742,-0.03805 -0.25874,-0.190246 -0.0837,-0.152197 -0.0228,-0.319613 0.66206,-2.031825 1.11104,-4.154968 0.0152,-0.06849 -0.0457,-0.06849 h -0.5403 q -0.17502,0 -0.30439,-0.129367 -0.12937,-0.129367 -0.12937,-0.304393 0,-0.175026 0.12937,-0.296784 0.12937,-0.129367 0.30439,-0.129367 h 0.70772 q 0.0609,0 0.0761,-0.06088 0.0609,-0.289173 0.0837,-0.43376 0.038,-0.182636 0.17503,-0.289174 0.14459,-0.114147 0.32722,-0.09893 l 0.0989,0.0076 q 0.17503,0.01522 0.28156,0.159807 0.10654,0.136977 0.0761,0.312003 -0.008,0.06088 -0.0304,0.167416 -0.0228,0.106538 -0.0304,0.167417 -0.008,0.02283 0.008,0.04566 0.0228,0.02283 0.0457,0.02283 h 2.21446 q 0.17503,0 0.29679,0.129367 0.12936,0.121758 0.12936,0.296784 0,0.175026 -0.12936,0.304393 -0.12176,0.129367 -0.29679,0.129367 h -2.37427 q -0.0685,0 -0.0837,0.06088 -0.47942,2.359048 -1.14148,4.383263 -0.0533,0.175026 -0.22068,0.258735 -0.15981,0.09132 -0.33484,0.05327 z"
         style="font-style:normal;font-variant:normal;font-weight:bold;font-stretch:normal;font-size:medium;line-height:1.25;font-family:'Rounded M+ 1c';-inkscape-font-specification:'Rounded M+ 1c Bold';text-align:start;writing-mode:lr-tb;text-anchor:start;fill:#6a9de8;fill-opacity:1;stroke:none;stroke-width:2.15711808;stroke-linecap:butt;stroke-linejoin:round;stroke-miterlimit:4;stroke-dasharray:none;stroke-dashoffset:0;stroke-opacity:1"
         id="path4611"
         inkscape:connector-curvature="0" />
    </g>
    <g
       id="g4634"
       transform="translate(1.0583333)">
      <rect
         y="63.484715"
         x="147.24153"
         height="9.2207985"
         width="9.2207985"
         id="rect4574-6"
         style="fill:#ffffff;fill-opacity:1;stroke:#000000;stroke-width:1.20000005;stroke-linecap:butt;stroke-linejoin:round;stroke-miterlimit:4;stroke-dasharray:none;stroke-dashoffset:0;stroke-opacity:1" />
      <path
         d="m 153.94421,70.340431 q -0.0837,-2.077484 -0.78382,-3.820136 -0.0609,-0.159806 0.008,-0.312003 0.0685,-0.159806 0.23591,-0.213075 l 0.10654,-0.03044 q 0.17502,-0.05327 0.34244,0.03044 0.17502,0.0761 0.25112,0.243515 0.78382,1.833969 0.8523,4.101699 0.008,0.175026 -0.12175,0.304393 -0.12937,0.129368 -0.3044,0.129368 h -0.15219 q -0.17503,0 -0.3044,-0.129368 -0.12175,-0.129367 -0.12936,-0.304393 z m -3.44726,1.248013 q -0.64683,0 -1.20235,-0.882741 -0.54791,-0.88274 -0.54791,-2.138363 0,-1.149084 0.26634,-2.25251 0.0457,-0.182636 0.19786,-0.281564 0.15981,-0.106538 0.35005,-0.08371 l 0.12937,0.01522 q 0.16742,0.01522 0.25873,0.159806 0.0989,0.144587 0.0609,0.312003 -0.24351,1.080596 -0.24351,2.130753 0,0.844692 0.26634,1.423039 0.27396,0.578347 0.5403,0.578347 0.16742,0 0.43376,-0.319613 0.26634,-0.327223 0.5403,-0.943619 0.0761,-0.167416 0.2359,-0.235905 0.16742,-0.0761 0.33484,-0.01522 l 0.0837,0.03044 q 0.16742,0.06088 0.24352,0.228295 0.0761,0.159806 0.008,0.319613 -0.3881,0.920789 -0.9284,1.438258 -0.5403,0.517469 -1.02733,0.517469 z"
         style="font-style:normal;font-variant:normal;font-weight:bold;font-stretch:normal;font-size:medium;line-height:1.25;font-family:'Rounded M+ 1c';-inkscape-font-specification:'Rounded M+ 1c Bold';text-align:start;writing-mode:lr-tb;text-anchor:start;fill:#6a9de8;fill-opacity:1;stroke:none;stroke-width:2.15711808;stroke-linecap:butt;stroke-linejoin:round;stroke-miterlimit:4;stroke-dasharray:none;stroke-dashoffset:0;stroke-opacity:1"
         id="path4613"
         inkscape:connector-curvature="0" />
    </g>
    <rect
       style="fill:#6a9de8;fill-opacity:1;stroke:none;stroke-width:1.20000005;stroke-linecap:butt;stroke-linejoin:round;stroke-miterlimit:4;stroke-dasharray:none;stroke-dashoffset:0;stroke-opacity:1"
       id="rect4518-3"
       width="12.561667"
       height="5.4790254"
       x="111.44065"
       y="76.97036" />
    <path
       style="color:#000000;font-style:normal;font-variant:normal;font-weight:normal;font-stretch:normal;font-size:medium;line-height:normal;font-family:sans-serif;font-variant-ligatures:normal;font-variant-position:normal;font-variant-caps:normal;font-variant-numeric:normal;font-variant-alternates:normal;font-feature-settings:normal;text-indent:0;text-align:start;text-decoration:none;text-decoration-line:none;text-decoration-style:solid;text-decoration-color:#000000;letter-spacing:normal;word-spacing:normal;text-transform:none;writing-mode:lr-tb;direction:ltr;text-orientation:mixed;dominant-baseline:auto;baseline-shift:baseline;text-anchor:start;white-space:normal;shape-padding:0;clip-rule:nonzero;display:inline;overflow:visible;visibility:visible;opacity:1;isolation:auto;mix-blend-mode:normal;color-interpolation:sRGB;color-interpolation-filters:linearRGB;solid-color:#000000;solid-opacity:1;vector-effect:none;fill:#000000;fill-opacity:1;fill-rule:nonzero;stroke:none;stroke-width:1.20000005;stroke-linecap:butt;stroke-linejoin:round;stroke-miterlimit:4;stroke-dasharray:none;stroke-dashoffset:0;stroke-opacity:1;color-rendering:auto;image-rendering:auto;shape-rendering:auto;text-rendering:auto;enable-background:accumulate"
       d="m 111.44115,76.371094 a 0.60006002,0.60006002 0 0 0 -0.59961,0.599609 v 5.478516 a 0.60006002,0.60006002 0 0 0 0.59961,0.599609 h 12.56055 a 0.60006002,0.60006002 0 0 0 0.60156,-0.599609 v -5.478516 a 0.60006002,0.60006002 0 0 0 -0.60156,-0.599609 z m 0.59961,1.199218 h 11.36133 v 4.279297 h -11.36133 z"
       id="rect4518"
       inkscape:connector-curvature="0" />
    <rect
       style="fill:#6a9de8;fill-opacity:1;stroke:none;stroke-width:1.20000005;stroke-linecap:butt;stroke-linejoin:round;stroke-miterlimit:4;stroke-dasharray:none;stroke-dashoffset:0;stroke-opacity:1"
       id="rect4518-3-9"
       width="12.561667"
       height="5.4790254"
       x="111.44065"
       y="86.573586" />
    <path
       style="color:#000000;font-style:normal;font-variant:normal;font-weight:normal;font-stretch:normal;font-size:medium;line-height:normal;font-family:sans-serif;font-variant-ligatures:normal;font-variant-position:normal;font-variant-caps:normal;font-variant-numeric:normal;font-variant-alternates:normal;font-feature-settings:normal;text-indent:0;text-align:start;text-decoration:none;text-decoration-line:none;text-decoration-style:solid;text-decoration-color:#000000;letter-spacing:normal;word-spacing:normal;text-transform:none;writing-mode:lr-tb;direction:ltr;text-orientation:mixed;dominant-baseline:auto;baseline-shift:baseline;text-anchor:start;white-space:normal;shape-padding:0;clip-rule:nonzero;display:inline;overflow:visible;visibility:visible;opacity:1;isolation:auto;mix-blend-mode:normal;color-interpolation:sRGB;color-interpolation-filters:linearRGB;solid-color:#000000;solid-opacity:1;vector-effect:none;fill:#000000;fill-opacity:1;fill-rule:nonzero;stroke:none;stroke-width:1.20000005;stroke-linecap:butt;stroke-linejoin:round;stroke-miterlimit:4;stroke-dasharray:none;stroke-dashoffset:0;stroke-opacity:1;color-rendering:auto;image-rendering:auto;shape-rendering:auto;text-rendering:auto;enable-background:accumulate"
       d="m 111.44115,85.972656 a 0.60006002,0.60006002 0 0 0 -0.59961,0.601563 v 5.478515 a 0.60006002,0.60006002 0 0 0 0.59961,0.59961 h 12.56055 a 0.60006002,0.60006002 0 0 0 0.60156,-0.59961 v -5.478515 a 0.60006002,0.60006002 0 0 0 -0.60156,-0.601563 z m 0.59961,1.201172 h 11.36133 v 4.279297 h -11.36133 z"
       id="rect4518-1"
       inkscape:connector-curvature="0" />
    <rect
       style="fill:#6a9de8;fill-opacity:1;stroke:none;stroke-width:1.20000005;stroke-linecap:butt;stroke-linejoin:round;stroke-miterlimit:4;stroke-dasharray:none;stroke-dashoffset:0;stroke-opacity:1"
       id="rect4518-3-0"
       width="12.561667"
       height="5.4790254"
       x="111.44065"
       y="96.176811" />
    <path
       style="color:#000000;font-style:normal;font-variant:normal;font-weight:normal;font-stretch:normal;font-size:medium;line-height:normal;font-family:sans-serif;font-variant-ligatures:normal;font-variant-position:normal;font-variant-caps:normal;font-variant-numeric:normal;font-variant-alternates:normal;font-feature-settings:normal;text-indent:0;text-align:start;text-decoration:none;text-decoration-line:none;text-decoration-style:solid;text-decoration-color:#000000;letter-spacing:normal;word-spacing:normal;text-transform:none;writing-mode:lr-tb;direction:ltr;text-orientation:mixed;dominant-baseline:auto;baseline-shift:baseline;text-anchor:start;white-space:normal;shape-padding:0;clip-rule:nonzero;display:inline;overflow:visible;visibility:visible;opacity:1;isolation:auto;mix-blend-mode:normal;color-interpolation:sRGB;color-interpolation-filters:linearRGB;solid-color:#000000;solid-opacity:1;vector-effect:none;fill:#000000;fill-opacity:1;fill-rule:nonzero;stroke:none;stroke-width:1.20000005;stroke-linecap:butt;stroke-linejoin:round;stroke-miterlimit:4;stroke-dasharray:none;stroke-dashoffset:0;stroke-opacity:1;color-rendering:auto;image-rendering:auto;shape-rendering:auto;text-rendering:auto;enable-background:accumulate"
       d="m 111.44115,95.576172 a 0.60006002,0.60006002 0 0 0 -0.59961,0.601562 v 5.478516 a 0.60006002,0.60006002 0 0 0 0.59961,0.59961 h 12.56055 a 0.60006002,0.60006002 0 0 0 0.60156,-0.59961 v -5.478516 a 0.60006002,0.60006002 0 0 0 -0.60156,-0.601562 z m 0.59961,1.201172 h 11.36133 v 4.279296 h -11.36133 z"
       id="rect4518-9"
       inkscape:connector-curvature="0" />
    <rect
       style="fill:#6a9de8;fill-opacity:1;stroke:none;stroke-width:1.20000005;stroke-linecap:butt;stroke-linejoin:round;stroke-miterlimit:4;stroke-dasharray:none;stroke-dashoffset:0;stroke-opacity:1"
       id="rect4518-3-6"
       width="12.561667"
       height="5.4790254"
       x="111.44065"
       y="105.78004" />
    <path
       style="color:#000000;font-style:normal;font-variant:normal;font-weight:normal;font-stretch:normal;font-size:medium;line-height:normal;font-family:sans-serif;font-variant-ligatures:normal;font-variant-position:normal;font-variant-caps:normal;font-variant-numeric:normal;font-variant-alternates:normal;font-feature-settings:normal;text-indent:0;text-align:start;text-decoration:none;text-decoration-line:none;text-decoration-style:solid;text-decoration-color:#000000;letter-spacing:normal;word-spacing:normal;text-transform:none;writing-mode:lr-tb;direction:ltr;text-orientation:mixed;dominant-baseline:auto;baseline-shift:baseline;text-anchor:start;white-space:normal;shape-padding:0;clip-rule:nonzero;display:inline;overflow:visible;visibility:visible;opacity:1;isolation:auto;mix-blend-mode:normal;color-interpolation:sRGB;color-interpolation-filters:linearRGB;solid-color:#000000;solid-opacity:1;vector-effect:none;fill:#000000;fill-opacity:1;fill-rule:nonzero;stroke:none;stroke-width:1.20000005;stroke-linecap:butt;stroke-linejoin:round;stroke-miterlimit:4;stroke-dasharray:none;stroke-dashoffset:0;stroke-opacity:1;color-rendering:auto;image-rendering:auto;shape-rendering:auto;text-rendering:auto;enable-background:accumulate"
       d="m 111.44115,105.17969 a 0.60006002,0.60006002 0 0 0 -0.59961,0.59961 v 5.48047 a 0.60006002,0.60006002 0 0 0 0.59961,0.59961 h 12.56055 a 0.60006002,0.60006002 0 0 0 0.60156,-0.59961 v -5.48047 a 0.60006002,0.60006002 0 0 0 -0.60156,-0.59961 z m 0.59961,1.20117 h 11.36133 v 4.27734 h -11.36133 z"
       id="rect4518-0"
       inkscape:connector-curvature="0" />
    <rect
       style="fill:#6a9de8;fill-opacity:1;stroke:none;stroke-width:1.20000005;stroke-linecap:butt;stroke-linejoin:round;stroke-miterlimit:4;stroke-dasharray:none;stroke-dashoffset:0;stroke-opacity:1"
       id="rect4518-3-7"
       width="12.561667"
       height="5.4790254"
       x="127.85384"
       y="76.97036" />
    <path
       style="color:#000000;font-style:normal;font-variant:normal;font-weight:normal;font-stretch:normal;font-size:medium;line-height:normal;font-family:sans-serif;font-variant-ligatures:normal;font-variant-position:normal;font-variant-caps:normal;font-variant-numeric:normal;font-variant-alternates:normal;font-feature-settings:normal;text-indent:0;text-align:start;text-decoration:none;text-decoration-line:none;text-decoration-style:solid;text-decoration-color:#000000;letter-spacing:normal;word-spacing:normal;text-transform:none;writing-mode:lr-tb;direction:ltr;text-orientation:mixed;dominant-baseline:auto;baseline-shift:baseline;text-anchor:start;white-space:normal;shape-padding:0;clip-rule:nonzero;display:inline;overflow:visible;visibility:visible;opacity:1;isolation:auto;mix-blend-mode:normal;color-interpolation:sRGB;color-interpolation-filters:linearRGB;solid-color:#000000;solid-opacity:1;vector-effect:none;fill:#000000;fill-opacity:1;fill-rule:nonzero;stroke:none;stroke-width:1.20000005;stroke-linecap:butt;stroke-linejoin:round;stroke-miterlimit:4;stroke-dasharray:none;stroke-dashoffset:0;stroke-opacity:1;color-rendering:auto;image-rendering:auto;shape-rendering:auto;text-rendering:auto;enable-background:accumulate"
       d="m 127.85326,76.371094 a 0.60006002,0.60006002 0 0 0 -0.59961,0.599609 v 5.478516 a 0.60006002,0.60006002 0 0 0 0.59961,0.599609 h 12.5625 a 0.60006002,0.60006002 0 0 0 0.59961,-0.599609 v -5.478516 a 0.60006002,0.60006002 0 0 0 -0.59961,-0.599609 z m 0.60156,1.199218 h 11.36133 v 4.279297 h -11.36133 z"
       id="rect4518-92"
       inkscape:connector-curvature="0" />
    <rect
       style="fill:#6a9de8;fill-opacity:1;stroke:none;stroke-width:1.20000005;stroke-linecap:butt;stroke-linejoin:round;stroke-miterlimit:4;stroke-dasharray:none;stroke-dashoffset:0;stroke-opacity:1"
       id="rect4518-3-9-2"
       width="12.561667"
       height="5.4790254"
       x="127.85384"
       y="86.573586" />
    <path
       style="color:#000000;font-style:normal;font-variant:normal;font-weight:normal;font-stretch:normal;font-size:medium;line-height:normal;font-family:sans-serif;font-variant-ligatures:normal;font-variant-position:normal;font-variant-caps:normal;font-variant-numeric:normal;font-variant-alternates:normal;font-feature-settings:normal;text-indent:0;text-align:start;text-decoration:none;text-decoration-line:none;text-decoration-style:solid;text-decoration-color:#000000;letter-spacing:normal;word-spacing:normal;text-transform:none;writing-mode:lr-tb;direction:ltr;text-orientation:mixed;dominant-baseline:auto;baseline-shift:baseline;text-anchor:start;white-space:normal;shape-padding:0;clip-rule:nonzero;display:inline;overflow:visible;visibility:visible;opacity:1;isolation:auto;mix-blend-mode:normal;color-interpolation:sRGB;color-interpolation-filters:linearRGB;solid-color:#000000;solid-opacity:1;vector-effect:none;fill:#000000;fill-opacity:1;fill-rule:nonzero;stroke:none;stroke-width:1.20000005;stroke-linecap:butt;stroke-linejoin:round;stroke-miterlimit:4;stroke-dasharray:none;stroke-dashoffset:0;stroke-opacity:1;color-rendering:auto;image-rendering:auto;shape-rendering:auto;text-rendering:auto;enable-background:accumulate"
       d="m 127.85326,85.972656 a 0.60006002,0.60006002 0 0 0 -0.59961,0.601563 v 5.478515 a 0.60006002,0.60006002 0 0 0 0.59961,0.59961 h 12.5625 a 0.60006002,0.60006002 0 0 0 0.59961,-0.59961 v -5.478515 a 0.60006002,0.60006002 0 0 0 -0.59961,-0.601563 z m 0.60156,1.201172 h 11.36133 v 4.279297 h -11.36133 z"
       id="rect4518-1-3"
       inkscape:connector-curvature="0" />
    <rect
       style="fill:#6a9de8;fill-opacity:1;stroke:none;stroke-width:1.20000005;stroke-linecap:butt;stroke-linejoin:round;stroke-miterlimit:4;stroke-dasharray:none;stroke-dashoffset:0;stroke-opacity:1"
       id="rect4518-3-0-5"
       width="12.561667"
       height="5.4790254"
       x="127.85384"
       y="96.176811" />
    <path
       style="color:#000000;font-style:normal;font-variant:normal;font-weight:normal;font-stretch:normal;font-size:medium;line-height:normal;font-family:sans-serif;font-variant-ligatures:normal;font-variant-position:normal;font-variant-caps:normal;font-variant-numeric:normal;font-variant-alternates:normal;font-feature-settings:normal;text-indent:0;text-align:start;text-decoration:none;text-decoration-line:none;text-decoration-style:solid;text-decoration-color:#000000;letter-spacing:normal;word-spacing:normal;text-transform:none;writing-mode:lr-tb;direction:ltr;text-orientation:mixed;dominant-baseline:auto;baseline-shift:baseline;text-anchor:start;white-space:normal;shape-padding:0;clip-rule:nonzero;display:inline;overflow:visible;visibility:visible;opacity:1;isolation:auto;mix-blend-mode:normal;color-interpolation:sRGB;color-interpolation-filters:linearRGB;solid-color:#000000;solid-opacity:1;vector-effect:none;fill:#000000;fill-opacity:1;fill-rule:nonzero;stroke:none;stroke-width:1.20000005;stroke-linecap:butt;stroke-linejoin:round;stroke-miterlimit:4;stroke-dasharray:none;stroke-dashoffset:0;stroke-opacity:1;color-rendering:auto;image-rendering:auto;shape-rendering:auto;text-rendering:auto;enable-background:accumulate"
       d="m 127.85326,95.576172 a 0.60006002,0.60006002 0 0 0 -0.59961,0.601562 v 5.478516 a 0.60006002,0.60006002 0 0 0 0.59961,0.59961 h 12.5625 a 0.60006002,0.60006002 0 0 0 0.59961,-0.59961 v -5.478516 a 0.60006002,0.60006002 0 0 0 -0.59961,-0.601562 z m 0.60156,1.201172 h 11.36133 v 4.279296 h -11.36133 z"
       id="rect4518-9-9"
       inkscape:connector-curvature="0" />
    <rect
       style="fill:#6a9de8;fill-opacity:1;stroke:none;stroke-width:1.20000005;stroke-linecap:butt;stroke-linejoin:round;stroke-miterlimit:4;stroke-dasharray:none;stroke-dashoffset:0;stroke-opacity:1"
       id="rect4518-3-6-28"
       width="12.561667"
       height="5.4790254"
       x="127.85384"
       y="105.78004" />
    <path
       style="color:#000000;font-style:normal;font-variant:normal;font-weight:normal;font-stretch:normal;font-size:medium;line-height:normal;font-family:sans-serif;font-variant-ligatures:normal;font-variant-position:normal;font-variant-caps:normal;font-variant-numeric:normal;font-variant-alternates:normal;font-feature-settings:normal;text-indent:0;text-align:start;text-decoration:none;text-decoration-line:none;text-decoration-style:solid;text-decoration-color:#000000;letter-spacing:normal;word-spacing:normal;text-transform:none;writing-mode:lr-tb;direction:ltr;text-orientation:mixed;dominant-baseline:auto;baseline-shift:baseline;text-anchor:start;white-space:normal;shape-padding:0;clip-rule:nonzero;display:inline;overflow:visible;visibility:visible;opacity:1;isolation:auto;mix-blend-mode:normal;color-interpolation:sRGB;color-interpolation-filters:linearRGB;solid-color:#000000;solid-opacity:1;vector-effect:none;fill:#000000;fill-opacity:1;fill-rule:nonzero;stroke:none;stroke-width:1.20000005;stroke-linecap:butt;stroke-linejoin:round;stroke-miterlimit:4;stroke-dasharray:none;stroke-dashoffset:0;stroke-opacity:1;color-rendering:auto;image-rendering:auto;shape-rendering:auto;text-rendering:auto;enable-background:accumulate"
       d="m 127.85326,105.17969 a 0.60006002,0.60006002 0 0 0 -0.59961,0.59961 v 5.48047 a 0.60006002,0.60006002 0 0 0 0.59961,0.59961 h 12.5625 a 0.60006002,0.60006002 0 0 0 0.59961,-0.59961 v -5.48047 a 0.60006002,0.60006002 0 0 0 -0.59961,-0.59961 z m 0.60156,1.20117 h 11.36133 v 4.27734 h -11.36133 z"
       id="rect4518-0-9"
       inkscape:connector-curvature="0" />
    <rect
       style="fill:#6a9de8;fill-opacity:1;stroke:none;stroke-width:1.20000005;stroke-linecap:butt;stroke-linejoin:round;stroke-miterlimit:4;stroke-dasharray:none;stroke-dashoffset:0;stroke-opacity:1"
       id="rect4518-3-3"
       width="12.561667"
       height="5.4790254"
       x="144.26707"
       y="76.97036" />
    <path
       style="color:#000000;font-style:normal;font-variant:normal;font-weight:normal;font-stretch:normal;font-size:medium;line-height:normal;font-family:sans-serif;font-variant-ligatures:normal;font-variant-position:normal;font-variant-caps:normal;font-variant-numeric:normal;font-variant-alternates:normal;font-feature-settings:normal;text-indent:0;text-align:start;text-decoration:none;text-decoration-line:none;text-decoration-style:solid;text-decoration-color:#000000;letter-spacing:normal;word-spacing:normal;text-transform:none;writing-mode:lr-tb;direction:ltr;text-orientation:mixed;dominant-baseline:auto;baseline-shift:baseline;text-anchor:start;white-space:normal;shape-padding:0;clip-rule:nonzero;display:inline;overflow:visible;visibility:visible;opacity:1;isolation:auto;mix-blend-mode:normal;color-interpolation:sRGB;color-interpolation-filters:linearRGB;solid-color:#000000;solid-opacity:1;vector-effect:none;fill:#000000;fill-opacity:1;fill-rule:nonzero;stroke:none;stroke-width:1.20000005;stroke-linecap:butt;stroke-linejoin:round;stroke-miterlimit:4;stroke-dasharray:none;stroke-dashoffset:0;stroke-opacity:1;color-rendering:auto;image-rendering:auto;shape-rendering:auto;text-rendering:auto;enable-background:accumulate"
       d="m 144.26732,76.371094 a 0.60006002,0.60006002 0 0 0 -0.5996,0.599609 v 5.478516 a 0.60006002,0.60006002 0 0 0 0.5996,0.599609 h 12.56055 a 0.60006002,0.60006002 0 0 0 0.60156,-0.599609 v -5.478516 a 0.60006002,0.60006002 0 0 0 -0.60156,-0.599609 z m 0.59961,1.199218 h 11.36133 v 4.279297 h -11.36133 z"
       id="rect4518-19"
       inkscape:connector-curvature="0" />
    <rect
       style="fill:#6a9de8;fill-opacity:1;stroke:none;stroke-width:1.20000005;stroke-linecap:butt;stroke-linejoin:round;stroke-miterlimit:4;stroke-dasharray:none;stroke-dashoffset:0;stroke-opacity:1"
       id="rect4518-3-9-7"
       width="12.561667"
       height="5.4790254"
       x="144.26707"
       y="86.573586" />
    <path
       style="color:#000000;font-style:normal;font-variant:normal;font-weight:normal;font-stretch:normal;font-size:medium;line-height:normal;font-family:sans-serif;font-variant-ligatures:normal;font-variant-position:normal;font-variant-caps:normal;font-variant-numeric:normal;font-variant-alternates:normal;font-feature-settings:normal;text-indent:0;text-align:start;text-decoration:none;text-decoration-line:none;text-decoration-style:solid;text-decoration-color:#000000;letter-spacing:normal;word-spacing:normal;text-transform:none;writing-mode:lr-tb;direction:ltr;text-orientation:mixed;dominant-baseline:auto;baseline-shift:baseline;text-anchor:start;white-space:normal;shape-padding:0;clip-rule:nonzero;display:inline;overflow:visible;visibility:visible;opacity:1;isolation:auto;mix-blend-mode:normal;color-interpolation:sRGB;color-interpolation-filters:linearRGB;solid-color:#000000;solid-opacity:1;vector-effect:none;fill:#000000;fill-opacity:1;fill-rule:nonzero;stroke:none;stroke-width:1.20000005;stroke-linecap:butt;stroke-linejoin:round;stroke-miterlimit:4;stroke-dasharray:none;stroke-dashoffset:0;stroke-opacity:1;color-rendering:auto;image-rendering:auto;shape-rendering:auto;text-rendering:auto;enable-background:accumulate"
       d="m 144.26732,85.972656 a 0.60006002,0.60006002 0 0 0 -0.5996,0.601563 v 5.478515 a 0.60006002,0.60006002 0 0 0 0.5996,0.59961 h 12.56055 a 0.60006002,0.60006002 0 0 0 0.60156,-0.59961 v -5.478515 a 0.60006002,0.60006002 0 0 0 -0.60156,-0.601563 z m 0.59961,1.201172 h 11.36133 v 4.279297 h -11.36133 z"
       id="rect4518-1-8"
       inkscape:connector-curvature="0" />
    <rect
       style="fill:#6a9de8;fill-opacity:1;stroke:none;stroke-width:1.20000005;stroke-linecap:butt;stroke-linejoin:round;stroke-miterlimit:4;stroke-dasharray:none;stroke-dashoffset:0;stroke-opacity:1"
       id="rect4518-3-0-50"
       width="12.561667"
       height="5.4790254"
       x="144.26707"
       y="96.176811" />
    <path
       style="color:#000000;font-style:normal;font-variant:normal;font-weight:normal;font-stretch:normal;font-size:medium;line-height:normal;font-family:sans-serif;font-variant-ligatures:normal;font-variant-position:normal;font-variant-caps:normal;font-variant-numeric:normal;font-variant-alternates:normal;font-feature-settings:normal;text-indent:0;text-align:start;text-decoration:none;text-decoration-line:none;text-decoration-style:solid;text-decoration-color:#000000;letter-spacing:normal;word-spacing:normal;text-transform:none;writing-mode:lr-tb;direction:ltr;text-orientation:mixed;dominant-baseline:auto;baseline-shift:baseline;text-anchor:start;white-space:normal;shape-padding:0;clip-rule:nonzero;display:inline;overflow:visible;visibility:visible;opacity:1;isolation:auto;mix-blend-mode:normal;color-interpolation:sRGB;color-interpolation-filters:linearRGB;solid-color:#000000;solid-opacity:1;vector-effect:none;fill:#000000;fill-opacity:1;fill-rule:nonzero;stroke:none;stroke-width:1.20000005;stroke-linecap:butt;stroke-linejoin:round;stroke-miterlimit:4;stroke-dasharray:none;stroke-dashoffset:0;stroke-opacity:1;color-rendering:auto;image-rendering:auto;shape-rendering:auto;text-rendering:auto;enable-background:accumulate"
       d="m 144.26732,95.576172 a 0.60006002,0.60006002 0 0 0 -0.5996,0.601562 v 5.478516 a 0.60006002,0.60006002 0 0 0 0.5996,0.59961 h 12.56055 a 0.60006002,0.60006002 0 0 0 0.60156,-0.59961 v -5.478516 a 0.60006002,0.60006002 0 0 0 -0.60156,-0.601562 z m 0.59961,1.201172 h 11.36133 v 4.279296 h -11.36133 z"
       id="rect4518-9-3"
       inkscape:connector-curvature="0" />
    <rect
       style="fill:#6a9de8;fill-opacity:1;stroke:none;stroke-width:1.20000005;stroke-linecap:butt;stroke-linejoin:round;stroke-miterlimit:4;stroke-dasharray:none;stroke-dashoffset:0;stroke-opacity:1"
       id="rect4518-3-6-0"
       width="12.561667"
       height="5.4790254"
       x="144.26707"
       y="105.78004" />
    <path
       style="color:#000000;font-style:normal;font-variant:normal;font-weight:normal;font-stretch:normal;font-size:medium;line-height:normal;font-family:sans-serif;font-variant-ligatures:normal;font-variant-position:normal;font-variant-caps:normal;font-variant-numeric:normal;font-variant-alternates:normal;font-feature-settings:normal;text-indent:0;text-align:start;text-decoration:none;text-decoration-line:none;text-decoration-style:solid;text-decoration-color:#000000;letter-spacing:normal;word-spacing:normal;text-transform:none;writing-mode:lr-tb;direction:ltr;text-orientation:mixed;dominant-baseline:auto;baseline-shift:baseline;text-anchor:start;white-space:normal;shape-padding:0;clip-rule:nonzero;display:inline;overflow:visible;visibility:visible;opacity:1;isolation:auto;mix-blend-mode:normal;color-interpolation:sRGB;color-interpolation-filters:linearRGB;solid-color:#000000;solid-opacity:1;vector-effect:none;fill:#000000;fill-opacity:1;fill-rule:nonzero;stroke:none;stroke-width:1.20000005;stroke-linecap:butt;stroke-linejoin:round;stroke-miterlimit:4;stroke-dasharray:none;stroke-dashoffset:0;stroke-opacity:1;color-rendering:auto;image-rendering:auto;shape-rendering:auto;text-rendering:auto;enable-background:accumulate"
       d="m 144.26732,105.17969 a 0.60006002,0.60006002 0 0 0 -0.5996,0.59961 v 5.48047 a 0.60006002,0.60006002 0 0 0 0.5996,0.59961 h 12.56055 a 0.60006002,0.60006002 0 0 0 0.60156,-0.59961 v -5.48047 a 0.60006002,0.60006002 0 0 0 -0.60156,-0.59961 z m 0.59961,1.20117 h 11.36133 v 4.27734 h -11.36133 z"
       id="rect4518-0-63"
       inkscape:connector-curvature="0" />
    <text
       xml:space="preserve"
       style="font-style:normal;font-variant:normal;font-weight:bold;font-stretch:normal;font-size:22.25019836px;line-height:1.25;font-family:'M+ 1c';-inkscape-font-specification:'M+ 1c Bold';text-align:start;writing-mode:lr-tb;text-anchor:start;fill:#ffffff;fill-opacity:1;stroke:none;stroke-width:6.30714321;stroke-linecap:butt;stroke-linejoin:round;stroke-miterlimit:4;stroke-dasharray:none;stroke-dashoffset:0;stroke-opacity:1"
       x="76.888031"
       y="78.916557"
       id="text5009"><tspan
         sodipodi:role="line"
         id="tspan5007"
         x="76.888031"
         y="78.916557"
         style="font-style:normal;font-variant:normal;font-weight:bold;font-stretch:normal;font-family:'M+ 1c';-inkscape-font-specification:'M+ 1c Bold';stroke-width:6.30714321">D</tspan></text>
    <path
       style="fill:#6a9de8;fill-opacity:1;stroke:none;stroke-width:1.14480841;stroke-linecap:butt;stroke-linejoin:round;stroke-miterlimit:4;stroke-dasharray:none;stroke-dashoffset:0;stroke-opacity:1"
       d="m 96.526146,65.61795 8.324634,5.392418 v 6.612892 l -8.324634,-4.452668 z"
       id="rect4518-0-1-5"
       inkscape:connector-curvature="0"
       sodipodi:nodetypes="ccccc" />
    <path
       style="fill:#6a9de8;fill-opacity:1;stroke:none;stroke-width:1.14480841;stroke-linecap:butt;stroke-linejoin:round;stroke-miterlimit:4;stroke-dasharray:none;stroke-dashoffset:0;stroke-opacity:1"
       d="m 96.526146,78.855644 8.324634,3.745301 v 6.612892 l -8.324634,-2.805551 z"
       id="rect4518-0-7-8"
       inkscape:connector-curvature="0"
       sodipodi:nodetypes="ccccc" />
    <path
       style="fill:#6a9de8;fill-opacity:1;stroke:none;stroke-width:1.14480841;stroke-linecap:butt;stroke-linejoin:round;stroke-miterlimit:4;stroke-dasharray:none;stroke-dashoffset:0;stroke-opacity:1"
       d="m 96.526146,92.093353 8.324634,2.098175 v 6.612892 l -8.324634,-1.158425 z"
       id="rect4518-0-7-2-0"
       inkscape:connector-curvature="0"
       sodipodi:nodetypes="ccccc" />
    <path
       style="fill:#6a9de8;fill-opacity:1;stroke:none;stroke-width:1.14480841;stroke-linecap:butt;stroke-linejoin:round;stroke-miterlimit:4;stroke-dasharray:none;stroke-dashoffset:0;stroke-opacity:1"
       d="m 96.526146,105.33107 8.324634,0.45105 v 6.61289 l -8.324634,0.4887 z"
       id="rect4518-0-7-2-5-8"
       inkscape:connector-curvature="0"
       sodipodi:nodetypes="ccccc" />
    <path
       style="fill:none;fill-opacity:1;stroke:#000000;stroke-width:1.14480841;stroke-linecap:butt;stroke-linejoin:round;stroke-miterlimit:4;stroke-dasharray:none;stroke-dashoffset:0;stroke-opacity:1"
       d="m 96.526146,65.61795 8.324634,5.392418 v 6.612892 l -8.324634,-4.452668 z"
       id="rect4518-0-1"
       inkscape:connector-curvature="0"
       sodipodi:nodetypes="ccccc" />
    <path
       style="fill:none;fill-opacity:1;stroke:#000000;stroke-width:1.14480841;stroke-linecap:butt;stroke-linejoin:round;stroke-miterlimit:4;stroke-dasharray:none;stroke-dashoffset:0;stroke-opacity:1"
       d="m 96.526146,78.855644 8.324634,3.745301 v 6.612892 l -8.324634,-2.805551 z"
       id="rect4518-0-7"
       inkscape:connector-curvature="0"
       sodipodi:nodetypes="ccccc" />
    <path
       style="fill:none;fill-opacity:1;stroke:#000000;stroke-width:1.14480841;stroke-linecap:butt;stroke-linejoin:round;stroke-miterlimit:4;stroke-dasharray:none;stroke-dashoffset:0;stroke-opacity:1"
       d="m 96.526146,92.093353 8.324634,2.098175 v 6.612892 l -8.324634,-1.158425 z"
       id="rect4518-0-7-2"
       inkscape:connector-curvature="0"
       sodipodi:nodetypes="ccccc" />
    <path
       style="fill:none;fill-opacity:1;stroke:#000000;stroke-width:1.14480841;stroke-linecap:butt;stroke-linejoin:round;stroke-miterlimit:4;stroke-dasharray:none;stroke-dashoffset:0;stroke-opacity:1"
       d="m 96.526146,105.33107 8.324634,0.45105 v 6.61289 l -8.324634,0.4887 z"
       id="rect4518-0-7-2-5"
       inkscape:connector-curvature="0"
       sodipodi:nodetypes="ccccc" />
    <g
       id="g880"
       transform="translate(0,0.37417732)">
      <path
         sodipodi:nodetypes="ccssc"
         inkscape:connector-curvature="0"
         id="path5126-6"
         d="m 107.23116,114.69397 c 4.8096,-4.12287 9.82215,-7.69212 14.36574,-7.57731 4.54358,0.11481 10.19542,5.85973 7.21627,9.01242 -1.85729,1.96547 -5.61266,3.50163 -12.16076,1.43509 -6.5481,-2.06655 -6.81537,-3.0424 -9.42125,-2.8702 z"
         style="fill:#f7efe1;fill-opacity:1;stroke:none;stroke-width:1.11226261;stroke-linecap:butt;stroke-linejoin:round;stroke-miterlimit:4;stroke-dasharray:none;stroke-dashoffset:0;stroke-opacity:1" />
      <path
         inkscape:connector-curvature="0"
         id="path5126"
         d="m 121.61133,106.56055 c -4.84489,-0.12243 -9.90804,3.56702 -14.74219,7.71093 a 0.55618692,0.55618692 0 0 0 0.39844,0.97657 c 1.23272,-0.0815 1.79987,0.0861 2.99023,0.55859 1.19036,0.47254 2.93063,1.24693 6.22657,2.28711 6.68172,2.10871 10.71745,0.5503 12.73242,-1.58203 0.86298,-0.91326 1.11927,-2.0848 0.91211,-3.20508 -0.20717,-1.12028 -0.83164,-2.21046 -1.6836,-3.1875 -1.70392,-1.95408 -4.33385,-3.49542 -6.83398,-3.55859 z m -0.0293,1.11133 c 2.04345,0.0516 4.51229,1.44248 6.02539,3.17773 0.75656,0.86763 1.27108,1.81103 1.42774,2.6582 0.15666,0.84718 -3.7e-4,1.57715 -0.62696,2.24024 -1.69961,1.79861 -5.17342,3.30952 -11.58789,1.28515 -3.25216,-1.02636 -4.92057,-1.77079 -6.15234,-2.25976 -0.67975,-0.26984 -1.26459,-0.44174 -1.86914,-0.54492 4.40598,-3.63972 8.89599,-6.65487 12.7832,-6.55664 z"
         style="color:#000000;font-style:normal;font-variant:normal;font-weight:normal;font-stretch:normal;font-size:medium;line-height:normal;font-family:sans-serif;font-variant-ligatures:normal;font-variant-position:normal;font-variant-caps:normal;font-variant-numeric:normal;font-variant-alternates:normal;font-feature-settings:normal;text-indent:0;text-align:start;text-decoration:none;text-decoration-line:none;text-decoration-style:solid;text-decoration-color:#000000;letter-spacing:normal;word-spacing:normal;text-transform:none;writing-mode:lr-tb;direction:ltr;text-orientation:mixed;dominant-baseline:auto;baseline-shift:baseline;text-anchor:start;white-space:normal;shape-padding:0;clip-rule:nonzero;display:inline;overflow:visible;visibility:visible;opacity:1;isolation:auto;mix-blend-mode:normal;color-interpolation:sRGB;color-interpolation-filters:linearRGB;solid-color:#000000;solid-opacity:1;vector-effect:none;fill:#000000;fill-opacity:1;fill-rule:nonzero;stroke:none;stroke-width:1.11226261;stroke-linecap:butt;stroke-linejoin:round;stroke-miterlimit:4;stroke-dasharray:none;stroke-dashoffset:0;stroke-opacity:1;color-rendering:auto;image-rendering:auto;shape-rendering:auto;text-rendering:auto;enable-background:accumulate" />
    </g>
    <g
       id="g876"
       transform="translate(0,0.37417732)">
      <path
         sodipodi:nodetypes="ccssc"
         inkscape:connector-curvature="0"
         id="path5126-1-9"
         d="m 138.65694,114.69397 c 4.8096,-4.12287 9.82215,-7.69212 14.36574,-7.57731 4.54358,0.11481 10.19541,5.85973 7.21626,9.01242 -1.85729,1.96547 -5.61265,3.50163 -12.16075,1.43509 -6.5481,-2.06655 -6.81537,-3.0424 -9.42125,-2.8702 z"
         style="fill:#f7efe1;fill-opacity:1;stroke:none;stroke-width:1.11226261;stroke-linecap:butt;stroke-linejoin:round;stroke-miterlimit:4;stroke-dasharray:none;stroke-dashoffset:0;stroke-opacity:1" />
      <path
         inkscape:connector-curvature="0"
         id="path5126-1"
         d="m 153.03711,106.56055 c -4.84489,-0.12243 -9.90804,3.56702 -14.74219,7.71093 a 0.55618692,0.55618692 0 0 0 0.39844,0.97657 c 1.23272,-0.0815 1.79987,0.0861 2.99023,0.55859 1.19037,0.47254 2.93063,1.24693 6.22657,2.28711 6.68173,2.10871 10.71745,0.5503 12.73242,-1.58203 0.86298,-0.91326 1.11927,-2.0848 0.91211,-3.20508 -0.20716,-1.12028 -0.83164,-2.21046 -1.6836,-3.1875 -1.70392,-1.95408 -4.33384,-3.49542 -6.83398,-3.55859 z m -0.0293,1.11133 c 2.04345,0.0516 4.51229,1.44248 6.02539,3.17773 0.75656,0.86763 1.27108,1.81103 1.42774,2.6582 0.15666,0.84718 -3.7e-4,1.57715 -0.62696,2.24024 -1.69961,1.79861 -5.17342,3.30952 -11.58789,1.28515 -3.25216,-1.02636 -4.92057,-1.77079 -6.15234,-2.25976 -0.67975,-0.26984 -1.26459,-0.44174 -1.86914,-0.54492 4.40598,-3.63972 8.89599,-6.65487 12.7832,-6.55664 z"
         style="color:#000000;font-style:normal;font-variant:normal;font-weight:normal;font-stretch:normal;font-size:medium;line-height:normal;font-family:sans-serif;font-variant-ligatures:normal;font-variant-position:normal;font-variant-caps:normal;font-variant-numeric:normal;font-variant-alternates:normal;font-feature-settings:normal;text-indent:0;text-align:start;text-decoration:none;text-decoration-line:none;text-decoration-style:solid;text-decoration-color:#000000;letter-spacing:normal;word-spacing:normal;text-transform:none;writing-mode:lr-tb;direction:ltr;text-orientation:mixed;dominant-baseline:auto;baseline-shift:baseline;text-anchor:start;white-space:normal;shape-padding:0;clip-rule:nonzero;display:inline;overflow:visible;visibility:visible;opacity:1;isolation:auto;mix-blend-mode:normal;color-interpolation:sRGB;color-interpolation-filters:linearRGB;solid-color:#000000;solid-opacity:1;vector-effect:none;fill:#000000;fill-opacity:1;fill-rule:nonzero;stroke:none;stroke-width:1.11226261;stroke-linecap:butt;stroke-linejoin:round;stroke-miterlimit:4;stroke-dasharray:none;stroke-dashoffset:0;stroke-opacity:1;color-rendering:auto;image-rendering:auto;shape-rendering:auto;text-rendering:auto;enable-background:accumulate" />
    </g>
  </g>
</svg>
