<?xml version="1.0" encoding="UTF-8" standalone="no"?>
<svg
   xmlns:dc="http://purl.org/dc/elements/1.1/"
   xmlns:cc="http://creativecommons.org/ns#"
   xmlns:rdf="http://www.w3.org/1999/02/22-rdf-syntax-ns#"
   xmlns:svg="http://www.w3.org/2000/svg"
   xmlns="http://www.w3.org/2000/svg"
   xmlns:sodipodi="http://sodipodi.sourceforge.net/DTD/sodipodi-0.dtd"
   xmlns:inkscape="http://www.inkscape.org/namespaces/inkscape"
   height="134.11569"
   width="134.61565"
   viewBox="0 0 134.61565 134.11569"
   version="1.1"
   id="svg74"
   sodipodi:docname="elephant_ui_disappointed.svg"
   inkscape:version="0.92.2 2405546, 2018-03-11">
  <metadata
     id="metadata80">
    <rdf:RDF>
      <cc:Work
         rdf:about="">
        <dc:format>image/svg+xml</dc:format>
        <dc:type
           rdf:resource="http://purl.org/dc/dcmitype/StillImage" />
      </cc:Work>
    </rdf:RDF>
  </metadata>
  <defs
     id="defs78" />
  <sodipodi:namedview
     pagecolor="#ffffff"
     bordercolor="#666666"
     borderopacity="1"
     objecttolerance="10"
     gridtolerance="10"
     guidetolerance="10"
     inkscape:pageopacity="0"
     inkscape:pageshadow="2"
     inkscape:window-width="958"
     inkscape:window-height="1050"
     id="namedview76"
     showgrid="false"
     inkscape:zoom="3.5193496"
     inkscape:cx="70.177693"
     inkscape:cy="48.335213"
     inkscape:window-x="0"
     inkscape:window-y="28"
     inkscape:window-maximized="0"
     inkscape:current-layer="svg74" />
  <g
     id="g16967"
     transform="translate(68.194418,-167.07632)">
    <path
       sodipodi:nodetypes="cccccssczccscc"
       inkscape:connector-curvature="0"
       id="path985"
       d="m 24.323971,168.38618 c -26.0105514,10.52972 -32.1325069,17.04996 -54.064857,40.49727 -0.928315,-12.37051 -2.826335,-25.65453 -2.826335,-25.65453 0,0 0.37561,15.16222 -11.422342,33.24692 -9.938137,17.45358 -20.606643,31.11918 -20.631929,47.22406 0,20.36377 16.393553,36.75732 36.757327,36.75732 h 54.117363 c 20.363773,0 36.758824,-16.39355 36.758824,-36.75732 0,0 0.532132,-15.72505 -2.710822,-25.16546 -3.242956,-9.44041 -21.555111,-41.66874 -49.510322,-54.73845 4.147343,6.84591 14.790535,16.33693 6.822803,41.85793 C 8.6242191,216.67922 3.4444412,207.36748 2.7649346,201.00901 1.8309435,192.26926 3.4917401,186.39583 24.323971,168.38768 Z"
       style="fill:#cd2b2b;fill-opacity:1;stroke:none;stroke-width:2.75814509;stroke-linecap:butt;stroke-linejoin:round;stroke-miterlimit:4;stroke-dasharray:none;stroke-dashoffset:0;stroke-opacity:1" />
    <path
       id="path16962"
       d="M 9.6074219,290.73242 C 27.718476,288.96332 37.628795,283.04918 48.650391,276.99609 36.824007,261.31964 31.06709,248.23914 27.378906,242.70898 18.91226,246.48768 10.587669,249.58471 2.40625,251.3125 L 0.40234375,256.27539 10.849609,260.69531 0,280.78711 l 17.681641,2.00977 z"
       style="fill:#331313;fill-opacity:1;stroke:none;stroke-width:6.21527052;stroke-linecap:butt;stroke-linejoin:round;stroke-miterlimit:4;stroke-dasharray:none;stroke-dashoffset:0;stroke-opacity:1"
       inkscape:connector-curvature="0" />
    <path
       id="path16960"
       d="m -15.554688,252.43555 c -8.729801,-0.9735 -17.265328,-4.38624 -25.572265,-11.48633 -1.980814,16.94733 -3.525348,29.36413 2.347656,40.86133 0,0 1.436467,0.50611 3.884766,1.25 0.745768,1.55466 1.560994,3.06387 2.458984,4.52539 0,0 15.296402,3.64298 32.94140638,3.4707 l 1.10156252,-2.63476 -14.0644529,-3.21485 6.4296872,-16.47461 -13.6621092,-9.24219 z"
       style="fill:#331313;fill-opacity:1;stroke:none;stroke-width:6.21527052;stroke-linecap:butt;stroke-linejoin:round;stroke-miterlimit:4;stroke-dasharray:none;stroke-dashoffset:0;stroke-opacity:1"
       inkscape:connector-curvature="0" />
  </g>
</svg>
