<?xml version="1.0" encoding="UTF-8" standalone="no"?>
<svg
   xmlns:dc="http://purl.org/dc/elements/1.1/"
   xmlns:cc="http://creativecommons.org/ns#"
   xmlns:rdf="http://www.w3.org/1999/02/22-rdf-syntax-ns#"
   xmlns:svg="http://www.w3.org/2000/svg"
   xmlns="http://www.w3.org/2000/svg"
   xmlns:sodipodi="http://sodipodi.sourceforge.net/DTD/sodipodi-0.dtd"
   xmlns:inkscape="http://www.inkscape.org/namespaces/inkscape"
   height="134.11569"
   width="134.61565"
   viewBox="0 0 134.61565 134.11569"
   version="1.1"
   id="svg74"
   sodipodi:docname="elephant_ui_disappointed.svg"
   inkscape:version="0.92.2 2405546, 2018-03-11">
  <metadata
     id="metadata80">
    <rdf:RDF>
      <cc:Work
         rdf:about="">
        <dc:format>image/svg+xml</dc:format>
        <dc:type
           rdf:resource="http://purl.org/dc/dcmitype/StillImage" />
      </cc:Work>
    </rdf:RDF>
  </metadata>
  <defs
     id="defs78" />
  <sodipodi:namedview
     pagecolor="#ffffff"
     bordercolor="#666666"
     borderopacity="1"
     objecttolerance="10"
     gridtolerance="10"
     guidetolerance="10"
     inkscape:pageopacity="0"
     inkscape:pageshadow="2"
     inkscape:window-width="1130"
     inkscape:window-height="1050"
     id="namedview76"
     showgrid="false"
     inkscape:zoom="2.4885559"
     inkscape:cx="28.385657"
     inkscape:cy="21.601519"
     inkscape:window-x="0"
     inkscape:window-y="28"
     inkscape:window-maximized="0"
     inkscape:current-layer="svg74" />
  <path
     style="opacity:1;fill:#121212;fill-opacity:1;stroke:#121212;stroke-width:8.52653599;stroke-linecap:round;stroke-linejoin:round;stroke-miterlimit:4;stroke-dasharray:none;stroke-dashoffset:0;stroke-opacity:1"
     d="m 120.5935,16.876292 -0.0814,0.04955 a 31.648146,24.529671 45 0 0 -1.59697,-1.726128 31.648146,24.529671 45 0 0 -3.53012,-3.116065 l 0.0407,-0.08316 -0.0601,0.0673 a 31.648146,24.529671 45 0 0 -5.81718,-3.8371276 l 0.015,-0.076958 -0.0328,0.068141 A 31.648146,24.529671 45 0 0 103.30562,5.636629 l -0.005,-0.1061662 -0.0186,0.099968 a 31.648146,24.529671 45 0 0 -6.299427,-1.251083 l -0.03185,-0.1167983 0.0063,0.1141103 a 31.648146,24.529671 45 0 0 -6.073757,0.138908 l -0.05044,-0.1035124 0.02834,0.1061661 a 31.648146,24.529671 45 0 0 -5.554419,1.5270587 l -0.05306,-0.072575 0.03892,0.079629 A 31.648146,24.529671 45 0 0 80.5796,8.9480959 l -0.0875,-0.082368 0.07083,0.095483 a 31.648146,24.529671 45 0 0 -1.370457,1.2041441 31.648146,24.529671 45 0 0 -0.852003,0.935177 60.222797,60.222797 0 0 0 -56.464276,15.971376 60.222797,60.222797 0 0 0 -8.84e-4,85.167982 60.222797,60.222797 0 0 0 85.16887,1e-5 60.222797,60.222797 0 0 0 15.93864,-56.466939 31.648146,24.529671 45 0 0 0.96701,-0.850249 31.648146,24.529671 45 0 0 2.30829,-2.842677 l 0.0964,0.06285 -0.085,-0.07953 a 31.648146,24.529671 45 0 0 2.46397,-5.017332 l 0.0823,0.0345 -0.0779,-0.05123 a 31.648146,24.529671 45 0 0 1.06523,-5.763216 l 0.1088,0.02203 -0.10882,-0.04513 a 31.648146,24.529671 45 0 0 -0.32904,-6.182675 l 0.11236,-0.0027 -0.11678,-0.02299 a 31.648146,24.529671 45 0 0 -1.70753,-6.306476 l 0.0938,-0.02654 -0.10173,0.0027 a 31.648146,24.529671 45 0 0 -3.00724,-6.128615 l 0.0601,-0.03719 -0.0717,0.02034 A 31.648146,24.529671 45 0 0 120.52979,16.9452 Z"
     id="path1285-7"
     inkscape:connector-curvature="0"
     inkscape:export-xdpi="251.71001"
     inkscape:export-ydpi="251.71001" />
  <path
     sodipodi:nodetypes="csscccccssscccssssccscccssssssssssssssssscsscscccccccscccc"
     inkscape:connector-curvature="0"
     id="path49751"
     d="m 101.52448,50.656272 c -1.41237,-0.337178 -3.296771,11.157756 -4.676155,10.560542 -1.379381,-0.597214 1.499736,-10.445192 0.147046,-11.185549 -1.352693,-0.740358 -6.484196,8.453676 -7.783499,7.622323 -1.299308,-0.831357 6.072123,-10.628019 4.786431,-11.54452 -1.285691,-0.916497 -8.815971,8.445405 -9.993874,7.360484 -1.177909,-1.084918 6.640007,-7.967179 5.569472,-9.115028 -1.070537,-1.147853 -9.323994,4.104866 -10.322009,2.884277 -0.998011,-1.220593 8.4634,-5.496917 7.635059,-6.786969 C 86.05861,39.16178 75.88464,42.999959 75.175374,41.628074 74.466108,40.256188 86.641763,38.354755 86.152372,36.920194 85.662981,35.48563 73.295433,37.684753 72.937414,36.278965 72.579398,34.873178 85.104285,34.382844 84.855475,32.972157 84.606665,31.561471 70.883401,29.703683 70.848714,28.297283 70.81403,26.890884 83.527736,29.464639 83.635805,28.107312 83.743874,26.749985 71.039578,23.094893 71.32903,21.801558 c 0.289452,-1.293334 13.416505,4.274301 13.86394,3.05772 0.447435,-1.216581 -12.707988,-7.254859 -12.182665,-8.432821 0.525322,-1.177961 11.908071,5.706927 12.533557,4.616545 0.625489,-1.09038 -9.117074,-9.227455 -8.314988,-10.174054 0.802092,-0.9465921 9.013229,9.031963 9.988762,8.223119 C 88.19317,18.283221 79.622039,8.0916359 80.718847,7.4556787 81.815658,6.8197232 90.164238,17.637838 91.356159,17.1573 92.548083,16.676764 86.637686,4.7535397 87.917017,4.4023803 89.196345,4.0512193 93.513894,17.196762 94.842554,17.008444 96.171215,16.820126 92.106343,3.768024 93.454201,3.6822338 c 1.347858,-0.08579 3.705439,12.0079052 5.103097,12.0817912 1.397658,0.07389 0.690784,-12.229614 2.098712,-12.037313 1.40792,0.192301 -0.50379,11.881261 0.9111,12.336333 1.41489,0.455072 3.72478,-11.6001085 5.15389,-11.0865435 1.42912,0.513565 -1.15791,13.1268725 0.21941,13.8250215 1.37731,0.698149 5.02326,-10.0309998 6.31924,-9.1640361 1.29599,0.8669621 -4.74307,9.9398411 -3.5106,10.9545411 1.23248,1.014701 7.69425,-7.51451 8.83503,-6.424722 1.14078,1.089797 -5.97358,7.348204 -4.91779,8.514813 1.0558,1.166612 8.51765,-5.191777 9.48543,-3.970992 0.96779,1.220785 -8.81487,7.323305 -8.04489,8.654118 0.76998,1.330812 11.9036,-3.704711 12.6433,-2.327743 0.73971,1.376967 -10.95514,4.639773 -10.38358,6.051199 0.57156,1.411425 13.64409,-0.442247 14.04631,0.996045 0.40222,1.438293 -12.05843,1.283319 -11.82548,2.694078 0.23294,1.41076 11.81116,2.838539 11.90664,4.223721 0.0955,1.385179 -12.66063,-1.204482 -12.75547,0.16151 -0.0948,1.365993 13.38568,4.291539 13.16067,5.616994 -0.22501,1.325455 -13.66822,-4.043845 -14.10564,-2.812757 -0.43741,1.231087 11.7042,8.186777 11.22152,9.393866 -0.48267,1.207089 -11.49379,-6.217419 -12.15298,-5.162256 -0.6592,1.055165 9.68195,8.806423 8.89556,9.75872 -0.78639,0.952292 -9.095,-9.094258 -9.98876,-8.223119 -0.89375,0.871153 6.4244,12.014742 5.40098,12.734144 -1.02341,0.719411 -8.32966,-11.306759 -9.50788,-10.827838 -1.17823,0.478919 4.68091,12.457149 3.40752,12.78338 -1.2734,0.326235 -5.48968,-13.008364 -6.78888,-12.742775 -1.29919,0.265591 1.9979,13.914591 0.60787,13.93518 -1.39002,0.02059 -1.8278,-12.449796 -3.22997,-12.564845 -1.40217,-0.115047 -2.10089,12.213993 -3.52572,12.022826 -1.42482,-0.191169 0.804,-12.082123 -0.60836,-12.419299 z"
     style="opacity:1;fill:#fee588;fill-opacity:1;stroke:none;stroke-width:3.90415287;stroke-linecap:round;stroke-linejoin:round;stroke-miterlimit:4;stroke-dasharray:none;stroke-dashoffset:0;stroke-opacity:1" />
  <path
     transform="rotate(45)"
     style="opacity:1;fill:#fee588;fill-opacity:1;stroke:none;stroke-width:2.66149664;stroke-linecap:round;stroke-linejoin:round;stroke-miterlimit:4;stroke-dasharray:none;stroke-dashoffset:0;stroke-opacity:1"
     d="M 155.05694,3.6752357 A 60.222797,60.222797 0 0 1 94.834145,63.898033 60.222797,60.222797 0 0 1 34.611347,3.6752357 60.222797,60.222797 0 0 1 94.834145,-56.547562 60.222797,60.222797 0 0 1 155.05694,3.6752357 Z"
     id="path815-3-6" />
  <path
     transform="rotate(45)"
     style="opacity:1;fill:#fb8e04;fill-opacity:1;stroke:none;stroke-width:2.58170867;stroke-linecap:round;stroke-linejoin:round;stroke-miterlimit:4;stroke-dasharray:none;stroke-dashoffset:0;stroke-opacity:1"
     d="M 153.25154,3.6752357 A 58.4174,58.4174 0 0 1 94.834145,62.092636 58.4174,58.4174 0 0 1 36.416744,3.6752357 58.4174,58.4174 0 0 1 94.834145,-54.742165 58.4174,58.4174 0 0 1 153.25154,3.6752357 Z"
     id="path815-3" />
  <path
     style="opacity:1;fill:#fef4c6;fill-opacity:1;stroke:none;stroke-width:5.16678953;stroke-linecap:round;stroke-linejoin:round;stroke-miterlimit:4;stroke-dasharray:none;stroke-dashoffset:0;stroke-opacity:1"
     d="m 115.06073,44.061481 c -1.77364,2.107082 -4.77207,-3.331191 -7.22728,-4.046248 -5.01673,-1.562795 -9.467667,-5.540521 -11.609592,-10.744727 -0.851945,-2.292439 -7.025806,-2.027325 -2.937797,-9.400223 1.640892,-2.02612 7.769629,-1.544233 10.095929,-0.956333 4.79217,1.292661 9.0174,6.396286 11.44841,11.050148 4.40655,10.064232 1.72321,11.141534 0.54773,13.601322 -0.3174,0.496073 -0.21259,0.329967 -0.3174,0.496073 z"
     id="path1056"
     inkscape:connector-curvature="0"
     sodipodi:nodetypes="ccccccccc" />
  <path
     transform="rotate(45)"
     style="opacity:1;fill:#db4f07;fill-opacity:1;stroke:none;stroke-width:2.47912455;stroke-linecap:round;stroke-linejoin:round;stroke-miterlimit:4;stroke-dasharray:none;stroke-dashoffset:0;stroke-opacity:1"
     d="M 150.93032,3.5943439 A 56.09618,56.09618 0 0 1 94.834145,59.690524 56.09618,56.09618 0 0 1 38.737965,3.5943439 56.09618,56.09618 0 0 1 94.834145,-52.501836 56.09618,56.09618 0 0 1 150.93032,3.5943439 Z"
     id="path815" />
  <path
     style="fill:#c54607;fill-opacity:1;stroke:none;stroke-width:7.43994856;stroke-linecap:butt;stroke-linejoin:round;stroke-miterlimit:4;stroke-dasharray:none;stroke-dashoffset:0;stroke-opacity:1"
     d="M 62.61036,31.337453 C 56.349663,56.921901 44.704303,90.400729 9.8128107,80.715454 c 0,0 34.7308663,28.548126 53.0762523,34.759756 18.703407,-7.18437 51.036087,-37.432 48.810717,-67.380274 -15.369927,-4.8601 -30.888613,-8.451292 -49.08942,-16.757483 z"
     id="path1021"
     inkscape:connector-curvature="0"
     sodipodi:nodetypes="ccccc" />
  <path
     inkscape:connector-curvature="0"
     id="path12887"
     style="font-style:normal;font-variant:normal;font-weight:normal;font-stretch:normal;font-size:medium;line-height:1.25;font-family:'Rounded-X M+ 1p';-inkscape-font-specification:'Rounded-X M+ 1p';letter-spacing:0px;word-spacing:0px;fill:#121212;fill-opacity:1;stroke:#121212;stroke-width:4.70103836;stroke-miterlimit:4;stroke-dasharray:none;stroke-opacity:1"
     d="M 31.777164,10.1164 Q 28.580458,4.5795426 19.352362,9.9073861 13.652656,13.198113 8.5697099,18.81071 L 6.2818714,14.848058 Q 11.467235,9.5382148 17.764053,5.9027452 q 6.351102,-3.66681 11.149897,-3.2527973 4.767454,0.3597293 7.149314,4.485231 1.128249,1.9541846 1.462947,3.7875091 0.388981,1.801984 -0.08442,3.739977 -0.419115,1.906651 -0.880219,3.113774 -0.461103,1.207122 -1.462785,3.232988 -1.047569,2.197112 -1.540012,3.349951 -0.492444,1.152839 -0.934501,3.145115 -0.419116,1.906653 -0.05308,3.794259 0.388981,1.801985 1.51723,3.756169 l -4.342633,2.507221 q -1.378971,-2.388448 -1.847428,-4.578811 -0.499797,-2.244645 0.01109,-4.49379 0.479546,-2.303427 0.963592,-3.596173 0.538329,-1.324085 1.663123,-3.638161 1.224961,-2.516663 1.709007,-3.809407 0.506988,-1.378369 0.552271,-3.431075 0.04528,-2.052706 -1.020286,-3.898325 z m 4.293217,38.776326 -3.854852,-6.676799 4.722613,-2.726602 3.854852,6.676799 z" />
  <path
     inkscape:connector-curvature="0"
     id="path12884"
     style="font-style:normal;font-variant:normal;font-weight:normal;font-stretch:normal;font-size:medium;line-height:1.25;font-family:'Rounded-X M+ 1p';-inkscape-font-specification:'Rounded-X M+ 1p';letter-spacing:0px;word-spacing:0px;fill:#ff5555;fill-opacity:1;stroke:none;stroke-width:1.56701279"
     d="M 31.777164,10.1164 Q 28.580458,4.5795426 19.352362,9.9073861 13.652656,13.198113 8.5697099,18.81071 L 6.2818714,14.848058 Q 11.467235,9.5382148 17.764053,5.9027452 q 6.351102,-3.66681 11.149897,-3.2527973 4.767454,0.3597293 7.149314,4.485231 1.128249,1.9541846 1.462947,3.7875091 0.388981,1.801984 -0.08442,3.739977 -0.419115,1.906651 -0.880219,3.113774 -0.461103,1.207122 -1.462785,3.232988 -1.047569,2.197112 -1.540012,3.349951 -0.492444,1.152839 -0.934501,3.145115 -0.419116,1.906653 -0.05308,3.794259 0.388981,1.801985 1.51723,3.756169 l -4.342633,2.507221 q -1.378971,-2.388448 -1.847428,-4.578811 -0.499797,-2.244645 0.01109,-4.49379 0.479546,-2.303427 0.963592,-3.596173 0.538329,-1.324085 1.663123,-3.638161 1.224961,-2.516663 1.709007,-3.809407 0.506988,-1.378369 0.552271,-3.431075 0.04528,-2.052706 -1.020286,-3.898325 z m 4.293217,38.776326 -3.854852,-6.676799 4.722613,-2.726602 3.854852,6.676799 z" />
</svg>
