<?xml version="1.0" encoding="UTF-8" standalone="no"?>
<svg
   xmlns:dc="http://purl.org/dc/elements/1.1/"
   xmlns:cc="http://creativecommons.org/ns#"
   xmlns:rdf="http://www.w3.org/1999/02/22-rdf-syntax-ns#"
   xmlns:svg="http://www.w3.org/2000/svg"
   xmlns="http://www.w3.org/2000/svg"
   xmlns:xlink="http://www.w3.org/1999/xlink"
   xmlns:sodipodi="http://sodipodi.sourceforge.net/DTD/sodipodi-0.dtd"
   xmlns:inkscape="http://www.inkscape.org/namespaces/inkscape"
   viewBox="0 0 292.85862 204.49997"
   width="292.85861"
   height="204.49997"
   version="1.1"
   id="svg80"
   sodipodi:docname="elephant_ui_plane.svg"
   inkscape:version="0.92.2 2405546, 2018-03-11">
  <metadata
     id="metadata86">
    <rdf:RDF>
      <cc:Work
         rdf:about="">
        <dc:format>image/svg+xml</dc:format>
        <dc:type
           rdf:resource="http://purl.org/dc/dcmitype/StillImage" />
      </cc:Work>
    </rdf:RDF>
  </metadata>
  <defs
     id="defs84">
    <defs
       id="defs3">
      <path
         d="M395.89999 745.09998H690.5v279.79999H395.89999z"
         id="a" />
    </defs>
    <clipPath
       id="b">
      <use
         id="use5"
         overflow="visible"
         height="100%"
         width="100%"
         xlink:href="#a" />
    </clipPath>
  </defs>
  <sodipodi:namedview
     pagecolor="#ffffff"
     bordercolor="#666666"
     borderopacity="1"
     objecttolerance="10"
     gridtolerance="10"
     guidetolerance="10"
     inkscape:pageopacity="0"
     inkscape:pageshadow="2"
     inkscape:window-width="1918"
     inkscape:window-height="1050"
     id="namedview82"
     showgrid="false"
     inkscape:zoom="2.3080688"
     inkscape:cx="35.22091"
     inkscape:cy="67.185796"
     inkscape:window-x="0"
     inkscape:window-y="28"
     inkscape:window-maximized="0"
     inkscape:current-layer="svg80" />
  <g
     id="g905"
     transform="matrix(1.2203705,0,0,1.2491616,-74.545803,-34.251963)">
    <path
       style="opacity:1;fill:#fee588;fill-opacity:1;stroke:none;stroke-width:8.1769104;stroke-linecap:round;stroke-linejoin:round;stroke-miterlimit:4;stroke-dasharray:none;stroke-dashoffset:0;stroke-opacity:1"
       d="m 213.24711,125.8994 c -2.95809,-0.70619 -6.90481,23.36895 -9.7938,22.11814 -2.889,-1.25081 3.14106,-21.87655 0.30797,-23.42716 -2.8331,-1.55062 -13.58058,17.70549 -16.30187,15.9643 -2.72128,-1.74121 12.71754,-22.25947 10.02477,-24.179 -2.69277,-1.91953 -18.46429,17.68817 -20.93131,15.41589 -2.46702,-2.27226 13.90693,-16.68656 11.66479,-19.09063 -2.24215,-2.40408 -19.5283,8.59728 -21.61856,6.04086 -2.09024,-2.55642 17.72587,-11.51281 15.99096,-14.21471 -1.73488,-2.7019 -23.04337,5.33683 -24.52887,2.46353 -1.4855,-2.87329 24.01535,-6.85568 22.99037,-9.860242 -1.02499,-3.00457 -26.92775,1.601302 -27.67758,-1.343 -0.74984,-2.9443 25.48246,-3.971259 24.96134,-6.925822 -0.52111,-2.954561 -29.2633,-6.845537 -29.33595,-9.791119 -0.0726,-2.945581 26.55512,2.444926 26.78145,-0.397878 0.22635,-2.842804 -26.38169,-10.498077 -25.77547,-13.206855 0.60623,-2.708776 28.09971,8.952152 29.03682,6.40413 0.93712,-2.548023 -26.61578,-15.194675 -25.51553,-17.661814 1.10024,-2.467136 24.94042,11.952666 26.25045,9.668956 1.31002,-2.283708 -19.09492,-19.326107 -17.41503,-21.308676 1.67992,-1.982556 18.87743,18.916664 20.92059,17.22261 2.04318,-1.694057 -15.90831,-23.03945 -13.61114,-24.371406 2.29718,-1.331954 19.78256,21.325651 22.27894,20.319205 2.49637,-1.00644 -9.88244,-25.978601 -7.203,-26.714073 2.67944,-0.735477 11.72217,26.796723 14.50494,26.402308 2.78277,-0.394416 -5.73076,-27.730913 -2.90779,-27.910593 2.82298,-0.17968 7.76073,25.149516 10.688,25.304265 2.92728,0.154749 1.44678,-25.613867 4.39557,-25.211109 2.94877,0.402758 -1.05514,24.884272 1.90823,25.83738 2.96336,0.953109 7.80121,-24.295422 10.79437,-23.219804 2.99317,1.075617 -2.42513,27.493097 0.45953,28.95531 2.88466,1.462212 10.52078,-21.00906 13.2351,-19.19328 2.71432,1.815776 -9.93395,20.818136 -7.35264,22.943337 2.58131,2.125203 16.11493,-15.738489 18.50419,-13.456022 2.38928,2.282485 -12.51113,15.390174 -10.29987,17.833537 2.21129,2.443367 17.83948,-10.873728 19.86641,-8.316897 2.02693,2.556827 -18.46198,15.338026 -16.84933,18.125298 1.61267,2.787272 24.93106,-7.759195 26.48031,-4.875256 1.54925,2.883939 -22.9446,9.717603 -21.74752,12.673712 1.19709,2.956109 28.57636,-0.926248 29.41877,2.086131 0.84242,3.012379 -25.25532,2.687799 -24.76743,5.642512 0.48787,2.954714 24.73745,5.945076 24.93742,8.846215 0.19997,2.90114 -26.5166,-2.522681 -26.71522,0.33827 -0.19863,2.86095 28.03514,8.98826 27.56387,11.76431 -0.47125,2.77605 -28.6269,-8.46949 -29.54302,-5.89108 -0.91614,2.57841 24.51342,17.1465 23.50249,19.67464 -1.01091,2.52814 -24.07274,-13.02185 -25.45337,-10.8119 -1.38063,2.20995 20.278,18.44429 18.63099,20.4388 -1.64704,1.99449 -19.04868,-19.04714 -20.92061,-17.22261 -1.87188,1.82455 13.45535,25.16383 11.3119,26.67056 -2.14345,1.50674 -17.44575,-23.68103 -19.91343,-22.67797 -2.4677,1.00305 9.80376,26.09042 7.13675,26.77368 -2.66702,0.68327 -11.49766,-27.24489 -14.21873,-26.68864 -2.72105,0.55626 4.18444,29.14291 1.27314,29.18603 -2.91128,0.0432 -3.82816,-26.07502 -6.76489,-26.31598 -2.93672,-0.24096 -4.40013,25.58115 -7.38431,25.18076 -2.98417,-0.40038 1.68392,-25.30495 -1.27416,-26.01114 z"
       id="path49751"
       inkscape:connector-curvature="0"
       sodipodi:nodetypes="csscccccssscccssssccscccssssssssssssssssscsscscccccccscccc" />
    <path
       id="path815-3-6"
       d="m 224.80525,254.88246 a 126.13144,126.13144 0 0 1 -178.376796,0 126.13144,126.13144 0 0 1 3e-6,-178.376795 126.13144,126.13144 0 0 1 178.376793,-2e-6 126.13144,126.13144 0 0 1 0,178.376797 z"
       style="opacity:1;fill:#fee588;fill-opacity:1;stroke:none;stroke-width:5.57427454;stroke-linecap:round;stroke-linejoin:round;stroke-miterlimit:4;stroke-dasharray:none;stroke-dashoffset:0;stroke-opacity:1"
       inkscape:connector-curvature="0" />
    <path
       id="path815-3"
       d="m 222.1315,252.20871 a 122.35019,122.35019 0 0 1 -173.029298,0 122.35019,122.35019 0 0 1 4e-6,-173.029296 122.35019,122.35019 0 0 1 173.029294,-3e-6 122.35019,122.35019 0 0 1 0,173.029299 z"
       style="opacity:1;fill:#fb8e04;fill-opacity:1;stroke:none;stroke-width:5.40716553;stroke-linecap:round;stroke-linejoin:round;stroke-miterlimit:4;stroke-dasharray:none;stroke-dashoffset:0;stroke-opacity:1"
       inkscape:connector-curvature="0" />
    <path
       sodipodi:nodetypes="ccccccccc"
       inkscape:connector-curvature="0"
       id="path1056"
       d="m 241.59761,112.08718 c -3.71474,4.4131 -9.99469,-6.97689 -15.13692,-8.47452 -10.50711,-3.27314 -19.8292,-11.604137 -24.31528,-22.503896 -1.78432,-4.801315 -14.71494,-4.246057 -6.15296,-19.687953 3.4367,-4.243534 16.27282,-3.234261 21.14505,-2.002956 10.03678,2.707367 18.88615,13.396465 23.9777,23.143577 9.22914,21.078658 3.60911,23.334978 1.14717,28.486788 -0.66476,1.03898 -0.44525,0.69109 -0.66476,1.03898 z"
       style="opacity:1;fill:#fef4c6;fill-opacity:1;stroke:none;stroke-width:10.82139397;stroke-linecap:round;stroke-linejoin:round;stroke-miterlimit:4;stroke-dasharray:none;stroke-dashoffset:0;stroke-opacity:1" />
    <path
       id="path815"
       d="m 218.81363,248.65124 a 117.4886,117.4886 0 0 1 -166.153964,0 117.4886,117.4886 0 0 1 3e-6,-166.153959 117.4886,117.4886 0 0 1 166.153961,-4e-6 117.4886,117.4886 0 0 1 0,166.153963 z"
       style="opacity:1;fill:#db4f07;fill-opacity:1;stroke:none;stroke-width:5.19231129;stroke-linecap:round;stroke-linejoin:round;stroke-miterlimit:4;stroke-dasharray:none;stroke-dashoffset:0;stroke-opacity:1"
       inkscape:connector-curvature="0" />
    <path
       sodipodi:nodetypes="ccccc"
       inkscape:connector-curvature="0"
       id="path1021"
       d="M 131.74485,85.437805 C 118.63236,139.02222 94.242162,209.14072 21.164954,188.85576 c 0,0 72.740792,59.79157 111.163616,72.8013 C 171.50124,246.61002 239.21923,183.25897 234.55839,120.5349 202.36741,110.35584 169.86486,102.8344 131.74485,85.437805 Z"
       style="fill:#c54607;fill-opacity:1;stroke:none;stroke-width:15.58232784;stroke-linecap:butt;stroke-linejoin:round;stroke-miterlimit:4;stroke-dasharray:none;stroke-dashoffset:0;stroke-opacity:1" />
  </g>
</svg>
