<?xml version="1.0" encoding="UTF-8" standalone="no"?>
<svg
   xmlns:dc="http://purl.org/dc/elements/1.1/"
   xmlns:cc="http://creativecommons.org/ns#"
   xmlns:rdf="http://www.w3.org/1999/02/22-rdf-syntax-ns#"
   xmlns:svg="http://www.w3.org/2000/svg"
   xmlns="http://www.w3.org/2000/svg"
   xmlns:sodipodi="http://sodipodi.sourceforge.net/DTD/sodipodi-0.dtd"
   xmlns:inkscape="http://www.inkscape.org/namespaces/inkscape"
   height="266.89999"
   width="463.97818"
   viewBox="0 0 463.97818 266.89999"
   version="1.1"
   id="svg121"
   sodipodi:docname="elephant_ui_greeting.svg"
   inkscape:version="0.92.2 2405546, 2018-03-11">
  <metadata
     id="metadata127">
    <rdf:RDF>
      <cc:Work
         rdf:about="">
        <dc:format>image/svg+xml</dc:format>
        <dc:type
           rdf:resource="http://purl.org/dc/dcmitype/StillImage" />
      </cc:Work>
    </rdf:RDF>
  </metadata>
  <defs
     id="defs125" />
  <sodipodi:namedview
     pagecolor="#ffffff"
     bordercolor="#666666"
     borderopacity="1"
     objecttolerance="10"
     gridtolerance="10"
     guidetolerance="10"
     inkscape:pageopacity="0"
     inkscape:pageshadow="2"
     inkscape:window-width="1918"
     inkscape:window-height="1050"
     id="namedview123"
     showgrid="false"
     inkscape:zoom="0.88422632"
     inkscape:cx="-250.23346"
     inkscape:cy="180.49102"
     inkscape:window-x="0"
     inkscape:window-y="28"
     inkscape:window-maximized="0"
     inkscape:current-layer="svg121" />
  <path
     sodipodi:nodetypes="csscccccssscccssssccscccssssssssssssssssscsscscccccccscccc"
     inkscape:connector-curvature="0"
     id="path49751"
     d="m 237.96039,215.37778 c -5.04025,-1.20327 -11.76497,39.81795 -16.68751,37.68674 -4.92249,-2.13123 5.35203,-37.2751 0.52476,-39.91717 -4.82726,-2.64207 -23.13973,30.16811 -27.77647,27.20131 -4.63675,-2.96683 21.6692,-37.92754 17.08102,-41.19818 -4.58817,-3.27067 -31.46096,30.13857 -35.66449,26.26688 -4.20353,-3.8717 23.69578,-28.43196 19.87542,-32.52823 -3.82036,-4.09625 -33.27396,14.64878 -36.8355,10.29295 -3.56152,-4.35587 30.20279,-19.61652 27.24675,-24.22024 -2.95604,-4.60374 -39.26324,9.09334 -41.79436,4.19757 -2.53111,-4.89575 40.91938,-11.68126 39.17291,-16.80069 -1.74644,-5.11942 -45.88172,2.72845 -47.15936,-2.28832 -1.27764,-5.01673 43.41914,-6.76654 42.53121,-11.80078 -0.88791,-5.03423 -49.86125,-11.66399 -49.98503,-16.68292 -0.12379,-5.01893 45.24682,4.16587 45.63248,-0.67795 0.38565,-4.84379 -44.95134,-17.88751 -43.91841,-22.50294 1.03297,-4.61543 47.87863,15.25343 49.47536,10.91189 1.59674,-4.34154 -45.35016,-25.889962 -43.47549,-30.093672 1.87468,-4.20371 42.49555,20.365962 44.7277,16.474772 2.23213,-3.89117 -32.53551,-32.929422 -29.67315,-36.307502 2.86234,-3.378031 32.16493,32.231792 35.64625,29.345332 3.48133,-2.886472 -27.10595,-39.256538 -23.19182,-41.526036 3.91414,-2.269495 33.70717,36.336424 37.96069,34.621564 4.25355,-1.71488 -16.8385,-44.264517 -12.27306,-45.517675 4.56545,-1.253167 19.97323,45.658495 24.71474,44.986445 4.7415,-0.67204 -9.76455,-47.250232 -4.95453,-47.556386 4.80999,-0.306155 13.22334,42.851836 18.21113,43.115516 4.9877,0.26366 2.46512,-43.643043 7.48949,-42.956789 5.02435,0.686253 -1.79782,42.399889 3.25139,44.023879 5.04926,1.62398 13.29238,-41.39656 18.39237,-39.563835 5.09998,1.832726 -4.13216,46.845035 0.78297,49.336477 4.91514,2.49142 17.92621,-35.796996 22.55111,-32.703116 4.62488,3.093865 -16.92632,35.471676 -12.52808,39.092776 4.39826,3.6211 27.45796,-26.816542 31.52899,-22.927502 4.07106,3.88908 -21.31751,26.223062 -17.54977,30.386282 3.76775,4.16321 30.39641,-18.527582 33.85002,-14.17106 3.45369,4.35656 -31.45702,26.13423 -28.70927,30.88342 2.74777,4.74917 42.47962,-13.22076 45.11935,-8.30687 2.63974,4.9139 -39.09492,16.55766 -37.05523,21.59453 2.03969,5.03685 48.69077,-1.57823 50.12616,3.55452 1.43537,5.13274 -43.03213,4.57969 -42.20081,9.61419 0.83127,5.03448 42.14971,10.12969 42.49043,15.07293 0.34073,4.94318 -45.18119,-4.29837 -45.51961,0.57634 -0.33844,4.87474 47.7686,15.31495 46.96563,20.04501 -0.80294,4.73009 -48.77689,-14.431 -50.33787,-10.03771 -1.56099,4.39331 41.76801,29.21562 40.04552,33.52328 -1.72251,4.30769 -41.01716,-22.18769 -43.36958,-18.4222 -2.35242,3.76551 34.55133,31.42694 31.74501,34.82531 -2.80632,3.39838 -32.45673,-32.45407 -35.64624,-29.34531 -3.18949,3.10885 22.92634,42.87624 19.27413,45.44355 -3.65218,2.56731 -29.72551,-40.34973 -33.93017,-38.64063 -4.20466,1.70909 16.70448,44.45502 12.16019,45.61924 -4.54427,1.16421 -19.59067,-46.42213 -24.22702,-45.47433 -4.63636,0.9478 7.12976,49.6561 2.16929,49.72959 -4.96051,0.0735 -6.52281,-44.42879 -11.52662,-44.83936 -5.00382,-0.41056 -7.49733,43.58728 -12.58199,42.90506 -5.0847,-0.68219 2.86918,-43.11668 -2.17103,-44.31995 z"
     style="opacity:1;fill:#fee588;fill-opacity:1;stroke:none;stroke-width:13.93250084;stroke-linecap:round;stroke-linejoin:round;stroke-miterlimit:4;stroke-dasharray:none;stroke-dashoffset:0;stroke-opacity:1" />
  <path
     style="opacity:1;fill:#fee588;fill-opacity:1;stroke:none;stroke-width:9.49791241;stroke-linecap:round;stroke-linejoin:round;stroke-miterlimit:4;stroke-dasharray:none;stroke-dashoffset:0;stroke-opacity:1"
     d="m 257.65411,435.14983 a 214.91323,214.91323 0 0 1 -303.933217,0 214.91323,214.91323 0 0 1 0,-303.93319 214.91323,214.91323 0 0 1 303.933217,0 214.91323,214.91323 0 0 1 0,303.93319 z"
     id="path815-3-6"
     inkscape:connector-curvature="0" />
  <path
     style="opacity:1;fill:#fb8e04;fill-opacity:1;stroke:none;stroke-width:9.21317863;stroke-linecap:round;stroke-linejoin:round;stroke-miterlimit:4;stroke-dasharray:none;stroke-dashoffset:0;stroke-opacity:1"
     d="m 253.09834,430.5941 a 208.47041,208.47041 0 0 1 -294.821693,-3e-5 208.47041,208.47041 0 0 1 0,-294.82168 208.47041,208.47041 0 0 1 294.821693,0 208.47041,208.47041 0 0 1 0,294.82171 z"
     id="path815-3"
     inkscape:connector-curvature="0" />
  <path
     style="opacity:1;fill:#fef4c6;fill-opacity:1;stroke:none;stroke-width:18.43839073;stroke-linecap:round;stroke-linejoin:round;stroke-miterlimit:4;stroke-dasharray:none;stroke-dashoffset:0;stroke-opacity:1"
     d="m 286.26632,191.84335 c -6.32945,7.51943 -17.02973,-11.88778 -25.7915,-14.43956 -17.90292,-5.57706 -33.78667,-19.77208 -41.43041,-38.344 -3.04029,-8.18088 -25.07254,-7.2348 -10.48394,-33.54599 5.85576,-7.230472 27.72699,-5.51079 36.0287,-3.41279 17.10151,4.61303 32.17981,22.82599 40.85521,39.43395 15.72539,35.91557 6.14948,39.76005 1.9546,48.53816 -1.13266,1.77031 -0.75858,1.17754 -1.13266,1.77031 z"
     id="path1056"
     inkscape:connector-curvature="0"
     sodipodi:nodetypes="ccccccccc" />
  <path
     style="opacity:1;fill:#db4f07;fill-opacity:1;stroke:none;stroke-width:8.84709263;stroke-linecap:round;stroke-linejoin:round;stroke-miterlimit:4;stroke-dasharray:none;stroke-dashoffset:0;stroke-opacity:1"
     d="m 247.44509,424.5326 a 200.18683,200.18683 0 0 1 -283.106944,0 200.18683,200.18683 0 0 1 3e-6,-283.10694 200.18683,200.18683 0 0 1 283.106941,-1e-5 200.18683,200.18683 0 0 1 0,283.10695 z"
     id="path815"
     inkscape:connector-curvature="0" />
  <path
     style="fill:#c54607;fill-opacity:1;stroke:none;stroke-width:26.55046844;stroke-linecap:butt;stroke-linejoin:round;stroke-miterlimit:4;stroke-dasharray:none;stroke-dashoffset:0;stroke-opacity:1"
     d="m 99.090051,146.43596 c -22.34215,91.30158 -63.900181,210.77532 -188.415217,176.21211 0,0 123.941816,101.87789 189.409846,124.04492 C 166.83031,421.05456 282.21387,313.11177 274.27234,206.23731 219.42267,188.89339 164.04211,176.07773 99.090051,146.43596 Z"
     id="path1021"
     inkscape:connector-curvature="0"
     sodipodi:nodetypes="ccccc" />
</svg>
