<?xml version="1.0" encoding="UTF-8" standalone="no"?>
<!-- Created with Inkscape (http://www.inkscape.org/) -->

<svg
   xmlns:dc="http://purl.org/dc/elements/1.1/"
   xmlns:cc="http://creativecommons.org/ns#"
   xmlns:rdf="http://www.w3.org/1999/02/22-rdf-syntax-ns#"
   xmlns:svg="http://www.w3.org/2000/svg"
   xmlns="http://www.w3.org/2000/svg"
   xmlns:sodipodi="http://sodipodi.sourceforge.net/DTD/sodipodi-0.dtd"
   xmlns:inkscape="http://www.inkscape.org/namespaces/inkscape"
   width="330"
   height="244"
   viewBox="0 0 87.3125 64.558334"
   version="1.1"
   id="svg8"
   sodipodi:docname="elephant-fren.svg"
   inkscape:export-filename="/home/yantene/dev/web/fla.red/app/javascript/images/elephant-fren.png"
   inkscape:export-xdpi="96"
   inkscape:export-ydpi="96"
   inkscape:version="0.92.2 2405546, 2018-03-11">
  <defs
     id="defs2" />
  <sodipodi:namedview
     id="base"
     pagecolor="#ffffff"
     bordercolor="#666666"
     borderopacity="1.0"
     inkscape:pageopacity="0.0"
     inkscape:pageshadow="2"
     inkscape:zoom="2"
     inkscape:cx="320.16185"
     inkscape:cy="37.546268"
     inkscape:document-units="mm"
     inkscape:current-layer="layer1"
     showgrid="false"
     showguides="false"
     fit-margin-top="0"
     fit-margin-left="0"
     fit-margin-right="0"
     fit-margin-bottom="0"
     inkscape:window-width="1918"
     inkscape:window-height="1050"
     inkscape:window-x="0"
     inkscape:window-y="28"
     inkscape:window-maximized="0"
     units="px" />
  <metadata
     id="metadata5">
    <rdf:RDF>
      <cc:Work
         rdf:about="">
        <dc:format>image/svg+xml</dc:format>
        <dc:type
           rdf:resource="http://purl.org/dc/dcmitype/StillImage" />
        <dc:title />
      </cc:Work>
    </rdf:RDF>
  </metadata>
  <g
     inkscape:label="レイヤー 1"
     inkscape:groupmode="layer"
     id="layer1"
     transform="translate(-74.321091,-54.536724)">
    <path
       inkscape:connector-curvature="0"
       style="opacity:1;fill:#121212;fill-opacity:1;stroke:none;stroke-width:5.5486908;stroke-linecap:round;stroke-linejoin:round;stroke-miterlimit:4;stroke-dasharray:none;stroke-dashoffset:0;stroke-opacity:1"
       d="m 137.41297,57.626464 0.004,0.07441 a 20.595207,15.96282 45 0 0 -3.95274,0.09043 l -0.0326,-0.06718 0.0181,0.06873 a 20.595207,15.96282 45 0 0 -3.61426,0.993738 l -0.0346,-0.04703 0.0253,0.05168 a 20.595207,15.96282 45 0 0 -3.06699,1.884639 l -0.0568,-0.05374 0.046,0.06201 a 20.595207,15.96282 45 0 0 -0.89193,0.783932 20.595207,15.96282 45 0 0 -0.55449,0.608232 39.190319,39.190319 0 0 0 -36.744528,10.39368 39.190319,39.190319 0 0 0 -8.379334,42.920375 h 72.161492 a 39.190319,39.190319 0 0 0 2.01383,-24.242963 20.595207,15.96282 45 0 0 0.6289,-0.553453 20.595207,15.96282 45 0 0 1.50223,-1.850017 l 0.0631,0.04134 -0.0558,-0.05167 a 20.595207,15.96282 45 0 0 1.60352,-3.265435 l 0.0537,0.02273 -0.0506,-0.03359 a 20.595207,15.96282 45 0 0 0.69298,-3.750156 l 0.0708,0.01394 -0.0708,-0.02894 a 20.595207,15.96282 45 0 0 -0.21394,-4.023528 l 0.0729,-0.0021 -0.076,-0.01447 a 20.595207,15.96282 45 0 0 -1.11105,-4.104142 l 0.061,-0.01757 -0.0661,0.0021 a 20.595207,15.96282 45 0 0 -1.95699,-3.988387 l 0.0393,-0.02429 -0.047,0.01344 a 20.595207,15.96282 45 0 0 -2.73627,-3.653007 l 0.0408,-0.04496 -0.0532,0.03204 a 20.595207,15.96282 45 0 0 -1.03921,-1.123446 20.595207,15.96282 45 0 0 -2.29702,-2.027783 l 0.0264,-0.05374 -0.0388,0.04393 a 20.595207,15.96282 45 0 0 -3.78581,-2.497501 l 0.01,-0.04961 -0.0212,0.04393 a 20.595207,15.96282 45 0 0 -4.05091,-1.682068 l -0.003,-0.06925 -0.0119,0.06511 a 20.595207,15.96282 45 0 0 -4.09949,-0.813904 z"
       id="path1285-7-6" />
    <path
       style="color:#000000;font-style:normal;font-variant:normal;font-weight:normal;font-stretch:normal;font-size:medium;line-height:normal;font-family:sans-serif;font-variant-ligatures:normal;font-variant-position:normal;font-variant-caps:normal;font-variant-numeric:normal;font-variant-alternates:normal;font-feature-settings:normal;text-indent:0;text-align:start;text-decoration:none;text-decoration-line:none;text-decoration-style:solid;text-decoration-color:#000000;letter-spacing:normal;word-spacing:normal;text-transform:none;writing-mode:lr-tb;direction:ltr;text-orientation:mixed;dominant-baseline:auto;baseline-shift:baseline;text-anchor:start;white-space:normal;shape-padding:0;clip-rule:nonzero;display:inline;overflow:visible;visibility:visible;opacity:1;isolation:auto;mix-blend-mode:normal;color-interpolation:sRGB;color-interpolation-filters:linearRGB;solid-color:#000000;solid-opacity:1;vector-effect:none;fill:#121212;fill-opacity:1;fill-rule:nonzero;stroke:none;stroke-width:20.97142982;stroke-linecap:round;stroke-linejoin:round;stroke-miterlimit:4;stroke-dasharray:none;stroke-dashoffset:0;stroke-opacity:1;color-rendering:auto;image-rendering:auto;shape-rendering:auto;text-rendering:auto;enable-background:accumulate"
       d="M 238.51953 1.2011719 A 10.486763 10.486763 0 0 0 236.38477 1.4101562 C 232.50897 1.2084807 228.67723 1.2980697 224.90039 1.6855469 A 10.486763 10.486763 0 0 0 219.04688 2.5371094 C 215.35428 3.2308152 211.76951 4.2191921 208.30859 5.5117188 A 10.486763 10.486763 0 0 0 203.04297 7.7988281 C 199.8727 9.3676344 196.87807 11.205216 194.06055 13.296875 A 10.486763 10.486763 0 0 0 189.42188 16.962891 C 189.36858 17.009946 189.31501 17.056234 189.26172 17.103516 C 137.53866 6.8555421 83.898241 22.922619 46.398438 60.357422 A 10.486763 10.486763 0 0 0 46.386719 60.369141 C 1.8852936 104.93373 -11.93297 171.5687 10.830078 229.99805 L 306.17578 229.99805 C 317.06551 201.96289 319.65662 171.42602 313.85547 141.93359 C 315.16685 140.49179 316.40207 138.98614 317.5625 137.41602 A 10.486763 10.486763 0 0 0 320.79297 132.4668 C 322.63435 129.42254 324.20629 126.21971 325.49609 122.86133 A 10.486763 10.486763 0 0 0 327.28711 117.42578 C 328.28094 113.82529 328.96857 110.12296 329.35938 106.33594 A 10.486763 10.486763 0 0 0 329.73438 100.40625 C 329.82546 96.528886 329.61797 92.616156 329.11719 88.679688 A 10.486763 10.486763 0 0 0 328.19727 82.957031 C 327.39385 78.857181 326.29064 74.781096 324.89062 70.744141 A 10.486763 10.486763 0 0 0 322.98828 65.691406 C 321.25779 61.463767 319.22582 57.326559 316.89453 53.302734 A 10.486763 10.486763 0 0 0 314.39062 49.228516 A 10.486763 10.486763 0 0 0 314.38867 49.226562 C 311.82139 45.27546 308.98254 41.485006 305.89648 37.871094 A 10.486763 10.486763 0 0 0 302.66797 34.160156 C 301.77415 33.180034 300.89389 32.186281 299.96484 31.238281 A 10.486763 10.486763 0 0 0 299.85938 31.130859 C 297.46913 28.761228 294.89404 26.601365 292.30469 24.464844 A 10.486763 10.486763 0 0 0 288.18164 21.152344 C 284.39765 18.289722 280.45925 15.690914 276.37891 13.380859 A 10.486763 10.486763 0 0 0 272.10352 11.111328 C 268.02503 9.0757464 263.85767 7.3466624 259.62305 5.921875 A 10.486763 10.486763 0 0 0 254.35547 4.3242188 C 250.33277 3.2262055 246.29353 2.4246117 242.25 1.9238281 A 10.486763 10.486763 0 0 0 238.51953 1.2011719 z M 231.125 22.179688 C 233.20453 22.132103 235.3348 22.206526 237.50391 22.402344 A 10.486763 10.486763 0 0 0 237.60547 22.412109 C 241.95567 22.799443 246.43949 23.683181 250.95508 25.068359 A 10.486763 10.486763 0 0 0 251.01758 25.083984 A 10.486763 10.486763 0 0 0 251.02539 25.085938 C 255.54597 26.466856 260.07088 28.342422 264.49414 30.683594 A 10.486763 10.486763 0 0 0 264.49805 30.685547 C 268.90808 33.056558 273.1851 35.875984 277.22852 39.087891 A 10.486763 10.486763 0 0 0 277.27344 39.119141 A 10.486763 10.486763 0 0 0 277.32617 39.164062 C 280.0246 41.280522 282.61015 43.567332 285.0625 45.996094 C 286.24576 47.206344 287.39506 48.446119 288.50586 49.71875 A 10.486763 10.486763 0 0 0 288.58398 49.800781 A 10.486763 10.486763 0 0 0 288.64062 49.867188 C 292.10437 53.736668 295.20504 57.877258 297.87891 62.197266 A 10.486763 10.486763 0 0 0 297.89453 62.21875 C 300.52225 66.535889 302.70815 70.996293 304.41211 75.498047 C 304.41313 75.50073 304.41511 75.503214 304.41602 75.505859 A 10.486763 10.486763 0 0 0 304.4375 75.574219 C 306.15034 80.086608 307.36992 84.611181 308.08984 89.044922 A 10.486763 10.486763 0 0 0 308.09766 89.068359 A 10.486763 10.486763 0 0 0 308.09766 89.076172 A 10.486763 10.486763 0 0 0 308.10547 89.121094 C 308.8314 93.556282 309.05354 97.872202 308.79688 101.98047 A 10.486763 10.486763 0 0 0 308.79688 102.04492 A 10.486763 10.486763 0 0 0 308.79492 102.05859 C 308.54623 106.16779 307.82193 110.04202 306.66797 113.62891 C 305.48161 117.18833 303.87866 120.43828 301.89648 123.35547 A 10.486763 10.486763 0 0 0 301.87109 123.39844 A 10.486763 10.486763 0 0 0 301.81055 123.48242 C 300.52649 125.41383 299.07346 127.18864 297.47461 128.82227 C 296.93981 129.31863 296.39553 129.80483 295.83008 130.26953 A 10.486763 10.486763 0 0 0 292.28516 140.78906 C 298.49027 166.97208 296.77663 194.31603 287.61914 219.51172 L 29.375 219.51172 C 11.136803 169.46961 23.290437 113.18842 61.214844 75.201172 L 61.220703 75.195312 C 61.222668 75.193347 61.224295 75.191343 61.226562 75.189453 C 95.013464 41.469226 143.8164 27.665633 190.25977 38.697266 A 10.486763 10.486763 0 0 0 200.66211 35.298828 C 201.14887 34.727946 201.65587 34.177175 202.17578 33.638672 C 202.97874 32.867686 203.81326 32.128888 204.6875 31.431641 A 10.486763 10.486763 0 0 0 204.71484 31.408203 A 10.486763 10.486763 0 0 0 204.89453 31.265625 C 207.58019 29.032778 210.60576 27.168804 213.95703 25.701172 C 217.33283 24.271978 221.01253 23.249383 224.95703 22.6875 A 10.486763 10.486763 0 0 0 224.95898 22.6875 A 10.486763 10.486763 0 0 0 225.02539 22.679688 C 227.00189 22.395354 229.03851 22.227415 231.125 22.179688 z "
       transform="matrix(0.26458333,0,0,0.26458333,74.321091,54.536724)"
       id="path1285-7" />
    <path
       sodipodi:nodetypes="csscccccssscccssssccscccssssssssssssssssscsscscccccccscccc"
       inkscape:connector-curvature="0"
       id="path49751"
       d="m 140.3887,87.817656 c -0.9191,-0.21942 -2.14539,7.260972 -3.04303,6.872331 -0.89764,-0.38864 0.97596,-6.797266 0.0957,-7.279057 -0.88027,-0.481793 -4.21962,5.501276 -5.06515,4.960269 -0.84553,-0.541011 3.95146,-6.916243 3.11479,-7.512661 -0.83667,-0.596416 -5.73704,5.495894 -6.50357,4.789876 -0.76653,-0.706017 4.32103,-5.184686 3.62437,-5.931656 -0.69666,-0.746971 -6.06764,2.671265 -6.71711,1.87696 -0.64946,-0.794308 5.50761,-3.57715 4.96856,-4.416658 -0.53905,-0.839508 -7.15981,1.658208 -7.62137,0.765446 -0.46156,-0.892762 7.46181,-2.13013 7.14334,-3.063679 -0.31847,-0.93355 -8.36672,0.497541 -8.59971,-0.417283 -0.23298,-0.914824 7.91766,-1.233911 7.75575,-2.151924 -0.16192,-0.918012 -9.09241,-2.126978 -9.11498,-3.0422 -0.0226,-0.915222 8.25094,0.759663 8.32127,-0.123625 0.0703,-0.883288 -8.19706,-3.261859 -8.0087,-4.103504 0.18836,-0.841645 8.73086,2.781525 9.02203,1.989828 0.29117,-0.791696 -8.26979,-4.72114 -7.92793,-5.487705 0.34185,-0.766565 7.74924,3.713815 8.15628,3.004243 0.40704,-0.709571 -5.93299,-6.004818 -5.41103,-6.620823 0.52197,-0.616 5.86541,5.877601 6.50025,5.351241 0.63483,-0.526361 -4.94288,-7.158592 -4.22913,-7.572444 0.71376,-0.413852 6.14664,6.626096 6.92229,6.313384 0.77565,-0.312712 -3.07057,-8.071816 -2.23804,-8.300335 0.83253,-0.22852 3.6422,8.326015 4.50683,8.203466 0.86464,-0.122549 -1.7806,-8.616277 -0.90347,-8.672106 0.87712,-0.05583 2.41133,7.814211 3.32086,7.862293 0.90954,0.04808 0.44954,-7.958489 1.36575,-7.833348 0.91621,0.125141 -0.32784,7.731797 0.59291,8.027937 0.92075,0.296141 2.42391,-7.548835 3.35392,-7.21463 0.93001,0.334206 -0.75352,8.542386 0.14278,8.99671 0.8963,0.454324 3.26891,-6.527729 4.11228,-5.963547 0.84337,0.56418 -3.08658,6.468406 -2.28454,7.128728 0.80204,0.660322 5.00707,-4.890109 5.74944,-4.180923 0.74238,0.709191 -3.88734,4.781884 -3.20027,5.541061 0.68706,0.759179 5.5429,-3.378578 6.17269,-2.584145 0.62979,0.794433 -5.73632,4.765681 -5.23525,5.631715 0.50106,0.866034 7.74633,-2.410861 8.22769,-1.514791 0.48137,0.896069 -7.12912,3.019358 -6.75717,3.937851 0.37195,0.918493 8.87897,-0.287795 9.14071,0.648182 0.26175,0.935977 -7.84708,0.835127 -7.69549,1.753186 0.15159,0.91806 7.68617,1.847195 7.74831,2.74861 0.0621,0.901413 -8.23898,-0.783824 -8.30069,0.105104 -0.0617,0.888927 8.7108,2.792742 8.56438,3.655289 -0.14643,0.862548 -8.89468,-2.631554 -9.17933,-1.830417 -0.28465,0.801137 7.61658,5.327591 7.30247,6.113111 -0.3141,0.78552 -7.47965,-4.046021 -7.90862,-3.359367 -0.42898,0.686654 6.30058,5.730829 5.78883,6.350541 -0.51174,0.619709 -5.91862,-5.918139 -6.50024,-5.35124 -0.58161,0.566907 4.18071,7.818659 3.51472,8.286815 -0.66599,0.46816 -5.42057,-7.357937 -6.18731,-7.046276 -0.76673,0.311659 3.04614,8.106559 2.21747,8.318855 -0.82867,0.212299 -3.57244,-8.465265 -4.4179,-8.292431 -0.84546,0.172835 1.30014,9.054997 0.39557,9.068395 -0.90456,0.0134 -1.18945,-8.101773 -2.10192,-8.176642 -0.91247,-0.07487 -1.36717,7.948324 -2.29438,7.82392 -0.92721,-0.124404 0.52321,-7.862508 -0.3959,-8.081927 z"
       style="opacity:1;fill:#fee588;fill-opacity:1;stroke:none;stroke-width:2.54064918;stroke-linecap:round;stroke-linejoin:round;stroke-miterlimit:4;stroke-dasharray:none;stroke-dashoffset:0;stroke-opacity:1" />
    <path
       style="opacity:1;fill:#fee588;fill-opacity:1;stroke:none;stroke-width:6.54608059;stroke-linecap:round;stroke-linejoin:round;stroke-miterlimit:4;stroke-dasharray:none;stroke-dashoffset:0;stroke-opacity:1"
       d="M 160.70312 24.414062 A 148.12089 148.12089 0 0 0 53.802734 67.78125 A 148.12089 148.12089 0 0 0 22.121094 229.99805 L 294.94531 229.99805 A 148.12089 148.12089 0 0 0 263.27734 67.78125 A 148.12089 148.12089 0 0 0 160.70312 24.414062 z "
       transform="matrix(0.26458333,0,0,0.26458333,74.321091,54.536724)"
       id="path815-3-6" />
    <path
       style="opacity:1;fill:#fb8e04;fill-opacity:1;stroke:none;stroke-width:6.34983778;stroke-linecap:round;stroke-linejoin:round;stroke-miterlimit:4;stroke-dasharray:none;stroke-dashoffset:0;stroke-opacity:1"
       d="M 160.63867 28.853516 A 143.68042 143.68042 0 0 0 56.943359 70.921875 A 143.68042 143.68042 0 0 0 27.011719 229.99805 L 290.19922 229.99805 A 143.68042 143.68042 0 0 0 260.13672 70.921875 A 143.68042 143.68042 0 0 0 160.63867 28.853516 z "
       transform="matrix(0.26458333,0,0,0.26458333,74.321091,54.536724)"
       id="path815-3" />
    <path
       style="opacity:1;fill:#fef4c6;fill-opacity:1;stroke:none;stroke-width:3.36231709;stroke-linecap:round;stroke-linejoin:round;stroke-miterlimit:4;stroke-dasharray:none;stroke-dashoffset:0;stroke-opacity:1"
       d="m 149.19749,83.526062 c -1.1542,1.371195 -3.10544,-2.167791 -4.70318,-2.633119 -3.26467,-1.016997 -6.16114,-3.605524 -7.55501,-6.99219 -0.55441,-1.491818 -4.57208,-1.319293 -1.91179,-6.117248 1.06782,-1.318509 5.05613,-1.004917 6.56998,-0.622338 3.11853,0.841206 5.86812,4.162418 7.45012,7.190945 2.86759,6.549354 1.12139,7.250414 0.35644,8.851136 -0.20655,0.322821 -0.13835,0.214727 -0.20655,0.322821 z"
       id="path1056"
       inkscape:connector-curvature="0"
       sodipodi:nodetypes="ccccccccc" />
    <path
       style="opacity:1;fill:#db4f07;fill-opacity:1;stroke:none;stroke-width:6.09752703;stroke-linecap:round;stroke-linejoin:round;stroke-miterlimit:4;stroke-dasharray:none;stroke-dashoffset:0;stroke-opacity:1"
       d="M 160.69531 34.421875 A 137.97127 137.97127 0 0 0 61.121094 74.818359 A 137.97127 137.97127 0 0 0 33.505859 229.99805 L 283.93945 229.99805 A 137.97127 137.97127 0 0 0 256.24219 74.818359 A 137.97127 137.97127 0 0 0 160.69531 34.421875 z "
       transform="matrix(0.26458333,0,0,0.26458333,74.321091,54.536724)"
       id="path815" />
    <path
       style="fill:#c54607;fill-opacity:1;stroke:none;stroke-width:18.29891586;stroke-linecap:butt;stroke-linejoin:round;stroke-miterlimit:4;stroke-dasharray:none;stroke-dashoffset:0;stroke-opacity:1"
       d="M 153.99414 78.271484 C 138.59563 141.19768 109.95208 223.54013 24.134766 199.71875 C 24.134766 199.71875 40.792241 213.40353 63.261719 229.99805 L 228.26367 229.99805 C 256.04129 198.89985 277.67327 159.08963 274.73047 119.48633 C 236.92737 107.53268 198.75989 98.700965 153.99414 78.271484 z "
       transform="matrix(0.26458333,0,0,0.26458333,74.321091,54.536724)"
       id="path1021" />
  </g>
</svg>
