<?xml version="1.0" encoding="UTF-8" standalone="no"?>
<svg
   xmlns:dc="http://purl.org/dc/elements/1.1/"
   xmlns:cc="http://creativecommons.org/ns#"
   xmlns:rdf="http://www.w3.org/1999/02/22-rdf-syntax-ns#"
   xmlns:svg="http://www.w3.org/2000/svg"
   xmlns="http://www.w3.org/2000/svg"
   xmlns:sodipodi="http://sodipodi.sourceforge.net/DTD/sodipodi-0.dtd"
   xmlns:inkscape="http://www.inkscape.org/namespaces/inkscape"
   height="266.89999"
   width="463.97818"
   viewBox="0 0 463.97818 266.89999"
   version="1.1"
   id="svg121"
   sodipodi:docname="elephant_ui_greeting.svg"
   inkscape:version="0.92.2 2405546, 2018-03-11">
  <metadata
     id="metadata127">
    <rdf:RDF>
      <cc:Work
         rdf:about="">
        <dc:format>image/svg+xml</dc:format>
        <dc:type
           rdf:resource="http://purl.org/dc/dcmitype/StillImage" />
      </cc:Work>
    </rdf:RDF>
  </metadata>
  <defs
     id="defs125" />
  <sodipodi:namedview
     pagecolor="#ffffff"
     bordercolor="#666666"
     borderopacity="1"
     objecttolerance="10"
     gridtolerance="10"
     guidetolerance="10"
     inkscape:pageopacity="0"
     inkscape:pageshadow="2"
     inkscape:window-width="1130"
     inkscape:window-height="1050"
     id="namedview123"
     showgrid="false"
     inkscape:zoom="0.88422632"
     inkscape:cx="220.86075"
     inkscape:cy="153.58463"
     inkscape:window-x="0"
     inkscape:window-y="28"
     inkscape:window-maximized="0"
     inkscape:current-layer="g971" />
  <path
     style="opacity:1;fill:#121212;fill-opacity:1;stroke:#121212;stroke-width:16.88929939;stroke-linecap:round;stroke-linejoin:round;stroke-miterlimit:4;stroke-dasharray:none;stroke-dashoffset:0;stroke-opacity:1"
     d="m 238.87073,34.673031 -0.16122,0.09814 a 62.688416,48.588194 45 0 0 -3.16326,-3.419101 62.688416,48.588194 45 0 0 -6.99245,-6.17228 l 0.0806,-0.164714 -0.11907,0.133311 a 62.688416,48.588194 45 0 0 -11.52262,-7.600554 l 0.0297,-0.152438 -0.0649,0.134973 a 62.688416,48.588194 45 0 0 -12.33054,-5.120783 l -0.0105,-0.210294 -0.0369,0.198017 A 62.688416,48.588194 45 0 0 192.10168,9.9191759 l -0.0631,-0.2313531 0.0125,0.2260288 A 62.688416,48.588194 45 0 0 180.02019,10.189 l -0.0999,-0.2050372 0.0561,0.2102932 a 62.688416,48.588194 45 0 0 -11.00215,3.024787 l -0.1051,-0.143757 0.0771,0.157729 a 62.688416,48.588194 45 0 0 -9.33553,5.735903 l -0.17333,-0.163154 0.1403,0.189132 a 62.688416,48.588194 45 0 0 -2.71459,2.38516 62.688416,48.588194 45 0 0 -1.68764,1.852392 119.28888,119.28888 0 0 0 -111.844028,31.635985 119.28888,119.28888 0 0 0 -0.0018,168.700117 119.28888,119.28888 0 0 0 168.701878,1e-5 119.28888,119.28888 0 0 0 31.57113,-111.84929 62.688416,48.588194 45 0 0 1.91545,-1.68417 62.688416,48.588194 45 0 0 4.57226,-5.63075 l 0.19096,0.12449 -0.16838,-0.15752 a 62.688416,48.588194 45 0 0 4.88063,-9.938298 l 0.16295,0.06833 -0.15437,-0.101467 a 62.688416,48.588194 45 0 0 2.10999,-11.415736 l 0.21552,0.04365 -0.21555,-0.08939 a 62.688416,48.588194 45 0 0 -0.65177,-12.246596 l 0.22257,-0.0053 -0.23132,-0.04555 A 62.688416,48.588194 45 0 0 253.06931,58.14914 l 0.18578,-0.05257 -0.20151,0.0053 a 62.688416,48.588194 45 0 0 -5.95673,-12.139516 l 0.1191,-0.07366 -0.14196,0.04029 a 62.688416,48.588194 45 0 0 -8.32952,-11.1195 z"
     id="path1285-7"
     inkscape:connector-curvature="0"
     inkscape:export-xdpi="251.71001"
     inkscape:export-ydpi="251.71001" />
  <path
     sodipodi:nodetypes="csscccccssscccssssccscccssssssssssssssssscsscscccccccscccc"
     inkscape:connector-curvature="0"
     id="path49751"
     d="m 201.09894,101.58416 c -2.79761,-0.66788 -6.53021,22.1012 -9.26249,20.91825 -2.73226,-1.18296 2.97067,-20.68976 0.29127,-22.15626 -2.6794,-1.466492 -12.84385,16.74498 -15.4175,15.09825 -2.57366,-1.64675 12.02762,-21.051906 9.48093,-22.867304 -2.54669,-1.815392 -17.46261,16.728594 -19.79579,14.579594 -2.3332,-2.149 13.15248,-15.781332 11.03197,-18.054984 -2.12051,-2.273657 -18.4689,8.13089 -20.44576,5.713156 -1.97685,-2.417742 16.76424,-10.888254 15.12347,-13.443579 -1.64077,-2.555325 -21.7933,5.047312 -23.19821,2.329892 -1.40491,-2.717421 22.71254,-6.483766 21.74316,-9.325334 -0.96938,-2.841574 -25.46693,1.514433 -26.17609,-1.270142 -0.70916,-2.784573 24.10004,-3.755822 23.60721,-6.550101 -0.49285,-2.794277 -27.67579,-6.47417 -27.7445,-9.259956 -0.0687,-2.785785 25.11452,2.312289 25.32858,-0.376294 0.21406,-2.688584 -24.95051,-9.928563 -24.37717,-12.49039 0.57335,-2.561828 26.57532,8.466502 27.46159,6.056709 0.88628,-2.409795 -25.17189,-14.370373 -24.13133,-16.703671 1.04055,-2.333296 23.58742,11.30424 24.82638,9.14442 1.23896,-2.159817 -18.05904,-18.277677 -16.47027,-20.152693 1.58878,-1.875002 17.85334,17.890447 19.78567,16.288294 1.93233,-1.602156 -15.04531,-21.789573 -12.87276,-23.049272 2.17256,-1.259696 18.70936,20.168747 21.07031,19.216901 2.36096,-0.951843 -9.34631,-24.569279 -6.81223,-25.2648524 2.53409,-0.6955771 11.08626,25.3430184 13.71806,24.9699994 2.6318,-0.373019 -5.41987,-26.2265277 -2.75004,-26.3964604 2.66982,-0.1699326 7.3397,23.7851704 10.10818,23.9315244 2.76847,0.146353 1.36829,-24.2243306 4.1571,-23.8434221 2.7888,0.3809084 -0.99789,23.5343151 1.80471,24.4357181 2.80261,0.901403 7.37801,-22.97741 10.20879,-21.960144 2.83078,1.017266 -2.29358,26.001614 0.4346,27.384501 2.72817,1.382888 9.95004,-19.869331 12.51711,-18.152055 2.56708,1.717272 -9.39505,19.688765 -6.95377,21.698674 2.44128,2.009912 15.2407,-14.884685 17.50035,-12.726041 2.25967,2.158661 -11.83242,14.555267 -9.74111,16.866079 2.09132,2.310816 16.8717,-10.283835 18.78867,-7.865712 1.91698,2.418122 -17.46043,14.505948 -15.93526,17.142012 1.52517,2.636064 23.57856,-7.338264 25.04376,-4.610776 1.46521,2.727487 -21.69987,9.190429 -20.56772,11.986171 1.13214,2.795741 27.0261,-0.876 27.82282,1.972959 0.79671,2.84896 -23.88524,2.541988 -23.42382,5.33641 0.46141,2.794422 23.39546,5.622558 23.58458,8.366315 0.18912,2.743753 -25.07808,-2.385829 -25.26594,0.319919 -0.18785,2.705748 26.51425,8.500648 26.06856,11.1261 -0.44569,2.625451 -27.07391,-8.010019 -27.94034,-5.571488 -0.86643,2.438528 23.18359,16.216303 22.22751,18.607303 -0.95609,2.39099 -22.76682,-12.315422 -24.07255,-10.225362 -1.30573,2.090063 19.17793,17.443702 17.62026,19.330002 -1.55767,1.88629 -18.0153,-18.01384 -19.78566,-16.288294 -1.77034,1.725574 12.7254,23.798714 10.69822,25.223704 -2.02716,1.425 -16.49932,-22.396351 -18.83314,-21.447707 -2.33382,0.948637 9.27192,24.675027 6.74959,25.321227 -2.52233,0.6462 -10.87392,-25.766873 -13.44736,-25.240797 -2.57344,0.526077 3.95742,27.561917 1.20407,27.602707 -2.75335,0.0408 -3.6205,-24.66047 -6.39791,-24.88836 -2.7774,-0.22788 -4.16143,24.19339 -6.98371,23.81473 -2.82229,-0.37867 1.59256,-23.93218 -1.20504,-24.60006 z"
     style="opacity:1;fill:#fee588;fill-opacity:1;stroke:none;stroke-width:7.73331738;stroke-linecap:round;stroke-linejoin:round;stroke-miterlimit:4;stroke-dasharray:none;stroke-dashoffset:0;stroke-opacity:1" />
  <path
     transform="rotate(45)"
     style="opacity:1;fill:#fee588;fill-opacity:1;stroke:none;stroke-width:5.271873;stroke-linecap:round;stroke-linejoin:round;stroke-miterlimit:4;stroke-dasharray:none;stroke-dashoffset:0;stroke-opacity:1"
     d="M 308.01572,8.1599398 A 119.28887,119.28887 0 0 1 188.72685,127.44881 119.28887,119.28887 0 0 1 69.437981,8.1599398 119.28887,119.28887 0 0 1 188.72685,-111.12893 119.28887,119.28887 0 0 1 308.01572,8.1599398 Z"
     id="path815-3-6" />
  <path
     transform="rotate(45)"
     style="opacity:1;fill:#fb8e04;fill-opacity:1;stroke:none;stroke-width:5.11382961;stroke-linecap:round;stroke-linejoin:round;stroke-miterlimit:4;stroke-dasharray:none;stroke-dashoffset:0;stroke-opacity:1"
     d="M 304.43961,8.1599398 A 115.71275,115.71275 0 0 1 188.72685,123.87269 115.71275,115.71275 0 0 1 73.014099,8.1599398 115.71275,115.71275 0 0 1 188.72685,-107.55281 115.71275,115.71275 0 0 1 304.43961,8.1599398 Z"
     id="path815-3" />
  <path
     style="opacity:1;fill:#fef4c6;fill-opacity:1;stroke:none;stroke-width:10.23433876;stroke-linecap:round;stroke-linejoin:round;stroke-miterlimit:4;stroke-dasharray:none;stroke-dashoffset:0;stroke-opacity:1"
     d="m 227.91145,88.521253 c -3.51321,4.173695 -9.45247,-6.598397 -14.31573,-8.014778 -9.93712,-3.095573 -18.75349,-10.974622 -22.9962,-21.283075 -1.68753,-4.540848 -13.91667,-4.015712 -5.81917,-18.619894 3.25027,-4.013324 15.39003,-3.058804 19.99795,-1.894297 9.49229,2.560494 17.86158,12.669716 22.67692,21.888052 8.72847,19.935157 3.41332,22.069069 1.08493,26.9414 -0.6287,0.982616 -0.42108,0.653594 -0.6287,0.982616 z"
     id="path1056"
     inkscape:connector-curvature="0"
     sodipodi:nodetypes="ccccccccc" />
  <path
     transform="rotate(45)"
     style="opacity:1;fill:#db4f07;fill-opacity:1;stroke:none;stroke-width:4.91063166;stroke-linecap:round;stroke-linejoin:round;stroke-miterlimit:4;stroke-dasharray:none;stroke-dashoffset:0;stroke-opacity:1"
     d="M 299.84175,7.9997106 A 111.1149,111.1149 0 0 1 188.72685,119.11461 111.1149,111.1149 0 0 1 77.611954,7.9997106 111.1149,111.1149 0 0 1 188.72685,-103.11519 111.1149,111.1149 0 0 1 299.84175,7.9997106 Z"
     id="path815" />
  <path
     style="fill:#c54607;fill-opacity:1;stroke:none;stroke-width:14.7369957;stroke-linecap:butt;stroke-linejoin:round;stroke-miterlimit:4;stroke-dasharray:none;stroke-dashoffset:0;stroke-opacity:1"
     d="M 124.01814,63.317592 C 111.617,113.99508 88.549957,180.3097 19.437146,161.12518 c 0,0 68.794645,56.54792 105.133054,68.85187 37.04757,-14.23075 101.09191,-74.14504 96.68391,-133.466358 -30.44464,-9.62685 -61.18394,-16.740257 -97.23597,-33.1931 z"
     id="path1021"
     inkscape:connector-curvature="0"
     sodipodi:nodetypes="ccccc" />
  <g
     id="g971"
     transform="translate(177.52745,-15.146602)">
    <path
       inkscape:connector-curvature="0"
       id="path12905"
       style="font-style:normal;font-variant:normal;font-weight:normal;font-stretch:normal;font-size:medium;line-height:1.25;font-family:'Rounded-X M+ 1p';-inkscape-font-specification:'Rounded-X M+ 1p';letter-spacing:0px;word-spacing:0px;fill:#121212;fill-opacity:1;stroke:#121212;stroke-width:3.00914097;stroke-opacity:1"
       d="m 157.39259,77.427563 50.41261,8.675873 2.78971,-7.309502 -50.4126,-8.675873 z m -5.15024,13.494467 -11.75972,30.81236 q -3.04722,7.98423 -9.26212,10.76564 -6.17199,2.66895 -14.04376,-0.33535 -5.39778,-2.0601 -7.76797,-6.31438 -2.4131,-4.14183 -0.73927,-8.52753 2.10301,-5.51024 7.90503,-7.54739 5.80202,-2.03715 12.77416,0.62381 4.61061,1.75967 7.57567,5.46798 l 0.31074,-0.13907 22.87566,-59.937922 60.85617,10.342707 -24.46365,64.098715 q -3.04723,7.98422 -9.26213,10.76563 -6.17198,2.66896 -14.04376,-0.33535 -5.39778,-2.0601 -7.81088,-6.20192 -2.37019,-4.25428 -0.69636,-8.63999 2.10301,-5.51024 7.90503,-7.54739 5.80202,-2.03715 12.77416,0.62381 4.61061,1.75967 7.57567,5.46798 l 0.31075,-0.13907 9.39919,-24.627398 z" />
    <path
       inkscape:connector-curvature="0"
       id="path12908"
       style="font-style:normal;font-variant:normal;font-weight:normal;font-stretch:normal;font-size:medium;line-height:1.25;font-family:'Rounded-X M+ 1p';-inkscape-font-specification:'Rounded-X M+ 1p';letter-spacing:0px;word-spacing:0px;fill:#55ceff;fill-opacity:1;stroke:none;stroke-width:3.00914097"
       d="m 157.39259,77.427563 50.41261,8.675873 2.78971,-7.309502 -50.4126,-8.675873 z m -5.15024,13.494467 -11.75972,30.81236 q -3.04722,7.98423 -9.26212,10.76564 -6.17199,2.66895 -14.04376,-0.33535 -5.39778,-2.0601 -7.76797,-6.31438 -2.4131,-4.14183 -0.73927,-8.52753 2.10301,-5.51024 7.90503,-7.54739 5.80202,-2.03715 12.77416,0.62381 4.61061,1.75967 7.57567,5.46798 l 0.31074,-0.13907 22.87566,-59.937922 60.85617,10.342707 -24.46365,64.098715 q -3.04723,7.98422 -9.26213,10.76563 -6.17198,2.66896 -14.04376,-0.33535 -5.39778,-2.0601 -7.81088,-6.20192 -2.37019,-4.25428 -0.69636,-8.63999 2.10301,-5.51024 7.90503,-7.54739 5.80202,-2.03715 12.77416,0.62381 4.61061,1.75967 7.57567,5.46798 l 0.31075,-0.13907 9.39919,-24.627398 z" />
    <path
       inkscape:connector-curvature="0"
       id="path12911"
       style="font-style:normal;font-variant:normal;font-weight:normal;font-stretch:normal;font-size:medium;line-height:1.25;font-family:'Rounded-X M+ 1p';-inkscape-font-specification:'Rounded-X M+ 1p';letter-spacing:0px;word-spacing:0px;fill:#121212;fill-opacity:1;stroke:#121212;stroke-width:3.00914097;stroke-opacity:1"
       d="m 228.38746,203.08361 q 4.87273,-0.78139 9.2947,0.94757 l 0.19958,-0.27581 -10.92039,-68.09948 5.11044,-0.8195 q 0.76126,1.70647 6.33915,5.32243 5.67769,3.47805 11.88793,7.23641 6.21025,3.75836 11.85088,10.04615 5.64064,6.28777 6.7079,12.94322 0.97197,6.0612 -1.99258,11.90035 -2.96455,5.83914 -10.80183,12.45968 l -2.91058,-2.94656 q 6.52997,-6.4109 8.45401,-10.37654 1.92405,-3.96564 1.14266,-8.83838 -0.9148,-5.70467 -8.41888,-11.44981 -7.50406,-5.74515 -19.43804,-8.70756 l 8.80493,54.90743 q 1.35313,8.43816 -2.63843,13.95438 -4.01062,5.39738 -12.32992,6.73145 -5.70467,0.9148 -9.8654,-1.46557 -4.17977,-2.49923 -4.92305,-7.13427 -0.93385,-5.82352 3.07227,-10.48874 4.00612,-4.66524 11.37465,-5.84685 z" />
    <path
       inkscape:connector-curvature="0"
       id="path12914"
       style="font-style:normal;font-variant:normal;font-weight:normal;font-stretch:normal;font-size:medium;line-height:1.25;font-family:'Rounded-X M+ 1p';-inkscape-font-specification:'Rounded-X M+ 1p';letter-spacing:0px;word-spacing:0px;fill:#55ceff;fill-opacity:1;stroke:none;stroke-width:3.00914097"
       d="m 228.38746,203.08361 q 4.87273,-0.78139 9.2947,0.94757 l 0.19958,-0.27581 -10.92039,-68.09948 5.11044,-0.8195 q 0.76126,1.70647 6.33915,5.32243 5.67769,3.47805 11.88793,7.23641 6.21025,3.75836 11.85088,10.04615 5.64064,6.28777 6.7079,12.94322 0.97197,6.0612 -1.99258,11.90035 -2.96455,5.83914 -10.80183,12.45968 l -2.91058,-2.94656 q 6.52997,-6.4109 8.45401,-10.37654 1.92405,-3.96564 1.14266,-8.83838 -0.9148,-5.70467 -8.41888,-11.44981 -7.50406,-5.74515 -19.43804,-8.70756 l 8.80493,54.90743 q 1.35313,8.43816 -2.63843,13.95438 -4.01062,5.39738 -12.32992,6.73145 -5.70467,0.9148 -9.8654,-1.46557 -4.17977,-2.49923 -4.92305,-7.13427 -0.93385,-5.82352 3.07227,-10.48874 4.00612,-4.66524 11.37465,-5.84685 z" />
  </g>
</svg>
