<?xml version="1.0" encoding="UTF-8" standalone="no"?>
<!-- Created with Inkscape (http://www.inkscape.org/) -->

<svg
   xmlns:dc="http://purl.org/dc/elements/1.1/"
   xmlns:cc="http://creativecommons.org/ns#"
   xmlns:rdf="http://www.w3.org/1999/02/22-rdf-syntax-ns#"
   xmlns:svg="http://www.w3.org/2000/svg"
   xmlns="http://www.w3.org/2000/svg"
   xmlns:sodipodi="http://sodipodi.sourceforge.net/DTD/sodipodi-0.dtd"
   xmlns:inkscape="http://www.inkscape.org/namespaces/inkscape"
   width="330"
   height="244"
   viewBox="0 0 87.3125 64.558334"
   version="1.1"
   id="svg8"
   sodipodi:docname="elephant-fren.svg"
   inkscape:export-filename="/home/yantene/dev/web/fla.red/app/javascript/images/elephant-fren.png"
   inkscape:export-xdpi="96"
   inkscape:export-ydpi="96"
   inkscape:version="0.92.2 2405546, 2018-03-11">
  <defs
     id="defs2" />
  <sodipodi:namedview
     id="base"
     pagecolor="#ffffff"
     bordercolor="#666666"
     borderopacity="1.0"
     inkscape:pageopacity="0.0"
     inkscape:pageshadow="2"
     inkscape:zoom="1.4142136"
     inkscape:cx="114.98842"
     inkscape:cy="20.778636"
     inkscape:document-units="mm"
     inkscape:current-layer="layer1"
     showgrid="false"
     showguides="false"
     fit-margin-top="0"
     fit-margin-left="0"
     fit-margin-right="0"
     fit-margin-bottom="0"
     inkscape:window-width="1918"
     inkscape:window-height="1050"
     inkscape:window-x="0"
     inkscape:window-y="28"
     inkscape:window-maximized="0"
     units="px" />
  <metadata
     id="metadata5">
    <rdf:RDF>
      <cc:Work
         rdf:about="">
        <dc:format>image/svg+xml</dc:format>
        <dc:type
           rdf:resource="http://purl.org/dc/dcmitype/StillImage" />
        <dc:title />
      </cc:Work>
    </rdf:RDF>
  </metadata>
  <g
     inkscape:label="レイヤー 1"
     inkscape:groupmode="layer"
     id="layer1"
     transform="translate(-74.321091,-54.536724)">
    <path
       sodipodi:nodetypes="csscccccssscccssssccscccssssssssssssssssscsscscccccccscccc"
       inkscape:connector-curvature="0"
       id="path49751"
       d="m 140.3887,87.817656 c -0.9191,-0.21942 -2.14539,7.260972 -3.04303,6.872331 -0.89764,-0.38864 0.97596,-6.797266 0.0957,-7.279057 -0.88027,-0.481793 -4.21962,5.501276 -5.06515,4.960269 -0.84553,-0.541011 3.95146,-6.916243 3.11479,-7.512661 -0.83667,-0.596416 -5.73704,5.495894 -6.50357,4.789876 -0.76653,-0.706017 4.32103,-5.184686 3.62437,-5.931656 -0.69666,-0.746971 -6.06764,2.671265 -6.71711,1.87696 -0.64946,-0.794308 5.50761,-3.57715 4.96856,-4.416658 -0.53905,-0.839508 -7.15981,1.658208 -7.62137,0.765446 -0.46156,-0.892762 7.46181,-2.13013 7.14334,-3.063679 -0.31847,-0.93355 -8.36672,0.497541 -8.59971,-0.417283 -0.23298,-0.914824 7.91766,-1.233911 7.75575,-2.151924 -0.16192,-0.918012 -9.09241,-2.126978 -9.11498,-3.0422 -0.0226,-0.915222 8.25094,0.759663 8.32127,-0.123625 0.0703,-0.883288 -8.19706,-3.261859 -8.0087,-4.103504 0.18836,-0.841645 8.73086,2.781525 9.02203,1.989828 0.29117,-0.791696 -8.26979,-4.72114 -7.92793,-5.487705 0.34185,-0.766565 7.74924,3.713815 8.15628,3.004243 0.40704,-0.709571 -5.93299,-6.004818 -5.41103,-6.620823 0.52197,-0.616 5.86541,5.877601 6.50025,5.351241 0.63483,-0.526361 -4.94288,-7.158592 -4.22913,-7.572444 0.71376,-0.413852 6.14664,6.626096 6.92229,6.313384 0.77565,-0.312712 -3.07057,-8.071816 -2.23804,-8.300335 0.83253,-0.22852 3.6422,8.326015 4.50683,8.203466 0.86464,-0.122549 -1.7806,-8.616277 -0.90347,-8.672106 0.87712,-0.05583 2.41133,7.814211 3.32086,7.862293 0.90954,0.04808 0.44954,-7.958489 1.36575,-7.833348 0.91621,0.125141 -0.32784,7.731797 0.59291,8.027937 0.92075,0.296141 2.42391,-7.548835 3.35392,-7.21463 0.93001,0.334206 -0.75352,8.542386 0.14278,8.99671 0.8963,0.454324 3.26891,-6.527729 4.11228,-5.963547 0.84337,0.56418 -3.08658,6.468406 -2.28454,7.128728 0.80204,0.660322 5.00707,-4.890109 5.74944,-4.180923 0.74238,0.709191 -3.88734,4.781884 -3.20027,5.541061 0.68706,0.759179 5.5429,-3.378578 6.17269,-2.584145 0.62979,0.794433 -5.73632,4.765681 -5.23525,5.631715 0.50106,0.866034 7.74633,-2.410861 8.22769,-1.514791 0.48137,0.896069 -7.12912,3.019358 -6.75717,3.937851 0.37195,0.918493 8.87897,-0.287795 9.14071,0.648182 0.26175,0.935977 -7.84708,0.835127 -7.69549,1.753186 0.15159,0.91806 7.68617,1.847195 7.74831,2.74861 0.0621,0.901413 -8.23898,-0.783824 -8.30069,0.105104 -0.0617,0.888927 8.7108,2.792742 8.56438,3.655289 -0.14643,0.862548 -8.89468,-2.631554 -9.17933,-1.830417 -0.28465,0.801137 7.61658,5.327591 7.30247,6.113111 -0.3141,0.78552 -7.47965,-4.046021 -7.90862,-3.359367 -0.42898,0.686654 6.30058,5.730829 5.78883,6.350541 -0.51174,0.619709 -5.91862,-5.918139 -6.50024,-5.35124 -0.58161,0.566907 4.18071,7.818659 3.51472,8.286815 -0.66599,0.46816 -5.42057,-7.357937 -6.18731,-7.046276 -0.76673,0.311659 3.04614,8.106559 2.21747,8.318855 -0.82867,0.212299 -3.57244,-8.465265 -4.4179,-8.292431 -0.84546,0.172835 1.30014,9.054997 0.39557,9.068395 -0.90456,0.0134 -1.18945,-8.101773 -2.10192,-8.176642 -0.91247,-0.07487 -1.36717,7.948324 -2.29438,7.82392 -0.92721,-0.124404 0.52321,-7.862508 -0.3959,-8.081927 z"
       style="opacity:1;fill:#fee588;fill-opacity:1;stroke:none;stroke-width:2.54064918;stroke-linecap:round;stroke-linejoin:round;stroke-miterlimit:4;stroke-dasharray:none;stroke-dashoffset:0;stroke-opacity:1" />
    <path
       style="opacity:1;fill:#fee588;fill-opacity:1;stroke:none;stroke-width:6.54608059;stroke-linecap:round;stroke-linejoin:round;stroke-miterlimit:4;stroke-dasharray:none;stroke-dashoffset:0;stroke-opacity:1"
       d="M 160.70312 24.414062 A 148.12089 148.12089 0 0 0 53.802734 67.78125 A 148.12089 148.12089 0 0 0 22.121094 229.99805 L 294.94531 229.99805 A 148.12089 148.12089 0 0 0 263.27734 67.78125 A 148.12089 148.12089 0 0 0 160.70312 24.414062 z "
       transform="matrix(0.26458333,0,0,0.26458333,74.321091,54.536724)"
       id="path815-3-6" />
    <path
       style="opacity:1;fill:#fb8e04;fill-opacity:1;stroke:none;stroke-width:6.34983778;stroke-linecap:round;stroke-linejoin:round;stroke-miterlimit:4;stroke-dasharray:none;stroke-dashoffset:0;stroke-opacity:1"
       d="M 160.63867 28.853516 A 143.68042 143.68042 0 0 0 56.943359 70.921875 A 143.68042 143.68042 0 0 0 27.011719 229.99805 L 290.19922 229.99805 A 143.68042 143.68042 0 0 0 260.13672 70.921875 A 143.68042 143.68042 0 0 0 160.63867 28.853516 z "
       transform="matrix(0.26458333,0,0,0.26458333,74.321091,54.536724)"
       id="path815-3" />
    <path
       style="opacity:1;fill:#fef4c6;fill-opacity:1;stroke:none;stroke-width:3.36231709;stroke-linecap:round;stroke-linejoin:round;stroke-miterlimit:4;stroke-dasharray:none;stroke-dashoffset:0;stroke-opacity:1"
       d="m 149.19749,83.526062 c -1.1542,1.371195 -3.10544,-2.167791 -4.70318,-2.633119 -3.26467,-1.016997 -6.16114,-3.605524 -7.55501,-6.99219 -0.55441,-1.491818 -4.57208,-1.319293 -1.91179,-6.117248 1.06782,-1.318509 5.05613,-1.004917 6.56998,-0.622338 3.11853,0.841206 5.86812,4.162418 7.45012,7.190945 2.86759,6.549354 1.12139,7.250414 0.35644,8.851136 -0.20655,0.322821 -0.13835,0.214727 -0.20655,0.322821 z"
       id="path1056"
       inkscape:connector-curvature="0"
       sodipodi:nodetypes="ccccccccc" />
    <path
       style="opacity:1;fill:#db4f07;fill-opacity:1;stroke:none;stroke-width:6.09752703;stroke-linecap:round;stroke-linejoin:round;stroke-miterlimit:4;stroke-dasharray:none;stroke-dashoffset:0;stroke-opacity:1"
       d="M 160.69531 34.421875 A 137.97127 137.97127 0 0 0 61.121094 74.818359 A 137.97127 137.97127 0 0 0 33.505859 229.99805 L 283.93945 229.99805 A 137.97127 137.97127 0 0 0 256.24219 74.818359 A 137.97127 137.97127 0 0 0 160.69531 34.421875 z "
       transform="matrix(0.26458333,0,0,0.26458333,74.321091,54.536724)"
       id="path815" />
    <path
       style="fill:#c54607;fill-opacity:1;stroke:none;stroke-width:18.29891586;stroke-linecap:butt;stroke-linejoin:round;stroke-miterlimit:4;stroke-dasharray:none;stroke-dashoffset:0;stroke-opacity:1"
       d="M 153.99414 78.271484 C 138.59563 141.19768 109.95208 223.54013 24.134766 199.71875 C 24.134766 199.71875 40.792241 213.40353 63.261719 229.99805 L 228.26367 229.99805 C 256.04129 198.89985 277.67327 159.08963 274.73047 119.48633 C 236.92737 107.53268 198.75989 98.700965 153.99414 78.271484 z "
       transform="matrix(0.26458333,0,0,0.26458333,74.321091,54.536724)"
       id="path1021" />
  </g>
</svg>
