<?xml version="1.0" encoding="UTF-8" standalone="no"?>
<svg
   xmlns:dc="http://purl.org/dc/elements/1.1/"
   xmlns:cc="http://creativecommons.org/ns#"
   xmlns:rdf="http://www.w3.org/1999/02/22-rdf-syntax-ns#"
   xmlns:svg="http://www.w3.org/2000/svg"
   xmlns="http://www.w3.org/2000/svg"
   xmlns:xlink="http://www.w3.org/1999/xlink"
   xmlns:sodipodi="http://sodipodi.sourceforge.net/DTD/sodipodi-0.dtd"
   xmlns:inkscape="http://www.inkscape.org/namespaces/inkscape"
   viewBox="0 0 292.85862 204.49997"
   width="292.85861"
   height="204.49997"
   version="1.1"
   id="svg80"
   sodipodi:docname="elephant_ui_plane.svg"
   inkscape:version="0.92.2 2405546, 2018-03-11">
  <metadata
     id="metadata86">
    <rdf:RDF>
      <cc:Work
         rdf:about="">
        <dc:format>image/svg+xml</dc:format>
        <dc:type
           rdf:resource="http://purl.org/dc/dcmitype/StillImage" />
      </cc:Work>
    </rdf:RDF>
  </metadata>
  <defs
     id="defs84">
    <defs
       id="defs3">
      <path
         d="M395.89999 745.09998H690.5v279.79999H395.89999z"
         id="a" />
    </defs>
    <clipPath
       id="b">
      <use
         id="use5"
         overflow="visible"
         height="100%"
         width="100%"
         xlink:href="#a" />
    </clipPath>
  </defs>
  <sodipodi:namedview
     pagecolor="#ffffff"
     bordercolor="#666666"
     borderopacity="1"
     objecttolerance="10"
     gridtolerance="10"
     guidetolerance="10"
     inkscape:pageopacity="0"
     inkscape:pageshadow="2"
     inkscape:window-width="1130"
     inkscape:window-height="1050"
     id="namedview82"
     showgrid="false"
     inkscape:zoom="1.6320511"
     inkscape:cx="174.31416"
     inkscape:cy="57.828748"
     inkscape:window-x="0"
     inkscape:window-y="28"
     inkscape:window-maximized="0"
     inkscape:current-layer="svg80" />
  <path
     style="opacity:1;fill:#121212;fill-opacity:1;stroke:#121212;stroke-width:12.36549854;stroke-linecap:round;stroke-linejoin:round;stroke-miterlimit:4;stroke-dasharray:none;stroke-dashoffset:0;stroke-opacity:1"
     d="m 174.88917,34.475038 -0.11803,0.07186 a 45.897314,35.573839 45 0 0 -2.31599,-2.503295 45.897314,35.573839 45 0 0 -5.11952,-4.519033 l 0.059,-0.120596 -0.0872,0.0976 a 45.897314,35.573839 45 0 0 -8.43629,-5.564745 l 0.0218,-0.111607 -0.0475,0.09882 a 45.897314,35.573839 45 0 0 -9.0278,-3.749181 l -0.008,-0.153966 -0.027,0.144978 a 45.897314,35.573839 45 0 0 -9.13566,-1.814367 l -0.0462,-0.169385 0.009,0.165487 a 45.897314,35.573839 45 0 0 -8.80839,0.201449 l -0.0731,-0.150117 0.0411,0.153966 a 45.897314,35.573839 45 0 0 -8.05523,2.214597 l -0.0769,-0.105251 0.0564,0.115481 a 45.897314,35.573839 45 0 0 -6.835,4.199541 l -0.12691,-0.119454 0.10272,0.138473 a 45.897314,35.573839 45 0 0 -1.98748,1.746295 45.897314,35.573839 45 0 0 -1.23561,1.356228 87.337333,87.337333 0 0 0 -81.886587,23.162282 87.337333,87.337333 0 0 0 -0.0013,123.513772 87.337333,87.337333 0 0 0 123.515057,0 87.337333,87.337333 0 0 0 23.1148,-81.890441 45.897314,35.573839 45 0 0 1.40239,-1.233063 45.897314,35.573839 45 0 0 3.34758,-4.122555 l 0.13981,0.09115 -0.12327,-0.115332 a 45.897314,35.573839 45 0 0 3.57334,-7.276321 l 0.11931,0.05003 -0.11302,-0.07429 a 45.897314,35.573839 45 0 0 1.54483,-8.358029 l 0.15779,0.03195 -0.15782,-0.06545 a 45.897314,35.573839 45 0 0 -0.47719,-8.966343 l 0.16296,-0.0038 -0.16937,-0.03335 A 45.897314,35.573839 45 0 0 185.28471,51.6631 l 0.13601,-0.03849 -0.14754,0.0039 a 45.897314,35.573839 45 0 0 -4.36121,-8.887945 l 0.0872,-0.05393 -0.10394,0.0295 a 45.897314,35.573839 45 0 0 -6.09846,-8.141141 z"
     id="path1285-7"
     inkscape:connector-curvature="0"
     inkscape:export-xdpi="251.71001"
     inkscape:export-ydpi="251.71001" />
  <path
     sodipodi:nodetypes="csscccccssscccssssccscccssssssssssssssssscsscscccccccscccc"
     inkscape:connector-curvature="0"
     id="path49751"
     d="m 147.23457,83.46402 c -2.04827,-0.488988 -4.7811,16.18139 -6.78153,15.315288 -2.00043,-0.866101 2.17497,-15.148003 0.21325,-16.221696 -1.96173,-1.073695 -9.40362,12.259833 -11.28792,11.054175 -1.8843,-1.205665 8.80602,-15.413147 6.94146,-16.742291 -1.86456,-1.329139 -12.78525,12.247839 -14.49349,10.674446 -1.70824,-1.573388 9.62959,-11.554298 8.07706,-13.218951 -1.55253,-1.664659 -13.522,5.953029 -14.96936,4.182885 -1.44735,-1.770149 12.27394,-7.971833 11.07264,-9.842714 -1.20129,-1.87088 -15.95595,3.695389 -16.98456,1.70583 -1.0286,-1.989559 16.62898,-4.747088 15.91925,-6.827541 -0.70973,-2.080458 -18.64561,1.108791 -19.16482,-0.929935 -0.51921,-2.038725 17.64485,-2.749824 17.28401,-4.795655 -0.36083,-2.04583 -20.26282,-4.740063 -20.31312,-6.779676 -0.0503,-2.039612 18.38759,1.692943 18.54431,-0.275503 0.15673,-1.968446 -18.26751,-7.269196 -17.84774,-9.144838 0.41977,-1.875641 19.45711,6.198749 20.106,4.434419 0.64889,-1.76433 -18.4296,-10.521266 -17.66775,-12.22959 0.76184,-1.708322 17.26952,8.276398 18.17663,6.695086 0.9071,-1.58131 -13.22192,-13.381998 -12.05871,-14.754791 1.16323,-1.372783 13.07132,13.098488 14.48607,11.925472 1.41476,-1.173018 -11.01541,-15.953233 -9.42478,-16.875521 1.59064,-0.922286 13.69806,14.766545 15.42663,14.069651 1.72857,-0.696891 -6.84291,-17.988393 -4.98758,-18.497657 1.85533,-0.509267 8.1168,18.554886 10.04367,18.281781 1.92688,-0.273106 -3.96815,-19.201748 -2.01344,-19.326164 1.95472,-0.124416 5.37377,17.414308 7.4007,17.521461 2.02694,0.107153 1.0018,-17.735839 3.04363,-17.456957 2.04182,0.278882 -0.73061,17.230645 1.32132,17.890607 2.05192,0.659962 5.4018,-16.822907 7.47436,-16.078116 2.07256,0.744791 -1.67924,19.037077 0.31819,20.049559 1.99743,1.012481 7.28492,-14.547328 9.1644,-13.290025 1.87948,1.2573 -6.87858,14.415126 -5.0912,15.886681 1.78738,1.471557 11.15848,-10.89782 12.81288,-9.317369 1.65441,1.580464 -8.6631,10.656636 -7.13195,12.348497 1.53116,1.691863 12.35261,-7.529308 13.75612,-5.758879 1.40351,1.770427 -12.78365,10.620527 -11.667,12.550521 1.11666,1.929994 17.26304,-5.372708 18.33579,-3.375779 1.07275,1.996929 -15.88756,6.728771 -15.05866,8.775673 0.8289,2.046902 19.78716,-0.641363 20.37047,1.444502 0.58332,2.085865 -17.48757,1.861116 -17.14974,3.907051 0.33782,2.045936 17.12898,4.116556 17.26745,6.125397 0.13846,2.008838 -18.36092,-1.746785 -18.49845,0.234228 -0.13754,1.981013 19.4124,6.223749 19.08608,8.145973 -0.32631,1.922223 -19.82216,-5.864535 -20.45651,-4.079165 -0.63436,1.785368 16.97386,11.872768 16.27386,13.623333 -0.69999,1.750565 -16.66872,-9.016733 -17.62471,-7.486496 -0.95599,1.53024 14.04112,12.771402 12.90068,14.152458 -1.14046,1.381049 -13.1899,-13.18883 -14.48608,-11.925472 -1.29615,1.263379 9.3169,17.424223 7.83271,18.467528 -1.48419,1.043316 -12.07998,-16.397482 -13.78868,-15.702932 -1.70871,0.694546 6.78843,18.065821 4.94171,18.538931 -1.84673,0.47312 -7.96134,-18.865211 -9.84549,-18.480045 -1.88414,0.38517 2.89743,20.179455 0.88156,20.209315 -2.01586,0.0299 -2.65074,-18.055156 -4.68422,-18.222004 -2.03348,-0.166846 -3.04679,17.713184 -5.11313,17.435944 -2.06633,-0.27724 1.166,-17.521939 -0.88227,-18.010925 z"
     style="opacity:1;fill:#fee588;fill-opacity:1;stroke:none;stroke-width:5.66194725;stroke-linecap:round;stroke-linejoin:round;stroke-miterlimit:4;stroke-dasharray:none;stroke-dashoffset:0;stroke-opacity:1" />
  <path
     transform="rotate(45)"
     style="opacity:1;fill:#fee588;fill-opacity:1;stroke:none;stroke-width:3.85980105;stroke-linecap:round;stroke-linejoin:round;stroke-miterlimit:4;stroke-dasharray:none;stroke-dashoffset:0;stroke-opacity:1"
     d="M 231.9407,12.40132 A 87.337334,87.337334 0 0 1 144.60336,99.738654 87.337334,87.337334 0 0 1 57.266029,12.40132 87.337334,87.337334 0 0 1 144.60336,-74.936013 87.337334,87.337334 0 0 1 231.9407,12.40132 Z"
     id="path815-3-6" />
  <path
     transform="rotate(45)"
     style="opacity:1;fill:#fb8e04;fill-opacity:1;stroke:none;stroke-width:3.7440896;stroke-linecap:round;stroke-linejoin:round;stroke-miterlimit:4;stroke-dasharray:none;stroke-dashoffset:0;stroke-opacity:1"
     d="M 229.32244,12.40132 A 84.719078,84.719078 0 0 1 144.60336,97.120399 84.719078,84.719078 0 0 1 59.884285,12.40132 84.719078,84.719078 0 0 1 144.60336,-72.317758 84.719078,84.719078 0 0 1 229.32244,12.40132 Z"
     id="path815-3" />
  <path
     style="opacity:1;fill:#fef4c6;fill-opacity:1;stroke:none;stroke-width:7.49307013;stroke-linecap:round;stroke-linejoin:round;stroke-miterlimit:4;stroke-dasharray:none;stroke-dashoffset:0;stroke-opacity:1"
     d="m 166.86534,73.900006 c -2.5722,3.055769 -6.92063,-4.831016 -10.48127,-5.868019 -7.27545,-2.266423 -13.73036,-8.035068 -16.83666,-15.582401 -1.23552,-3.32458 -10.18908,-2.940102 -4.2605,-13.632552 2.37968,-2.938355 11.26781,-2.239503 14.64149,-1.386909 6.94978,1.874665 13.07736,9.27613 16.60291,16.025334 6.39054,14.595522 2.49906,16.157865 0.79433,19.725142 -0.4603,0.719422 -0.3083,0.478529 -0.4603,0.719422 z"
     id="path1056"
     inkscape:connector-curvature="0"
     sodipodi:nodetypes="ccccccccc" />
  <path
     transform="rotate(45)"
     style="opacity:1;fill:#db4f07;fill-opacity:1;stroke:none;stroke-width:3.59531808;stroke-linecap:round;stroke-linejoin:round;stroke-miterlimit:4;stroke-dasharray:none;stroke-dashoffset:0;stroke-opacity:1"
     d="m 225.95612,12.284008 a 81.35276,81.35276 0 0 1 -81.35276,81.35276 81.35276,81.35276 0 0 1 -81.352757,-81.35276 81.35276,81.35276 0 0 1 81.352757,-81.35276 81.35276,81.35276 0 0 1 81.35276,81.35276 z"
     id="path815" />
  <path
     style="fill:#c54607;fill-opacity:1;stroke:none;stroke-width:10.78968906;stroke-linecap:butt;stroke-linejoin:round;stroke-miterlimit:4;stroke-dasharray:none;stroke-dashoffset:0;stroke-opacity:1"
     d="M 90.799868,55.447149 C 81.720373,92.550665 64.83184,141.1029 14.230905,127.05696 c 0,0 50.36799,41.40155 76.973148,50.40989 C 118.32843,167.04781 165.21848,123.18157 161.99117,79.749472 139.70113,72.701175 117.19535,67.493095 90.799868,55.447149 Z"
     id="path1021"
     inkscape:connector-curvature="0"
     sodipodi:nodetypes="ccccc" />
</svg>
