<?xml version="1.0" encoding="UTF-8" standalone="no"?>
<svg
   xmlns:dc="http://purl.org/dc/elements/1.1/"
   xmlns:cc="http://creativecommons.org/ns#"
   xmlns:rdf="http://www.w3.org/1999/02/22-rdf-syntax-ns#"
   xmlns:svg="http://www.w3.org/2000/svg"
   xmlns="http://www.w3.org/2000/svg"
   xmlns:sodipodi="http://sodipodi.sourceforge.net/DTD/sodipodi-0.dtd"
   xmlns:inkscape="http://www.inkscape.org/namespaces/inkscape"
   viewBox="0 0 124.12477 127.91685"
   width="124.12476"
   height="127.91685"
   version="1.1"
   id="svg60"
   sodipodi:docname="elephant_ui_working.svg"
   inkscape:version="0.92.2 2405546, 2018-03-11">
  <metadata
     id="metadata66">
    <rdf:RDF>
      <cc:Work
         rdf:about="">
        <dc:format>image/svg+xml</dc:format>
        <dc:type
           rdf:resource="http://purl.org/dc/dcmitype/StillImage" />
      </cc:Work>
    </rdf:RDF>
  </metadata>
  <defs
     id="defs64" />
  <sodipodi:namedview
     pagecolor="#ffffff"
     bordercolor="#666666"
     borderopacity="1"
     objecttolerance="10"
     gridtolerance="10"
     guidetolerance="10"
     inkscape:pageopacity="0"
     inkscape:pageshadow="2"
     inkscape:window-width="1130"
     inkscape:window-height="1050"
     id="namedview62"
     showgrid="false"
     inkscape:zoom="2.6091512"
     inkscape:cx="52.577191"
     inkscape:cy="123.88535"
     inkscape:window-x="0"
     inkscape:window-y="28"
     inkscape:window-maximized="0"
     inkscape:current-layer="svg60" />
  <path
     style="opacity:1;fill:#121212;fill-opacity:1;stroke:#121212;stroke-width:7.88811731;stroke-linecap:round;stroke-linejoin:round;stroke-miterlimit:4;stroke-dasharray:none;stroke-dashoffset:0;stroke-opacity:1"
     d="m 111.56414,19.455666 -0.0753,0.04584 a 29.278512,22.693028 45 0 0 -1.47739,-1.596885 29.278512,22.693028 45 0 0 -3.26581,-2.882752 l 0.0376,-0.07693 -0.0556,0.06226 a 29.278512,22.693028 45 0 0 -5.38163,-3.549825 l 0.0139,-0.0712 -0.0303,0.06304 A 29.278512,22.693028 45 0 0 95.570674,9.057565 l -0.0049,-0.098217 -0.01725,0.092483 A 29.278512,22.693028 45 0 0 89.720763,7.894422 l -0.02946,-0.1080531 0.0058,0.1055663 a 29.278512,22.693028 45 0 0 -5.618988,0.1285074 l -0.04666,-0.095762 0.02621,0.098217 A 29.278512,22.693028 45 0 0 78.91912,9.4356191 l -0.04909,-0.067141 0.036,0.073667 a 29.278512,22.693028 45 0 0 -4.360142,2.6789429 l -0.08095,-0.0762 0.06552,0.08833 a 29.278512,22.693028 45 0 0 -1.267844,1.113985 29.278512,22.693028 45 0 0 -0.788211,0.865156 55.713654,55.713654 0 0 0 -52.236549,14.77553 55.713654,55.713654 0 0 0 -8.18e-4,78.791091 55.713654,55.713654 0 0 0 78.791908,0 55.713654,55.713654 0 0 0 14.745236,-52.239011 29.278512,22.693028 45 0 0 0.89461,-0.786587 29.278512,22.693028 45 0 0 2.13547,-2.629834 l 0.0892,0.05815 -0.0786,-0.07357 a 29.278512,22.693028 45 0 0 2.27949,-4.641662 l 0.0761,0.03192 -0.0721,-0.04739 a 29.278512,22.693028 45 0 0 0.98547,-5.331699 l 0.10065,0.02038 -0.10067,-0.04175 a 29.278512,22.693028 45 0 0 -0.30441,-5.719751 l 0.10395,-0.0025 -0.10803,-0.02127 a 29.278512,22.693028 45 0 0 -1.57968,-5.834283 l 0.0868,-0.02455 -0.0941,0.0025 a 29.278512,22.693028 45 0 0 -2.78208,-5.669739 l 0.0556,-0.0344 -0.0663,0.01882 a 29.278512,22.693028 45 0 0 -3.89029,-5.193343 z"
     id="path1285-7"
     inkscape:connector-curvature="0"
     inkscape:export-xdpi="251.71001"
     inkscape:export-ydpi="251.71001" />
  <path
     sodipodi:nodetypes="csscccccssscccssssccscccssssssssssssssssscsscscccccccscccc"
     inkscape:connector-curvature="0"
     id="path49751"
     d="m 93.922892,50.706392 c -1.306618,-0.311932 -3.049924,10.322326 -4.326028,9.769828 -1.2761,-0.552498 1.387445,-9.663115 0.136036,-10.348038 -1.25141,-0.684925 -5.998695,7.820712 -7.200714,7.051607 -1.202023,-0.76911 5.617477,-9.832254 4.42805,-10.680132 -1.189426,-0.847876 -8.155881,7.81306 -9.245589,6.809372 -1.089714,-1.003685 6.142841,-7.370641 5.152461,-8.432546 -0.99038,-1.061908 -8.625865,3.797517 -9.549155,2.668319 -0.923285,-1.129202 7.829709,-5.08534 7.063389,-6.2788 -0.766319,-1.19346 -10.17852,2.357338 -10.83468,1.088172 -0.65616,-1.269166 10.607851,-3.028231 10.155103,-4.35538 -0.452748,-1.327152 -11.894285,0.707313 -12.225498,-0.593218 -0.331209,-1.30053 11.255885,-1.75415 11.025705,-3.059213 -0.230181,-1.305062 -12.925925,-3.023749 -12.958014,-4.324845 -0.03209,-1.301096 11.729688,1.07995 11.829666,-0.175748 0.09998,-1.255698 -11.653093,-4.637117 -11.385314,-5.833614 0.26778,-1.196497 12.411953,3.954265 12.825887,2.828775 0.413933,-1.12549 -11.756486,-6.711657 -11.270496,-7.801419 0.485989,-1.089762 11.016462,5.279625 11.595115,4.270884 0.578656,-1.008738 -8.434439,-8.536555 -7.692409,-9.412278 0.742036,-0.875717 8.33837,8.3557 9.24086,7.607418 0.902492,-0.748284 -7.026881,-10.176781 -6.012196,-10.765121 1.014688,-0.588339 8.738173,9.419777 9.840851,8.975219 C 85.6186,19.271077 80.150741,8.2405965 81.334282,7.91573 c 1.18354,-0.324868 5.177815,11.836411 6.406993,11.662193 1.229178,-0.174218 -2.53134,-12.2490523 -1.284402,-12.328419 1.246938,-0.079367 3.427998,11.108821 4.721007,11.177175 1.293009,0.06835 0.639061,-11.3139297 1.941567,-11.1360271 1.302506,0.1779026 -0.466063,10.9916601 0.842889,11.4126581 1.308952,0.420999 3.445883,-10.731558 4.767996,-10.2564458 1.322108,0.4751122 -1.071212,12.1440068 0.202978,12.7898818 1.27419,0.645876 4.64715,-9.279935 5.8461,-8.477885 1.19894,0.802049 -4.38795,9.195603 -3.24775,10.134327 1.14019,0.938726 7.11814,-6.951865 8.17351,-5.943675 1.05537,1.008199 -5.52631,6.798012 -4.54957,7.877272 0.97674,1.079263 7.87989,-4.803046 8.77521,-3.673666 0.89532,1.129379 -8.15486,6.774977 -7.44253,8.006146 0.71233,1.231169 11.01232,-3.427323 11.69664,-2.153455 0.68432,1.273868 -10.13488,4.292373 -9.60612,5.598119 0.52877,1.305747 12.6225,-0.409134 12.9946,0.921468 0.3721,1.330601 -11.15556,1.187231 -10.94005,2.49236 0.2155,1.30513 10.9268,2.626006 11.01513,3.907472 0.0883,1.281465 -11.71267,-1.114297 -11.80041,0.149418 -0.0877,1.263715 12.38344,3.970213 12.17528,5.196425 -0.20816,1.226212 -12.64482,-3.741065 -13.04949,-2.602153 -0.40466,1.13891 10.82785,7.573797 10.38132,8.690506 -0.44654,1.116709 -10.6332,-5.751894 -11.24304,-4.775736 -0.60984,0.97616 8.95702,8.147048 8.22951,9.028043 -0.72751,0.880989 -8.41401,-8.413332 -9.24086,-7.607418 -0.82683,0.805926 5.94338,11.115145 4.99659,11.780683 -0.94678,0.665545 -7.70598,-10.460173 -8.79599,-10.017111 -1.09,0.44306 4.33044,11.524428 3.15239,11.826233 -1.17806,0.301808 -5.07865,-12.034371 -6.28057,-11.788668 -1.201917,0.245705 1.84831,12.872745 0.56236,12.891792 -1.285949,0.01905 -1.690946,-11.517626 -2.98813,-11.62406 -1.297183,-0.106433 -1.943589,11.299478 -3.261732,11.122624 -1.318144,-0.176855 0.743803,-11.177482 -0.562813,-11.489412 z"
     style="opacity:1;fill:#fee588;fill-opacity:1;stroke:none;stroke-width:3.6118319;stroke-linecap:round;stroke-linejoin:round;stroke-miterlimit:4;stroke-dasharray:none;stroke-dashoffset:0;stroke-opacity:1" />
  <path
     transform="rotate(45)"
     style="opacity:1;fill:#fee588;fill-opacity:1;stroke:none;stroke-width:2.46221876;stroke-linecap:round;stroke-linejoin:round;stroke-miterlimit:4;stroke-dasharray:none;stroke-dashoffset:0;stroke-opacity:1"
     d="M 146.16454,6.1174502 A 55.713654,55.713654 0 0 1 90.45089,61.831104 55.713654,55.713654 0 0 1 34.737236,6.1174502 55.713654,55.713654 0 0 1 90.45089,-49.596203 55.713654,55.713654 0 0 1 146.16454,6.1174502 Z"
     id="path815-3-6" />
  <path
     transform="rotate(45)"
     style="opacity:1;fill:#fb8e04;fill-opacity:1;stroke:none;stroke-width:2.38840485;stroke-linecap:round;stroke-linejoin:round;stroke-miterlimit:4;stroke-dasharray:none;stroke-dashoffset:0;stroke-opacity:1"
     d="M 144.49432,6.1174502 A 54.043434,54.043434 0 0 1 90.45089,60.160884 54.043434,54.043434 0 0 1 36.407455,6.1174502 54.043434,54.043434 0 0 1 90.45089,-47.925984 54.043434,54.043434 0 0 1 144.49432,6.1174502 Z"
     id="path815-3" />
  <path
     style="opacity:1;fill:#fef4c6;fill-opacity:1;stroke:none;stroke-width:4.77992964;stroke-linecap:round;stroke-linejoin:round;stroke-miterlimit:4;stroke-dasharray:none;stroke-dashoffset:0;stroke-opacity:1"
     d="m 106.44563,44.605381 c -1.64084,1.949316 -4.41476,-3.08177 -6.68614,-3.743288 C 95.11838,39.416311 91.000707,35.736416 89.019157,30.921871 88.231,28.801077 82.519403,29.04634 86.301325,22.225483 c 1.518031,-1.874415 7.187886,-1.428609 9.340005,-0.884728 4.43336,1.195874 8.34222,5.917368 10.59122,10.222776 4.07661,9.310679 1.59418,10.307318 0.50671,12.582932 -0.29363,0.458929 -0.19666,0.30526 -0.29363,0.458929 z"
     id="path1056"
     inkscape:connector-curvature="0"
     sodipodi:nodetypes="ccccccccc" />
  <path
     transform="rotate(45)"
     style="opacity:1;fill:#db4f07;fill-opacity:1;stroke:none;stroke-width:2.29350162;stroke-linecap:round;stroke-linejoin:round;stroke-miterlimit:4;stroke-dasharray:none;stroke-dashoffset:0;stroke-opacity:1"
     d="M 142.3469,6.0426154 A 51.896015,51.896015 0 0 1 90.45089,57.938631 51.896015,51.896015 0 0 1 38.554874,6.0426154 51.896015,51.896015 0 0 1 90.45089,-45.8534 51.896015,51.896015 0 0 1 142.3469,6.0426154 Z"
     id="path815" />
  <path
     style="fill:#c54607;fill-opacity:1;stroke:none;stroke-width:6.88288736;stroke-linecap:butt;stroke-linejoin:round;stroke-miterlimit:4;stroke-dasharray:none;stroke-dashoffset:0;stroke-opacity:1"
     d="m 57.922447,32.834056 c -5.791931,23.66883 -16.565353,54.640952 -48.8443667,45.680856 0,0 32.1304147,26.410608 49.1022017,32.157148 C 75.483284,104.02561 105.39508,76.04275 103.33633,48.336834 89.117215,43.840631 74.760481,40.518327 57.922447,32.834056 Z"
     id="path1021"
     inkscape:connector-curvature="0"
     sodipodi:nodetypes="ccccc" />
</svg>
