<?xml version="1.0" encoding="UTF-8" standalone="no"?>
<svg
   xmlns:dc="http://purl.org/dc/elements/1.1/"
   xmlns:cc="http://creativecommons.org/ns#"
   xmlns:rdf="http://www.w3.org/1999/02/22-rdf-syntax-ns#"
   xmlns:svg="http://www.w3.org/2000/svg"
   xmlns="http://www.w3.org/2000/svg"
   xmlns:xlink="http://www.w3.org/1999/xlink"
   xmlns:sodipodi="http://sodipodi.sourceforge.net/DTD/sodipodi-0.dtd"
   xmlns:inkscape="http://www.inkscape.org/namespaces/inkscape"
   viewBox="0 0 292.85862 204.49997"
   width="292.85861"
   height="204.49997"
   version="1.1"
   id="svg80"
   sodipodi:docname="elephant_ui_plane.svg"
   inkscape:version="0.92.2 2405546, 2018-03-11">
  <metadata
     id="metadata86">
    <rdf:RDF>
      <cc:Work
         rdf:about="">
        <dc:format>image/svg+xml</dc:format>
        <dc:type
           rdf:resource="http://purl.org/dc/dcmitype/StillImage" />
        <dc:title />
      </cc:Work>
    </rdf:RDF>
  </metadata>
  <defs
     id="defs84">
    <defs
       id="defs3">
      <path
         d="M395.89999 745.09998H690.5v279.79999H395.89999z"
         id="a" />
    </defs>
    <clipPath
       id="b">
      <use
         id="use5"
         overflow="visible"
         height="100%"
         width="100%"
         xlink:href="#a" />
    </clipPath>
  </defs>
  <sodipodi:namedview
     pagecolor="#6f6f6f"
     bordercolor="#666666"
     borderopacity="1"
     objecttolerance="10"
     gridtolerance="10"
     guidetolerance="10"
     inkscape:pageopacity="0"
     inkscape:pageshadow="2"
     inkscape:window-width="958"
     inkscape:window-height="1050"
     id="namedview82"
     showgrid="false"
     inkscape:zoom="0.40801278"
     inkscape:cx="145.17419"
     inkscape:cy="601.30984"
     inkscape:window-x="0"
     inkscape:window-y="28"
     inkscape:window-maximized="0"
     inkscape:current-layer="svg80" />
  <path
     style="opacity:1;fill:#28373e;fill-opacity:1;stroke:none;stroke-width:3.21171713;stroke-linecap:round;stroke-linejoin:round;stroke-miterlimit:4;stroke-dasharray:none;stroke-dashoffset:0;stroke-opacity:0.49803922"
     d="m 40.096665,38.66593 a 27.129395,32.05577 0 0 0 -27.124917,32.057201 27.129395,32.05577 0 0 0 0.129076,2.842509 c 1.309979,29.32649 22.670751,54.6541 54.126477,68.38157 31.297439,-13.65675 52.607279,-38.79429 54.115309,-67.930899 a 27.129395,32.05577 0 0 0 0.14568,-3.29318 A 27.129395,32.05577 0 0 0 94.357716,38.66593 27.129395,32.05577 0 0 0 67.22716,70.723131 27.129395,32.05577 0 0 0 40.096602,38.66593 Z"
     id="path860"
     inkscape:connector-curvature="0" />
  <path
     inkscape:connector-curvature="0"
     id="path13428"
     style="font-style:normal;font-variant:normal;font-weight:bold;font-stretch:normal;font-size:medium;line-height:1.25;font-family:Inconsolata;-inkscape-font-specification:'Inconsolata Bold';letter-spacing:0px;word-spacing:0px;fill:#28373e;fill-opacity:1;stroke:none;stroke-width:3.53898382"
     d="m 151.91819,123.7954 q 17.07283,-16.38163 24.46875,-24.192274 7.46505,-7.810644 11.33582,-14.515357 3.93987,-6.773837 3.93987,-13.824154 0,-5.598784 -3.52514,-8.847461 -3.52517,-3.317797 -9.46956,-3.317797 -8.77833,0 -14.30799,5.529662 -1.24419,1.244175 -1.72803,2.280985 -0.48384,0.96769 -0.48384,1.935382 l 0.0692,0.760329 -0.96769,1.313296 -0.96768,-0.760329 -10.50638,-7.948891 q 5.11495,-8.225371 12.51087,-12.57998 7.46504,-4.423728 16.65812,-4.423728 7.87977,0 14.16975,3.317794 6.28999,3.248677 9.81515,9.123944 3.59428,5.875266 3.59428,13.47855 0,7.534164 -3.59428,14.446243 -3.52516,6.912073 -9.3313,13.40943 -5.73702,6.497356 -16.9346,17.694916 l -5.66789,5.59879 h 28.82336 q 2.28097,0 3.31778,-0.20736 1.10594,-0.27649 1.93538,-1.03682 h 1.58979 v 14.37712 h -54.74367 z" />
  <path
     inkscape:connector-curvature="0"
     id="path13430"
     style="font-style:normal;font-variant:normal;font-weight:bold;font-stretch:normal;font-size:medium;line-height:1.25;font-family:Inconsolata;-inkscape-font-specification:'Inconsolata Bold';letter-spacing:0px;word-spacing:0px;fill:#28373e;fill-opacity:1;stroke:none;stroke-width:3.53898382"
     d="M 219.86392,114.74057 264.30857,89.649739 220.00216,67.047246 V 53.015728 l 61.72485,32.417645 v 8.225376 l -61.86309,36.219291 z" />
</svg>
