<?xml version="1.0" encoding="UTF-8" standalone="no"?>
<svg
   xmlns:dc="http://purl.org/dc/elements/1.1/"
   xmlns:cc="http://creativecommons.org/ns#"
   xmlns:rdf="http://www.w3.org/1999/02/22-rdf-syntax-ns#"
   xmlns:svg="http://www.w3.org/2000/svg"
   xmlns="http://www.w3.org/2000/svg"
   xmlns:sodipodi="http://sodipodi.sourceforge.net/DTD/sodipodi-0.dtd"
   xmlns:inkscape="http://www.inkscape.org/namespaces/inkscape"
   viewBox="0 0 713.35878 175.8678"
   version="1.1"
   id="svg6"
   sodipodi:docname="logo_full.svg"
   inkscape:version="0.92.2 2405546, 2018-03-11">
  <metadata
     id="metadata12">
    <rdf:RDF>
      <cc:Work
         rdf:about="">
        <dc:format>image/svg+xml</dc:format>
        <dc:type
           rdf:resource="http://purl.org/dc/dcmitype/StillImage" />
        <dc:title />
      </cc:Work>
    </rdf:RDF>
  </metadata>
  <defs
     id="defs10" />
  <sodipodi:namedview
     pagecolor="#737373"
     bordercolor="#666666"
     borderopacity="1"
     objecttolerance="10"
     gridtolerance="10"
     guidetolerance="10"
     inkscape:pageopacity="0"
     inkscape:pageshadow="2"
     inkscape:window-width="1361"
     inkscape:window-height="1050"
     id="namedview8"
     showgrid="false"
     inkscape:zoom="0.77019025"
     inkscape:cx="277.24602"
     inkscape:cy="225.36651"
     inkscape:window-x="0"
     inkscape:window-y="28"
     inkscape:window-maximized="0"
     inkscape:current-layer="svg6" />
  <text
     xml:space="preserve"
     style="font-style:normal;font-variant:normal;font-weight:normal;font-stretch:normal;font-size:30.47890282px;line-height:1.25;font-family:'Misc Fixed';-inkscape-font-specification:'Misc Fixed';letter-spacing:0px;word-spacing:0px;fill:#000000;fill-opacity:1;stroke:none;stroke-width:0.76197261"
     x="179.30174"
     y="54.950703"
     id="text869"><tspan
       sodipodi:role="line"
       id="tspan867"
       x="179.30174"
       y="84.97242"
       style="font-style:normal;font-variant:normal;font-weight:bold;font-stretch:normal;font-family:'URW Gothic';-inkscape-font-specification:'URW Gothic Bold';fill:#ffffff;stroke-width:0.76197261" /></text>
  <g
     transform="matrix(3.5916374,0,0,3.5916374,-81.439197,-271.52912)"
     id="g4691">
    <path
       sodipodi:nodetypes="cccccssczccscc"
       inkscape:connector-curvature="0"
       id="path985"
       d="m 55.992447,77.112089 c -8.959829,3.627163 -11.068653,5.873181 -18.623668,13.950053 -0.319776,-4.261257 -0.973585,-8.837189 -0.973585,-8.837189 0,0 0.129386,5.222915 -3.934643,11.452532 -3.42338,6.012219 -7.09835,10.719595 -7.10706,16.267225 0,7.01469 5.647071,12.66176 12.66176,12.66176 h 18.641755 c 7.014689,0 12.662276,-5.64707 12.662276,-12.66176 0,0 0.183303,-5.41679 -0.933794,-8.66872 C 67.26839,98.024061 60.96042,86.9224 51.330716,82.420292 c 1.428631,2.358202 5.094881,5.627563 2.350244,14.418757 -3.096591,-3.091505 -4.880864,-6.299112 -5.114933,-8.489405 -0.321731,-3.010574 0.250362,-5.03379 7.42642,-11.237039 z"
       style="fill:#cd2b2b;fill-opacity:1;stroke:none;stroke-width:0.95009553;stroke-linecap:butt;stroke-linejoin:round;stroke-miterlimit:4;stroke-dasharray:none;stroke-dashoffset:0;stroke-opacity:1" />
    <path
       inkscape:connector-curvature="0"
       id="path1021"
       d="m 57.044828,102.71403 c -8.285183,3.69771 -16.19918,5.71832 -23.598435,-0.60596 -0.682329,5.83783 -1.214325,10.11486 0.808743,14.07529 0,0 0.494841,0.17403 1.338204,0.43028 0.256894,0.53553 0.53799,1.0556 0.84732,1.55905 0,0 6.496315,1.65786 13.437355,1.19076 6.94103,-0.46709 10.483713,-2.63582 14.494002,-4.83828 -4.073823,-5.40005 -6.056724,-9.90617 -7.327189,-11.81114 z"
       style="fill:#331313;fill-opacity:1;stroke:none;stroke-width:2.14096808;stroke-linecap:butt;stroke-linejoin:round;stroke-miterlimit:4;stroke-dasharray:none;stroke-dashoffset:0;stroke-opacity:1" />
  </g>
  <text
     xml:space="preserve"
     style="font-style:normal;font-variant:normal;font-weight:normal;font-stretch:normal;font-size:143.25154114px;line-height:1.25;font-family:'Misc Fixed';-inkscape-font-specification:'Misc Fixed';letter-spacing:0px;word-spacing:0px;fill:#ffffff;fill-opacity:1;stroke:none;stroke-width:3.58128858;"
     x="195.05389"
     y="156.57962"
     id="text7511"><tspan
       sodipodi:role="line"
       id="tspan7509"
       x="195.05389"
       y="156.57962"
       style="font-style:normal;font-variant:normal;font-weight:bold;font-stretch:normal;font-family:Inconsolata;-inkscape-font-specification:'Inconsolata Bold';stroke-width:3.58128858;fill:#ffffff;fill-opacity:1;">Fla.red</tspan></text>
</svg>
