<?xml version="1.0" encoding="UTF-8" standalone="no"?>
<svg
   xmlns:dc="http://purl.org/dc/elements/1.1/"
   xmlns:cc="http://creativecommons.org/ns#"
   xmlns:rdf="http://www.w3.org/1999/02/22-rdf-syntax-ns#"
   xmlns:svg="http://www.w3.org/2000/svg"
   xmlns="http://www.w3.org/2000/svg"
   xmlns:sodipodi="http://sodipodi.sourceforge.net/DTD/sodipodi-0.dtd"
   xmlns:inkscape="http://www.inkscape.org/namespaces/inkscape"
   viewBox="0 0 216.4144 232.00976"
   version="1.1"
   id="svg6"
   sodipodi:docname="logo.svg"
   inkscape:version="0.92.2 2405546, 2018-03-11">
  <metadata
     id="metadata12">
    <rdf:RDF>
      <cc:Work
         rdf:about="">
        <dc:format>image/svg+xml</dc:format>
        <dc:type
           rdf:resource="http://purl.org/dc/dcmitype/StillImage" />
      </cc:Work>
    </rdf:RDF>
  </metadata>
  <defs
     id="defs10" />
  <sodipodi:namedview
     pagecolor="#ffffff"
     bordercolor="#666666"
     borderopacity="1"
     objecttolerance="10"
     gridtolerance="10"
     guidetolerance="10"
     inkscape:pageopacity="0"
     inkscape:pageshadow="2"
     inkscape:window-width="1130"
     inkscape:window-height="1050"
     id="namedview8"
     showgrid="false"
     inkscape:zoom="1.0171986"
     inkscape:cx="116.35152"
     inkscape:cy="169.32123"
     inkscape:window-x="0"
     inkscape:window-y="28"
     inkscape:window-maximized="0"
     inkscape:current-layer="svg6" />
  <path
     style="opacity:1;fill:#121212;fill-opacity:1;stroke:#121212;stroke-width:13.7530632;stroke-linecap:round;stroke-linejoin:round;stroke-miterlimit:4;stroke-dasharray:none;stroke-dashoffset:0;stroke-opacity:1"
     d="m 194.51394,42.905903 -0.13129,0.07992 a 51.04757,39.565671 45 0 0 -2.57586,-2.784195 51.04757,39.565671 45 0 0 -5.69399,-5.026126 l 0.0656,-0.134128 -0.097,0.108556 a 51.04757,39.565671 45 0 0 -9.38295,-6.189179 l 0.0242,-0.124131 -0.0529,0.109909 a 51.04757,39.565671 45 0 0 -10.04083,-4.169886 l -0.009,-0.171243 -0.0301,0.161246 a 51.04757,39.565671 45 0 0 -10.1608,-2.017962 l -0.0514,-0.188392 0.0101,0.184057 a 51.04757,39.565671 45 0 0 -9.7968,0.224055 l -0.0814,-0.166963 0.0457,0.171243 a 51.04757,39.565671 45 0 0 -8.95912,2.463103 l -0.0856,-0.117062 0.0628,0.128439 a 51.04757,39.565671 45 0 0 -7.60198,4.670783 l -0.14114,-0.132858 0.11425,0.154011 a 51.04757,39.565671 45 0 0 -2.21051,1.942251 51.04757,39.565671 45 0 0 -1.37426,1.508414 97.137679,97.137679 0 0 0 -91.07529,25.761381 97.137679,97.137679 0 0 0 -0.0014,137.373564 97.137679,97.137679 0 0 0 137.375,1e-5 97.137679,97.137679 0 0 0 25.70857,-91.07958 51.04757,39.565671 45 0 0 1.55977,-1.37143 51.04757,39.565671 45 0 0 3.72321,-4.585158 l 0.1555,0.101376 -0.13711,-0.128273 a 51.04757,39.565671 45 0 0 3.97433,-8.092816 l 0.13269,0.05564 -0.12571,-0.08262 a 51.04757,39.565671 45 0 0 1.71818,-9.295905 l 0.1755,0.03554 -0.17552,-0.07279 A 51.04757,39.565671 45 0 0 208.8373,72.23622 l 0.18124,-0.0043 -0.18837,-0.03709 a 51.04757,39.565671 45 0 0 -2.75419,-10.17217 l 0.15128,-0.0428 -0.16409,0.0043 a 51.04757,39.565671 45 0 0 -4.8506,-9.885285 l 0.097,-0.05998 -0.1156,0.03281 a 51.04757,39.565671 45 0 0 -6.78278,-9.054679 z"
     id="path1285-7"
     inkscape:connector-curvature="0"
     inkscape:export-xdpi="251.71001"
     inkscape:export-ydpi="251.71001" />
  <path
     sodipodi:nodetypes="csscccccssscccssssccscccssssssssssssssssscsscscccccccscccc"
     inkscape:connector-curvature="0"
     id="path49751"
     d="m 163.75613,97.392059 c -2.27811,-0.543859 -5.31759,17.997141 -7.5425,17.033851 -2.2249,-0.96328 2.41903,-16.847796 0.23718,-18.04197 -2.18185,-1.194177 -10.45882,13.63554 -12.55456,12.29459 -2.09575,-1.34095 9.79416,-17.142694 7.72038,-18.620984 -2.07379,-1.478285 -14.21992,13.622204 -16.11984,11.872254 -1.89994,-1.74994 10.71014,-12.850836 8.9834,-14.702285 -1.72675,-1.851454 -15.03934,6.621035 -16.64911,4.652259 -1.60976,-1.968783 13.65123,-8.866374 12.31514,-10.947191 -1.3361,-2.080817 -17.74642,4.110058 -18.89045,1.897245 -1.14403,-2.212813 18.49496,-5.27977 17.70559,-7.593677 -0.78937,-2.313912 -20.73788,1.233212 -21.31536,-1.034285 -0.57747,-2.267496 19.62482,-3.058389 19.2235,-5.333789 -0.40132,-2.275397 -22.53656,-5.271957 -22.59251,-7.540439 -0.0559,-2.268482 20.45091,1.882911 20.62522,-0.306419 0.17431,-2.189331 -20.31736,-8.084891 -19.85048,-10.171003 0.46687,-2.086112 21.64044,6.894326 22.36214,4.932016 0.7217,-1.962311 -20.49763,-11.701884 -19.6503,-13.601903 0.84734,-1.900019 19.20739,9.205113 20.21628,7.446358 1.0089,-1.758753 -14.70558,-14.883627 -13.41184,-16.410464 1.29375,-1.526826 14.53808,14.568303 16.11159,13.263659 1.57351,-1.304645 -12.25148,-17.743385 -10.48236,-18.769166 1.76912,-1.025779 15.23515,16.423537 17.15768,15.648443 1.92254,-0.775092 -7.61076,-20.006918 -5.54724,-20.573328 2.06352,-0.566413 9.02761,20.636979 11.1707,20.333227 2.14309,-0.303752 -4.41343,-21.356426 -2.23938,-21.494803 2.17406,-0.138377 5.97677,19.368413 8.23116,19.48759 2.25438,0.119177 1.11421,-19.726024 3.38515,-19.415848 2.27094,0.310176 -0.81259,19.164141 1.46959,19.898159 2.28218,0.734018 6.00796,-18.710649 8.31308,-17.882283 2.30513,0.828366 -1.86767,21.173277 0.3539,22.299371 2.22157,1.126094 8.10238,-16.179721 10.19276,-14.781333 2.09039,1.398385 -7.65045,16.032685 -5.6625,17.669367 1.98795,1.636684 12.4106,-12.120693 14.25065,-10.362896 1.84006,1.757812 -9.63522,11.852446 -7.93225,13.734154 1.70297,1.881712 13.73873,-8.374191 15.29973,-6.405098 1.56101,1.969092 -14.21813,11.812284 -12.97618,13.958848 1.24196,2.146563 19.20017,-5.975594 20.39329,-3.754584 1.19313,2.22101 -17.67034,7.483824 -16.74843,9.760414 0.92192,2.27659 22.00753,-0.713332 22.6563,1.606593 0.64877,2.319926 -19.4499,2.069957 -19.07416,4.345472 0.37573,2.275515 19.05107,4.578484 19.20507,6.812743 0.154,2.234255 -20.42124,-1.942796 -20.57421,0.260512 -0.15297,2.203308 21.59072,6.922131 21.22779,9.060053 -0.36293,2.137921 -22.04646,-6.522609 -22.75199,-4.536898 -0.70555,1.985709 18.87854,13.205041 18.09999,15.152042 -0.77854,1.946997 -18.53916,-10.028523 -19.60242,-8.326575 -1.06327,1.701952 15.61671,14.204512 14.34829,15.740542 -1.26843,1.53602 -14.66997,-14.668783 -16.11159,-13.26366 -1.4416,1.405146 10.36237,19.37944 8.71163,20.53982 -1.65073,1.16039 -13.4355,-18.237488 -15.33595,-17.465002 -1.90044,0.772483 7.55019,20.093032 5.49624,20.619232 -2.05396,0.52621 -8.85471,-20.982125 -10.95027,-20.553737 -2.09557,0.42839 3.22255,22.443847 0.98048,22.477057 -2.24208,0.0332 -2.94819,-20.081175 -5.20986,-20.266745 -2.26166,-0.185568 -3.38867,19.700825 -5.68688,19.392475 -2.2982,-0.30835 1.29683,-19.48812 -0.98127,-20.031976 z"
     style="opacity:1;fill:#fee588;fill-opacity:1;stroke:none;stroke-width:6.29728889;stroke-linecap:round;stroke-linejoin:round;stroke-miterlimit:4;stroke-dasharray:none;stroke-dashoffset:0;stroke-opacity:1" />
  <path
     transform="rotate(45)"
     style="opacity:1;fill:#fee588;fill-opacity:1;stroke:none;stroke-width:4.29291916;stroke-linecap:round;stroke-linejoin:round;stroke-miterlimit:4;stroke-dasharray:none;stroke-dashoffset:0;stroke-opacity:1"
     d="m 261.19341,17.018961 a 97.13768,97.13768 0 0 1 -97.13768,97.137679 97.13768,97.13768 0 0 1 -97.137685,-97.137679 97.13768,97.13768 0 0 1 97.137685,-97.13768 97.13768,97.13768 0 0 1 97.13768,97.13768 z"
     id="path815-3-6" />
  <path
     transform="rotate(45)"
     style="opacity:1;fill:#fb8e04;fill-opacity:1;stroke:none;stroke-width:4.16422367;stroke-linecap:round;stroke-linejoin:round;stroke-miterlimit:4;stroke-dasharray:none;stroke-dashoffset:0;stroke-opacity:1"
     d="M 258.28135,17.018961 A 94.225624,94.225624 0 0 1 164.05573,111.24459 94.225624,94.225624 0 0 1 69.830101,17.018961 94.225624,94.225624 0 0 1 164.05573,-77.206663 94.225624,94.225624 0 0 1 258.28135,17.018961 Z"
     id="path815-3" />
  <path
     style="opacity:1;fill:#fef4c6;fill-opacity:1;stroke:none;stroke-width:8.33388615;stroke-linecap:round;stroke-linejoin:round;stroke-miterlimit:4;stroke-dasharray:none;stroke-dashoffset:0;stroke-opacity:1"
     d="m 185.58973,86.754848 c -2.86083,3.398665 -7.69721,-5.373116 -11.6574,-6.526484 -8.09185,-2.520745 -15.27108,-8.936704 -18.72595,-17.330942 -1.37416,-3.69764 -11.33242,-3.270019 -4.73858,-15.162296 2.64671,-3.268075 12.5322,-2.490804 16.28445,-1.542538 7.72964,2.085026 14.54481,10.317029 18.46597,17.823578 7.10764,16.233323 2.77948,17.970981 0.88346,21.938551 -0.51195,0.80015 -0.34289,0.532226 -0.51195,0.80015 z"
     id="path1056"
     inkscape:connector-curvature="0"
     sodipodi:nodetypes="ccccccccc" />
  <path
     transform="rotate(45)"
     style="opacity:1;fill:#db4f07;fill-opacity:1;stroke:none;stroke-width:3.99875808;stroke-linecap:round;stroke-linejoin:round;stroke-miterlimit:4;stroke-dasharray:none;stroke-dashoffset:0;stroke-opacity:1"
     d="m 254.53728,16.888483 a 90.48156,90.48156 0 0 1 -90.48155,90.481557 90.48156,90.48156 0 0 1 -90.481565,-90.481557 90.48156,90.48156 0 0 1 90.481565,-90.48156 90.48156,90.48156 0 0 1 90.48155,90.48156 z"
     id="path815" />
  <path
     style="fill:#c54607;fill-opacity:1;stroke:none;stroke-width:12.0004282;stroke-linecap:butt;stroke-linejoin:round;stroke-miterlimit:4;stroke-dasharray:none;stroke-dashoffset:0;stroke-opacity:1"
     d="M 100.98876,66.231349 C 90.890427,107.49835 72.106789,161.49875 15.827793,145.87668 c 0,0 56.019911,46.04733 85.610507,56.06651 C 131.60637,190.355 183.75807,141.56642 180.16861,93.260698 155.37735,85.421494 130.34615,79.629002 100.98876,66.231349 Z"
     id="path1021-3"
     inkscape:connector-curvature="0"
     sodipodi:nodetypes="ccccc" />
</svg>
