<?xml version="1.0" encoding="UTF-8" standalone="no"?>
<svg
   xmlns:dc="http://purl.org/dc/elements/1.1/"
   xmlns:cc="http://creativecommons.org/ns#"
   xmlns:rdf="http://www.w3.org/1999/02/22-rdf-syntax-ns#"
   xmlns:svg="http://www.w3.org/2000/svg"
   xmlns="http://www.w3.org/2000/svg"
   xmlns:sodipodi="http://sodipodi.sourceforge.net/DTD/sodipodi-0.dtd"
   xmlns:inkscape="http://www.inkscape.org/namespaces/inkscape"
   viewBox="0 0 216.4144 232.00976"
   version="1.1"
   id="svg6"
   sodipodi:docname="logo.svg"
   inkscape:version="0.92.2 5c3e80d, 2017-08-06">
  <metadata
     id="metadata12">
    <rdf:RDF>
      <cc:Work
         rdf:about="">
        <dc:format>image/svg+xml</dc:format>
        <dc:type
           rdf:resource="http://purl.org/dc/dcmitype/StillImage" />
      </cc:Work>
    </rdf:RDF>
  </metadata>
  <defs
     id="defs10" />
  <sodipodi:namedview
     pagecolor="#ffffff"
     bordercolor="#666666"
     borderopacity="1"
     objecttolerance="10"
     gridtolerance="10"
     guidetolerance="10"
     inkscape:pageopacity="0"
     inkscape:pageshadow="2"
     inkscape:window-width="1918"
     inkscape:window-height="1050"
     id="namedview8"
     showgrid="false"
     inkscape:zoom="1.0171986"
     inkscape:cx="67.001666"
     inkscape:cy="262.39001"
     inkscape:window-x="0"
     inkscape:window-y="28"
     inkscape:window-maximized="0"
     inkscape:current-layer="svg6" />
  <g
     id="g863"
     transform="translate(-212.96901,255.09777)">
    <ellipse
       ry="10.582078"
       rx="79.274132"
       cy="-33.670086"
       cx="318.6857"
       id="path1029"
       style="fill:#777777;fill-opacity:1;stroke:none;stroke-width:3.08445835;stroke-linecap:butt;stroke-linejoin:round;stroke-miterlimit:4;stroke-dasharray:none;stroke-dashoffset:0;stroke-opacity:1" />
    <path
       sodipodi:nodetypes="cccccccsccsc"
       inkscape:connector-curvature="0"
       id="path985"
       d="m 355.78587,-255.09802 c -41.69628,18.35244 -51.50989,29.71631 -86.6686,70.58304 -1.48813,-21.56077 -4.52998,-44.71493 -4.52998,-44.71493 0,0 2.3574,23.63179 -9.46199,59.91246 -24.97152,25.03539 -45.49492,40.25647 -41.70285,78.90076 -0.8987,21.770707 17.43539,40.967606 43.21428,49.442329 50.11906,19.408961 121.00696,16.354356 157.98576,-18.752523 24.09434,-25.577665 14.4884,-50.994676 0.85783,-80.810816 -14.13917,-30.92867 -36.5748,-64.92392 -81.38848,-87.70335 6.64842,11.93185 23.71048,28.4732 10.93779,72.9542 -14.41057,-15.64216 -22.71299,-31.8718 -23.80228,-42.95407 -1.49723,-15.23267 1.16336,-25.47038 34.55852,-56.8571 z"
       style="fill:#b92510;fill-opacity:1;stroke:none;stroke-width:4.61030293;stroke-linecap:butt;stroke-linejoin:round;stroke-miterlimit:4;stroke-dasharray:none;stroke-dashoffset:0;stroke-opacity:1" />
    <path
       sodipodi:nodetypes="cscczccc"
       inkscape:connector-curvature="0"
       id="path1021"
       d="m 367.62833,-135.79572 c -43.68297,38.556372 -61.24567,39.665672 -85.92521,34.52198 -24.67949,-5.14367 -32.47455,-14.24804 -32.47455,-14.24804 0,0 20.55129,69.306393 39.4339,79.005265 29.45487,1.206534 43.39471,-0.610734 66.9368,-12.370937 23.54209,-11.760192 47.61311,-55.643448 47.61311,-55.643448 0,0 -3.21931,-1.70076 -17.35899,-15.12661 -14.13965,-13.42581 -18.22506,-16.13821 -18.22506,-16.13821 z"
       style="fill:#331313;fill-opacity:1;stroke:none;stroke-width:10.75310802;stroke-linecap:butt;stroke-linejoin:round;stroke-miterlimit:4;stroke-dasharray:none;stroke-dashoffset:0;stroke-opacity:1" />
  </g>
</svg>
