<?xml version="1.0" encoding="UTF-8" standalone="no"?>
<svg
   xmlns:dc="http://purl.org/dc/elements/1.1/"
   xmlns:cc="http://creativecommons.org/ns#"
   xmlns:rdf="http://www.w3.org/1999/02/22-rdf-syntax-ns#"
   xmlns:svg="http://www.w3.org/2000/svg"
   xmlns="http://www.w3.org/2000/svg"
   xmlns:sodipodi="http://sodipodi.sourceforge.net/DTD/sodipodi-0.dtd"
   xmlns:inkscape="http://www.inkscape.org/namespaces/inkscape"
   viewBox="0 0 216.4144 232.00976"
   version="1.1"
   id="svg4"
   sodipodi:docname="logo_transparent.svg"
   inkscape:version="0.92.2 2405546, 2018-03-11">
  <metadata
     id="metadata10">
    <rdf:RDF>
      <cc:Work
         rdf:about="">
        <dc:format>image/svg+xml</dc:format>
        <dc:type
           rdf:resource="http://purl.org/dc/dcmitype/StillImage" />
        <dc:title />
      </cc:Work>
    </rdf:RDF>
  </metadata>
  <defs
     id="defs8" />
  <sodipodi:namedview
     pagecolor="#797979"
     bordercolor="#666666"
     borderopacity="1"
     objecttolerance="10"
     gridtolerance="10"
     guidetolerance="10"
     inkscape:pageopacity="0"
     inkscape:pageshadow="2"
     inkscape:window-width="958"
     inkscape:window-height="1050"
     id="namedview6"
     showgrid="false"
     inkscape:zoom="1.438536"
     inkscape:cx="162.70346"
     inkscape:cy="50.91558"
     inkscape:window-x="0"
     inkscape:window-y="28"
     inkscape:window-maximized="0"
     inkscape:current-layer="svg4" />
  <path
     style="fill:#ffffff;fill-opacity:1;stroke:none;stroke-width:4.46644688;stroke-linecap:butt;stroke-linejoin:round;stroke-miterlimit:4;stroke-dasharray:none;stroke-dashoffset:0;stroke-opacity:1"
     d="M 148.87316,8.1386014 C 106.75256,25.190077 96.838871,35.74872 61.322366,73.718501 59.819083,53.686118 56.745494,32.174432 56.745494,32.174432 c 0,0 0.60825,24.553185 -18.496954,53.838928 -16.093481,28.26374 -33.3696999,50.39335 -33.4106461,76.47304 0,32.97641 26.5471641,59.52357 59.5235691,59.52357 h 87.635827 c 32.9764,0 59.52599,-26.54716 59.52599,-59.52357 0,0 0.86172,-25.4646 -4.38981,-40.75209 -5.25153,-15.28748 -34.90562,-67.476944 -80.17534,-88.64158 6.71607,11.086026 23.95129,26.455456 11.04862,67.7833 -14.55723,-14.53332 -22.94519,-29.612441 -24.04556,-39.909118 -1.51247,-14.15286 1.17697,-23.6641 34.91197,-52.8258848 z"
     id="path985"
     inkscape:connector-curvature="0"
     sodipodi:nodetypes="cccccssczccscc" />
  <path
     style="fill:#ffffff;fill-opacity:1;stroke:none;stroke-width:10.06479836;stroke-linecap:butt;stroke-linejoin:round;stroke-miterlimit:4;stroke-dasharray:none;stroke-dashoffset:0;stroke-opacity:1"
     d="m 153.82046,128.49461 c -38.94906,17.38312 -76.153158,26.88211 -110.937427,-2.84865 -3.207663,27.44393 -5.708603,47.55047 3.801941,66.16865 0,0 2.326272,0.81812 6.290964,2.02277 1.207672,2.51755 2.529118,4.96242 3.983294,7.32917 0,0 30.539503,7.79368 63.169678,5.59782 32.63013,-2.19581 49.28446,-12.39112 68.13703,-22.745 -19.15124,-25.3859 -28.47296,-46.5694 -34.44548,-55.52476 z"
     id="path1021"
     inkscape:connector-curvature="0" />
</svg>
