<?xml version="1.0" encoding="UTF-8" standalone="no"?>
<svg
   xmlns:dc="http://purl.org/dc/elements/1.1/"
   xmlns:cc="http://creativecommons.org/ns#"
   xmlns:rdf="http://www.w3.org/1999/02/22-rdf-syntax-ns#"
   xmlns:svg="http://www.w3.org/2000/svg"
   xmlns="http://www.w3.org/2000/svg"
   xmlns:sodipodi="http://sodipodi.sourceforge.net/DTD/sodipodi-0.dtd"
   xmlns:inkscape="http://www.inkscape.org/namespaces/inkscape"
   viewBox="0 0 216.4144 232.00976"
   version="1.1"
   id="svg4"
   sodipodi:docname="logo_transparent.svg"
   inkscape:version="0.92.2 5c3e80d, 2017-08-06">
  <metadata
     id="metadata10">
    <rdf:RDF>
      <cc:Work
         rdf:about="">
        <dc:format>image/svg+xml</dc:format>
        <dc:type
           rdf:resource="http://purl.org/dc/dcmitype/StillImage" />
        <dc:title></dc:title>
      </cc:Work>
    </rdf:RDF>
  </metadata>
  <defs
     id="defs8" />
  <sodipodi:namedview
     pagecolor="#797979"
     bordercolor="#666666"
     borderopacity="1"
     objecttolerance="10"
     gridtolerance="10"
     guidetolerance="10"
     inkscape:pageopacity="0"
     inkscape:pageshadow="2"
     inkscape:window-width="1361"
     inkscape:window-height="1050"
     id="namedview6"
     showgrid="false"
     inkscape:zoom="2.0343971"
     inkscape:cx="95.232517"
     inkscape:cy="92.188091"
     inkscape:window-x="0"
     inkscape:window-y="28"
     inkscape:window-maximized="0"
     inkscape:current-layer="svg4" />
  <path
     style="opacity:1;fill:#ffffff;fill-opacity:1;stroke:none;stroke-width:6.61819363;stroke-linecap:round;stroke-linejoin:round;stroke-miterlimit:4;stroke-dasharray:none;stroke-dashoffset:0;stroke-opacity:1"
     d="m 151.24024,8.084942 c -2.28484,0.145432 4.60546,22.270654 2.35316,22.58988 -2.2523,0.319239 -9.5719,-21.965649 -11.74058,-21.370374 -1.77007,0.485871 4.57518,14.032423 5.8703,19.441394 a 102.08774,102.08774 0 0 0 -6.04198,-2.845522 c -4.82103,-5.088867 -10.86017,-12.09875 -12.03094,-11.419914 -0.85074,0.493278 1.74924,4.399055 4.64068,8.599652 a 102.08774,102.08774 0 0 0 -9.66009,-2.68644 c -0.32437,-0.172204 -0.59432,-0.264944 -0.76251,-0.207043 a 102.08774,102.08774 0 0 0 -93.967533,27.548699 102.08774,102.08774 0 0 0 0,144.373746 102.08774,102.08774 0 0 0 144.373743,0 102.08774,102.08774 0 0 0 26.09437,-99.58534 c 2.78788,2.71961 5.12549,4.79012 5.63043,4.17863 0.61977,-0.75052 -2.85743,-4.00665 -6.62269,-7.440735 a 102.08774,102.08774 0 0 0 -2.42639,-6.963552 c 5.90257,3.063967 14.03533,7.952077 14.57095,6.61259 0.70316,-1.758508 -14.36614,-10.699582 -18.15623,-14.507823 a 102.08774,102.08774 0 0 0 -0.73474,-1.57803 c 1.99123,-1.376973 23.40938,7.10636 23.77909,4.928517 0.38141,-2.246874 -22.4704,-7.205641 -22.30962,-9.521223 0.16076,-2.315595 21.7847,2.072912 21.62286,-0.275208 -0.16185,-2.348108 -19.78882,-4.7665 -20.1837,-7.157966 -0.39488,-2.391478 20.72917,-2.129326 20.04735,-4.567472 -0.68183,-2.438145 -22.84302,0.703476 -23.81191,-1.689127 -0.96889,-2.392603 18.85722,-7.924297 17.60329,-10.258481 -1.25392,-2.334198 -20.12825,6.202291 -21.43349,3.946343 -1.30525,-2.255949 15.27729,-12.599967 13.63673,-14.669401 -1.64054,-2.069447 -14.28852,8.708861 -16.07828,6.731262 -1.78974,-1.977599 10.27091,-12.587207 8.33708,-14.434602 -1.93382,-1.84737 -12.88818,12.612311 -14.97743,10.892223 -2.08927,-1.720088 8.14798,-17.100668 5.95107,-18.570304 -2.19691,-1.469648 -8.37818,16.718914 -10.71296,15.535436 -2.33478,-1.183477 2.05144,-22.565137 -0.37115,-23.43571 -2.4226,-0.870586 -6.33751,19.563919 -8.736,18.792498 -2.39847,-0.771421 0.84146,-20.587396 -1.54521,-20.913383 -2.38667,-0.325974 -1.18826,20.53115 -3.55753,20.405884 -2.36925,-0.125265 -6.3653,-20.624536 -8.65014,-20.479104 z M 103.5331,20.903637 a 99.027286,99.027286 0 0 1 68.57759,28.995441 99.027286,99.027286 0 0 1 0,140.046142 99.027286,99.027286 0 0 1 -140.046142,0 99.027286,99.027286 0 0 1 0,-140.046142 99.027286,99.027286 0 0 1 71.468552,-28.995441 z"
     id="path49751-6"
     inkscape:connector-curvature="0" />
</svg>
