<?xml version="1.0" encoding="UTF-8" standalone="no"?>
<svg
   xmlns:dc="http://purl.org/dc/elements/1.1/"
   xmlns:cc="http://creativecommons.org/ns#"
   xmlns:rdf="http://www.w3.org/1999/02/22-rdf-syntax-ns#"
   xmlns:svg="http://www.w3.org/2000/svg"
   xmlns="http://www.w3.org/2000/svg"
   xmlns:sodipodi="http://sodipodi.sourceforge.net/DTD/sodipodi-0.dtd"
   xmlns:inkscape="http://www.inkscape.org/namespaces/inkscape"
   viewBox="0 0 216.41507 232.00976"
   version="1.1"
   id="svg6"
   sodipodi:docname="logo_alt.svg"
   inkscape:version="0.92.2 2405546, 2018-03-11">
  <metadata
     id="metadata12">
    <rdf:RDF>
      <cc:Work
         rdf:about="">
        <dc:format>image/svg+xml</dc:format>
        <dc:type
           rdf:resource="http://purl.org/dc/dcmitype/StillImage" />
      </cc:Work>
    </rdf:RDF>
  </metadata>
  <defs
     id="defs10" />
  <sodipodi:namedview
     pagecolor="#ffffff"
     bordercolor="#666666"
     borderopacity="1"
     objecttolerance="10"
     gridtolerance="10"
     guidetolerance="10"
     inkscape:pageopacity="0"
     inkscape:pageshadow="2"
     inkscape:window-width="1130"
     inkscape:window-height="1050"
     id="namedview8"
     showgrid="false"
     inkscape:zoom="0.50859928"
     inkscape:cx="352.37313"
     inkscape:cy="124.43719"
     inkscape:window-x="0"
     inkscape:window-y="28"
     inkscape:window-maximized="0"
     inkscape:current-layer="svg6" />
  <path
     style="opacity:1;fill:#121212;fill-opacity:1;stroke:#121212;stroke-width:13.7531271;stroke-linecap:round;stroke-linejoin:round;stroke-miterlimit:4;stroke-dasharray:none;stroke-dashoffset:0;stroke-opacity:1"
     d="m 194.51484,42.905025 -0.13128,0.07992 a 51.047806,39.565854 45 0 0 -2.57588,-2.784208 51.047806,39.565854 45 0 0 -5.69402,-5.026149 l 0.0656,-0.134129 -0.097,0.108557 a 51.047806,39.565854 45 0 0 -9.38299,-6.189208 l 0.0242,-0.124131 -0.0529,0.109909 A 51.047806,39.565854 45 0 0 166.62984,24.77568 l -0.009,-0.171244 -0.0301,0.161247 a 51.047806,39.565854 45 0 0 -10.16085,-2.017971 l -0.0514,-0.188393 0.0101,0.184057 a 51.047806,39.565854 45 0 0 -9.79684,0.224056 l -0.0814,-0.166963 0.0457,0.171244 a 51.047806,39.565854 45 0 0 -8.95917,2.463114 l -0.0856,-0.117063 0.0628,0.12844 a 51.047806,39.565854 45 0 0 -7.60201,4.670804 l -0.14115,-0.132858 0.11425,0.154012 a 51.047806,39.565854 45 0 0 -2.21052,1.94226 51.047806,39.565854 45 0 0 -1.37426,1.508421 97.138129,97.138129 0 0 0 -91.075715,25.761501 97.138129,97.138129 0 0 0 -0.0014,137.374206 97.138129,97.138129 0 0 0 137.375635,0 97.138129,97.138129 0 0 0 25.70869,-91.08 51.047806,39.565854 45 0 0 1.55977,-1.37143 51.047806,39.565854 45 0 0 3.72324,-4.585184 l 0.1555,0.101377 -0.13711,-0.128274 a 51.047806,39.565854 45 0 0 3.97434,-8.092853 l 0.13269,0.05564 -0.1257,-0.08263 a 51.047806,39.565854 45 0 0 1.71818,-9.295948 l 0.1755,0.03554 -0.17552,-0.07279 a 51.047806,39.565854 45 0 0 -0.53074,-9.972526 l 0.18124,-0.0043 -0.18837,-0.03709 a 51.047806,39.565854 45 0 0 -2.7542,-10.172217 l 0.15127,-0.0428 -0.16409,0.0043 a 51.047806,39.565854 45 0 0 -4.85062,-9.88533 l 0.097,-0.05998 -0.1156,0.03281 a 51.047806,39.565854 45 0 0 -6.78282,-9.054721 z"
     id="path1285-7"
     inkscape:connector-curvature="0"
     inkscape:export-xdpi="251.71001"
     inkscape:export-ydpi="251.71001" />
  <path
     sodipodi:nodetypes="csscccccssscccssssccscccssssssssssssssssscsscscccccccscccc"
     inkscape:connector-curvature="0"
     id="path49751"
     d="m 163.75689,97.391434 c -2.27812,-0.543861 -5.31762,17.997226 -7.54253,17.033936 -2.22492,-0.96329 2.41904,-16.84788 0.23718,-18.04206 -2.18187,-1.194183 -10.45888,13.6356 -12.55462,12.29465 -2.09576,-1.34096 9.7942,-17.142776 7.72041,-18.621073 -2.07379,-1.478292 -14.21998,13.622263 -16.11991,11.872313 -1.89995,-1.74996 10.71019,-12.8509 8.98344,-14.702357 -1.72675,-1.851462 -15.03941,6.621065 -16.64919,4.65228 -1.60977,-1.968792 13.65129,-8.866415 12.3152,-10.947241 -1.3361,-2.080827 -17.7465,4.110076 -18.89054,1.897253 -1.14403,-2.212822 18.49505,-5.279794 17.70568,-7.593712 -0.78938,-2.313922 -20.73798,1.233217 -21.31546,-1.034289 -0.57747,-2.267507 19.62491,-3.058404 19.22359,-5.333814 -0.40133,-2.275407 -22.53667,-5.271981 -22.59262,-7.540475 -0.0559,-2.268492 20.451,1.882921 20.62531,-0.30642 0.17432,-2.18934 -20.31745,-8.084928 -19.85057,-10.17105 0.46688,-2.086122 21.64055,6.894358 22.36225,4.932039 0.7217,-1.96232 -20.49772,-11.701939 -19.65039,-13.601966 0.84734,-1.900027 19.20747,9.205156 20.21637,7.446392 1.0089,-1.75876 -14.70565,-14.883695 -13.4119,-16.41054 1.29375,-1.526833 14.53815,14.568371 16.11166,13.263722 1.57352,-1.304652 -12.25154,-17.743468 -10.48241,-18.769254 1.76913,-1.025783 15.23522,16.423613 17.15777,15.648515 1.92254,-0.775095 -7.6108,-20.00701 -5.54727,-20.573422 2.06353,-0.566416 9.02765,20.637074 11.17075,20.333321 2.1431,-0.303754 -4.41345,-21.356525 -2.23939,-21.494903 2.17407,-0.138378 5.9768,19.368503 8.23119,19.48768 2.2544,0.119178 1.11422,-19.726115 3.38517,-19.415937 2.27096,0.310177 -0.81259,19.164229 1.4696,19.89825 2.28219,0.734022 6.00798,-18.710735 8.31312,-17.882366 2.30514,0.82837 -1.86768,21.173375 0.3539,22.299475 2.22158,1.1261 8.10241,-16.179796 10.19281,-14.781401 2.09039,1.398392 -7.65049,16.032759 -5.66253,17.669448 1.98796,1.636692 12.41066,-12.120748 14.25071,-10.362943 1.84007,1.75782 -9.63525,11.8525 -7.93228,13.734218 1.70298,1.88172 13.73879,-8.37423 15.2998,-6.405128 1.56102,1.969101 -14.2182,11.812338 -12.97624,13.958912 1.24196,2.146573 19.20026,-5.975622 20.39339,-3.754601 1.19313,2.22102 -17.67043,7.483858 -16.74851,9.760459 0.92192,2.2766 22.00763,-0.713335 22.6564,1.606601 0.64877,2.319936 -19.44998,2.069966 -19.07425,4.345492 0.37574,2.275526 19.05116,4.578505 19.20516,6.812774 0.15401,2.234266 -20.42133,-1.942805 -20.5743,0.260513 -0.15297,2.203318 21.59082,6.922164 21.22789,9.060095 -0.36294,2.137931 -22.04656,-6.522639 -22.7521,-4.536919 -0.70555,1.985718 18.87863,13.205103 18.10008,15.152112 -0.77855,1.947007 -18.53925,-10.028569 -19.60252,-8.326613 -1.06327,1.701959 15.61678,14.20458 14.34836,15.74062 -1.26843,1.53602 -14.67004,-14.668856 -16.11167,-13.263726 -1.4416,1.405151 10.36242,19.379526 8.71167,20.539906 -1.65073,1.1604 -13.43556,-18.237564 -15.33601,-17.465074 -1.90045,0.772486 7.55022,20.093124 5.49626,20.619324 -2.05396,0.52621 -8.85475,-20.982219 -10.95032,-20.55383 -2.09558,0.428393 3.22256,22.44395 0.98048,22.47716 -2.24208,0.0332 -2.9482,-20.081266 -5.20988,-20.266837 -2.26167,-0.185569 -3.38869,19.700917 -5.6869,19.392567 -2.29822,-0.30835 1.29683,-19.488213 -0.98128,-20.032071 z"
     style="opacity:1;fill:#fee588;fill-opacity:1;stroke:none;stroke-width:6.29731798;stroke-linecap:round;stroke-linejoin:round;stroke-miterlimit:4;stroke-dasharray:none;stroke-dashoffset:0;stroke-opacity:1" />
  <path
     transform="rotate(45)"
     style="opacity:1;fill:#fee588;fill-opacity:1;stroke:none;stroke-width:4.29293919;stroke-linecap:round;stroke-linejoin:round;stroke-miterlimit:4;stroke-dasharray:none;stroke-dashoffset:0;stroke-opacity:1"
     d="m 261.19386,17.018276 a 97.13813,97.13813 0 0 1 -97.13813,97.138134 97.13813,97.13813 0 0 1 -97.138135,-97.138134 97.13813,97.13813 0 0 1 97.138135,-97.13813 97.13813,97.13813 0 0 1 97.13813,97.13813 z"
     id="path815-3-6" />
  <path
     transform="rotate(45)"
     style="opacity:1;fill:#fb8e04;fill-opacity:1;stroke:none;stroke-width:4.16424274;stroke-linecap:round;stroke-linejoin:round;stroke-miterlimit:4;stroke-dasharray:none;stroke-dashoffset:0;stroke-opacity:1"
     d="M 258.28178,17.018276 A 94.226059,94.226059 0 0 1 164.05573,111.24434 94.226059,94.226059 0 0 1 69.829666,17.018276 94.226059,94.226059 0 0 1 164.05573,-77.207783 94.226059,94.226059 0 0 1 258.28178,17.018276 Z"
     id="path815-3" />
  <path
     style="opacity:1;fill:#fef4c6;fill-opacity:1;stroke:none;stroke-width:8.33392525;stroke-linecap:round;stroke-linejoin:round;stroke-miterlimit:4;stroke-dasharray:none;stroke-dashoffset:0;stroke-opacity:1"
     d="m 185.59059,86.754173 c -2.86084,3.398681 -7.69725,-5.373141 -11.65745,-6.526514 -8.09189,-2.520756 -15.27115,-8.936745 -18.72604,-17.331022 -1.37417,-3.697658 -11.33248,-3.270034 -4.7386,-15.162367 2.64672,-3.26809 12.53225,-2.490815 16.28453,-1.542545 7.72967,2.085036 14.54487,10.317077 18.46604,17.823661 7.10768,16.233398 2.7795,17.971064 0.88348,21.938652 -0.51196,0.800154 -0.3429,0.532229 -0.51196,0.800154 z"
     id="path1056"
     inkscape:connector-curvature="0"
     sodipodi:nodetypes="ccccccccc" />
  <path
     transform="rotate(45)"
     style="opacity:1;fill:#db4f07;fill-opacity:1;stroke:none;stroke-width:3.99877667;stroke-linecap:round;stroke-linejoin:round;stroke-miterlimit:4;stroke-dasharray:none;stroke-dashoffset:0;stroke-opacity:1"
     d="M 254.5377,16.8878 A 90.481979,90.481979 0 0 1 164.05573,107.36978 90.481979,90.481979 0 0 1 73.573746,16.8878 90.481979,90.481979 0 0 1 164.05573,-73.594179 90.481979,90.481979 0 0 1 254.5377,16.8878 Z"
     id="path815" />
  <path
     style="fill:#c54607;fill-opacity:1;stroke:none;stroke-width:12.00048351;stroke-linecap:butt;stroke-linejoin:round;stroke-miterlimit:4;stroke-dasharray:none;stroke-dashoffset:0;stroke-opacity:1"
     d="M 100.98922,66.230579 C 90.89085,107.49777 72.107124,161.49843 15.827868,145.87628 c 0,0 56.02017,46.04754 85.610902,56.06677 30.16821,-11.58824 82.32015,-60.37705 78.73068,-108.682997 -24.79138,-7.83924 -49.8227,-13.631759 -79.18023,-27.029474 z"
     id="path1021"
     inkscape:connector-curvature="0"
     sodipodi:nodetypes="ccccc" />
</svg>
