<?xml version="1.0" encoding="UTF-8" standalone="no"?>
<!-- Created with Inkscape (http://www.inkscape.org/) -->

<svg
   xmlns:dc="http://purl.org/dc/elements/1.1/"
   xmlns:cc="http://creativecommons.org/ns#"
   xmlns:rdf="http://www.w3.org/1999/02/22-rdf-syntax-ns#"
   xmlns:svg="http://www.w3.org/2000/svg"
   xmlns="http://www.w3.org/2000/svg"
   xmlns:sodipodi="http://sodipodi.sourceforge.net/DTD/sodipodi-0.dtd"
   xmlns:inkscape="http://www.inkscape.org/namespaces/inkscape"
   version="1.1"
   id="svg2"
   width="1601.3333"
   height="840"
   viewBox="0 0 1601.3333 840"
   sodipodi:docname="preview.svg"
   inkscape:version="0.92.2 2405546, 2018-03-11">
  <metadata
     id="metadata8">
    <rdf:RDF>
      <cc:Work
         rdf:about="">
        <dc:format>image/svg+xml</dc:format>
        <dc:type
           rdf:resource="http://purl.org/dc/dcmitype/StillImage" />
        <dc:title />
      </cc:Work>
    </rdf:RDF>
  </metadata>
  <defs
     id="defs6" />
  <sodipodi:namedview
     pagecolor="#ffffff"
     bordercolor="#666666"
     borderopacity="1"
     objecttolerance="10"
     gridtolerance="10"
     guidetolerance="10"
     inkscape:pageopacity="0"
     inkscape:pageshadow="2"
     inkscape:window-width="1918"
     inkscape:window-height="1050"
     id="namedview4"
     showgrid="false"
     inkscape:zoom="0.28095238"
     inkscape:cx="1075.0584"
     inkscape:cy="637.04696"
     inkscape:window-x="0"
     inkscape:window-y="28"
     inkscape:window-maximized="0"
     inkscape:current-layer="svg2" />
  <rect
     style="opacity:1;fill:#1d282d;fill-opacity:1;stroke:none;stroke-width:12;stroke-linecap:round;stroke-linejoin:round;stroke-miterlimit:4;stroke-dasharray:none;stroke-dashoffset:0;stroke-opacity:1"
     id="rect1580"
     width="1601.3333"
     height="840"
     x="0"
     y="0"
     ry="1.52807" />
  <path
     sodipodi:nodetypes="csscccccssscccssssccscccssssssssssssssssscsscscccccccscccc"
     inkscape:connector-curvature="0"
     id="path49751"
     d="m 338.62206,407.72023 c -10.01437,-2.39078 -23.37572,79.11404 -33.15622,74.87952 -9.7805,-4.23458 10.63386,-74.06163 1.04261,-79.31113 -9.59125,-5.2495 -45.9762,59.94078 -55.18889,54.04609 -9.21275,-5.89474 43.05438,-75.35799 33.9382,-81.85645 -9.11623,-6.4984 -62.50968,59.88217 -70.8616,52.18954 -8.35193,-7.69263 47.08099,-56.49127 39.49034,-64.6301 -7.59065,-8.13888 -66.11177,29.10554 -73.1882,20.45097 -7.07637,-8.65462 60.00972,-38.97591 54.13639,-48.12301 -5.87333,-9.14711 -78.01189,18.06749 -83.04089,8.34014 -5.02905,-9.72735 81.30238,-23.20945 77.83238,-33.38121 -3.47006,-10.17177 -91.16215,5.42107 -93.70066,-4.54663 -2.5385,-9.96775 86.26919,-13.44446 84.50499,-23.44692 -1.7642,-10.00247 -99.06895,-23.17517 -99.31492,-33.14719 -0.24603,-9.97208 89.9006,8.27709 90.66685,-1.34704 0.76625,-9.62412 -89.31354,-35.54051 -87.26114,-44.71092 2.05235,-9.17041 95.12966,30.3069 98.30221,21.68078 3.17256,-8.62618 -90.10596,-51.44059 -86.38117,-59.79295 3.72479,-8.3523 84.43416,40.46499 88.86918,32.73365 4.43502,-7.73134 -64.64459,-65.42728 -58.95743,-72.13915 5.68727,-6.71183 63.90829,64.04115 70.82532,58.30602 6.91702,-5.73512 -53.85657,-77.99853 -46.07964,-82.50779 7.77692,-4.509265 66.97254,72.19658 75.42385,68.78935 8.45131,-3.40728 -33.45632,-87.948875 -24.38524,-90.438772 9.07109,-2.489897 39.68463,90.718542 49.1055,89.383292 9.42087,-1.33525 -19.40111,-93.881199 -9.84409,-94.489506 9.55697,-0.608253 26.27342,85.142066 36.18348,85.665966 9.91011,0.52395 4.89804,-86.714093 14.88088,-85.350565 9.98289,1.363527 -3.57209,84.244035 6.46022,87.470775 10.03226,3.22668 26.4105,-82.250578 36.54365,-78.609169 10.13316,3.641464 -8.21015,93.076129 1.5557,98.026339 9.76585,4.95022 35.6174,-71.12482 44.80658,-64.97762 9.18917,6.14721 -33.63075,70.47845 -24.89189,77.67319 8.73887,7.19473 54.55604,-53.28163 62.64475,-45.5545 8.08876,7.72718 -42.35567,52.10243 -34.86954,60.37427 7.48613,8.27185 60.39439,-36.81228 67.25642,-28.1563 6.86209,8.65597 -62.50183,51.92588 -57.04226,61.362 5.45952,9.43612 84.40242,-26.26823 89.64732,-16.50487 5.24486,9.76341 -77.67745,32.89835 -73.62483,42.90606 4.05268,10.00771 96.74344,-3.13579 99.59535,7.06242 2.85196,10.19826 -85.50024,9.09942 -83.84856,19.10237 1.65173,10.00301 83.74701,20.12665 84.42404,29.9483 0.67698,9.8216 -89.77023,-8.54037 -90.44267,1.14519 -0.67243,9.68555 94.91116,30.42916 93.31572,39.82732 -1.59539,9.39811 -96.91452,-28.67291 -100.01596,-19.94389 -3.10156,8.72902 82.9886,58.04838 79.56618,66.60723 -3.42242,8.55886 -81.49671,-44.0846 -86.17078,-36.60302 -4.67402,7.4817 68.64985,62.44198 63.07402,69.19425 -5.57594,6.75221 -64.48811,-64.48287 -70.82532,-58.30603 -6.33716,6.17689 45.55217,85.19051 38.29563,90.29143 -7.25648,5.10097 -59.06141,-80.17055 -67.4156,-76.77479 -8.3542,3.39577 33.19001,88.32744 24.16099,90.64057 -9.02901,2.31314 -38.92459,-92.23579 -48.13653,-90.35263 -9.21193,1.88315 14.16611,98.66136 4.31012,98.80735 -9.85599,0.14599 -12.96003,-88.27525 -22.9021,-89.09103 -9.94207,-0.81573 -14.8964,86.60335 -24.99911,85.24788 -10.10272,-1.35553 5.70078,-85.66829 -4.31363,-88.05908 z"
     style="opacity:1;fill:#fee588;fill-opacity:1;stroke:none;stroke-width:27.68239403;stroke-linecap:round;stroke-linejoin:round;stroke-miterlimit:4;stroke-dasharray:none;stroke-dashoffset:0;stroke-opacity:1" />
  <circle
     style="opacity:1;fill:#fee588;fill-opacity:1;stroke:none;stroke-width:18.87134171;stroke-linecap:round;stroke-linejoin:round;stroke-miterlimit:4;stroke-dasharray:none;stroke-dashoffset:0;stroke-opacity:1"
     id="path815-3-6"
     cx="437.17068"
     cy="329.95901"
     r="427.0097"
     inkscape:export-xdpi="251.71001"
     inkscape:export-ydpi="251.71001"
     transform="rotate(45)" />
  <circle
     style="opacity:1;fill:#fb8e04;fill-opacity:1;stroke:none;stroke-width:18.30560493;stroke-linecap:round;stroke-linejoin:round;stroke-miterlimit:4;stroke-dasharray:none;stroke-dashoffset:0;stroke-opacity:1"
     id="path815-3"
     cx="437.17068"
     cy="329.95901"
     r="414.20856"
     inkscape:export-xdpi="251.71001"
     inkscape:export-ydpi="251.71001"
     transform="rotate(45)" />
  <path
     style="opacity:1;fill:#fef4c6;fill-opacity:1;stroke:none;stroke-width:36.63512039;stroke-linecap:round;stroke-linejoin:round;stroke-miterlimit:4;stroke-dasharray:none;stroke-dashoffset:0;stroke-opacity:1"
     d="m 434.60086,360.95988 c -12.57601,14.94025 -33.83633,-23.61984 -51.24501,-28.68994 -35.57117,-11.08098 -67.13048,-39.28503 -82.31784,-76.18545 -6.04068,-16.25457 -49.81643,-14.37477 -20.83045,-66.65233 11.63479,-14.36617 55.0906,-10.94937 71.58525,-6.78087 33.97886,9.16565 63.93781,45.35286 81.17492,78.35108 31.24467,71.36041 12.21838,78.99902 3.88365,96.4402 -2.25052,3.51737 -1.50736,2.33958 -2.25052,3.51737 z"
     id="path1056"
     inkscape:connector-curvature="0"
     sodipodi:nodetypes="ccccccccc" />
  <circle
     style="opacity:1;fill:#db4f07;fill-opacity:1;stroke:none;stroke-width:17.5782299;stroke-linecap:round;stroke-linejoin:round;stroke-miterlimit:4;stroke-dasharray:none;stroke-dashoffset:0;stroke-opacity:1"
     id="path815"
     cx="437.17068"
     cy="329.3855"
     r="397.74994"
     inkscape:export-xdpi="251.71001"
     inkscape:export-ydpi="251.71001"
     transform="rotate(45)" />
  <path
     style="fill:#c54607;fill-opacity:1;stroke:none;stroke-width:52.75295258;stroke-linecap:butt;stroke-linejoin:round;stroke-miterlimit:4;stroke-dasharray:none;stroke-dashoffset:0;stroke-opacity:1"
     d="M 62.701527,270.74016 C 18.31006,452.14669 -64.261324,689.52826 -311.65948,620.85484 c 0,0 246.259243,202.4205 376.337168,246.46406 C 197.29417,816.3781 426.54903,601.90728 410.77008,389.55909 301.78961,355.09856 191.75436,329.63519 62.701527,270.74016 Z"
     id="path1021"
     inkscape:connector-curvature="0"
     sodipodi:nodetypes="ccccc" />
  <g
     id="g1048"
     transform="matrix(2.0709743,0,0,2.0709743,175.32313,304.52114)">
    <path
       id="path2114-9"
       d="m 201.46875,53.792969 c -4.33839,0 -7.74609,3.407695 -7.74609,7.746093 V 151.7168 c 0,4.33839 3.4077,7.74609 7.74609,7.74609 4.33839,0 7.74805,-3.4077 7.74805,-7.74609 v -39.04688 h 41.21484 c 4.33839,0 7.5918,-3.5633 7.5918,-7.5918 0,-4.33838 -3.25341,-7.902339 -7.5918,-7.902339 H 209.2168 V 69.287109 h 54.07422 c 4.33838,0 7.59179,-3.719534 7.59179,-7.748047 0,-4.338397 -3.25341,-7.746093 -7.59179,-7.746093 z m 441.46289,0.308593 c -4.18346,0 -7.43682,3.408342 -7.5918,7.591797 l -0.77539,23.087891 c -4.33839,-1.394485 -9.91686,-2.634766 -15.80468,-2.634766 -24.4809,0 -33.77735,19.987086 -33.77735,41.833986 0,17.19861 8.83337,34.70703 27.73633,34.70703 8.52184,0 15.3381,-2.94284 20.45117,-6.35156 0.30981,3.56367 2.94419,6.97265 7.4375,6.97265 4.18345,0 7.43686,-3.09844 7.5918,-7.12695 l 2.16992,-90.177734 c 0.15489,-4.183455 -3.56395,-7.902344 -7.4375,-7.902344 z M 292.31445,55.1875 c -4.33838,0 -7.4375,3.252737 -7.4375,7.28125 v 89.86719 c 0,3.87355 3.56395,6.97265 7.4375,6.97265 3.56369,0 7.4375,-3.0991 7.4375,-6.97265 V 62.46875 c 0,-4.028513 -3.56393,-7.28125 -7.4375,-7.28125 z m 64.60352,24.789062 c -27.11494,0 -37.1875,28.355378 -37.1875,44.314458 0,20.29747 12.86063,33.93164 29.9043,33.93164 6.1977,0 12.2404,-2.01376 17.35351,-4.33789 0.77471,3.09885 3.2547,5.42382 7.2832,5.42382 4.33838,0 7.4375,-3.71954 7.4375,-7.74804 V 87.105469 c -2.78896,-1.394485 -13.63514,-7.128906 -24.79101,-7.128907 z m 120.1543,1.705079 c -9.14161,0 -15.9585,4.49303 -20.76172,9.916015 v -2.167968 c 0,-4.183431 -3.40834,-7.4375 -7.5918,-7.4375 -4.0285,0 -7.5918,3.25407 -7.5918,7.4375 v 62.751952 c 0,3.71863 3.71823,7.12695 7.5918,7.12695 3.87357,0 7.4375,-3.40832 7.4375,-7.12695 l 0.1543,-31.60937 c 0,-4.80323 1.70517,-9.91547 4.02929,-12.85938 4.64828,-6.1977 9.91489,-11.310546 14.87305,-11.310546 1.85931,0 2.16992,0.929087 2.16992,2.478515 v 2.013671 c 0,3.56367 1.86023,7.4375 7.28321,7.4375 4.18345,0 7.28125,-3.2547 7.28125,-7.2832 v -4.646486 c 0,-6.662527 -3.25431,-14.720703 -14.875,-14.720703 z m 58.34961,0.310547 c -21.2271,0 -35.01758,19.058032 -35.01758,40.285152 0,19.36781 14.87451,37.03125 38.42578,37.03125 9.60644,0 20.29706,-5.11415 25.875,-11.46679 1.08461,-1.08459 1.85937,-2.78913 1.85937,-4.64844 0,-4.18344 -3.09976,-7.28125 -7.2832,-7.28125 -2.01426,0 -3.71687,1.08402 -5.11133,2.47851 -3.40874,3.56368 -10.22672,6.50782 -15.33984,6.50782 -8.8317,0 -15.49495,-3.25479 -19.98828,-9.60742 l 41.52539,-23.85938 c 3.25376,-1.8593 4.80273,-4.49488 4.80273,-7.12891 0,-7.282297 -9.29561,-22.310542 -29.74804,-22.310542 z M 357.22656,94.697266 c 3.25378,0 7.12769,0.774788 9.76172,1.859375 l -0.46484,40.439449 c -3.87356,2.47909 -10.84526,6.35352 -17.04297,6.35352 -10.84597,0 -14.71875,-11.00225 -14.71875,-19.36914 0,-10.38115 5.886,-29.283204 22.46484,-29.283204 z m 178.19532,1.859375 c 7.12738,0 11.62052,1.704542 14.0996,5.113279 l -35.01757,19.36719 c 0.61977,-13.63495 8.98739,-24.480469 20.91797,-24.480469 z m 83.49414,0.310547 c 5.73288,0 12.08539,2.477913 15.49414,4.027342 l -0.61914,32.07422 c 0,3.40875 -8.52194,11.77539 -21.07227,11.77539 -10.07125,0 -12.86133,-12.39681 -12.86133,-21.22852 0,-10.84597 2.94459,-26.648432 19.0586,-26.648432 z m -205.8711,43.693362 c -4.80323,0 -9.14062,4.8029 -9.14062,9.91601 0,4.95816 3.25341,8.83203 8.05664,8.83203 4.64827,0 9.14062,-4.49434 9.14062,-10.07226 0,-4.80322 -3.56332,-8.67578 -8.05664,-8.67578 z"
       style="font-style:normal;font-variant:normal;font-weight:bold;font-stretch:normal;font-size:medium;line-height:1.25;font-family:'Comic Neue';-inkscape-font-specification:'Comic Neue Bold';letter-spacing:0px;word-spacing:0px;fill:#e3e3e3;fill-opacity:1;stroke:#121212;stroke-width:12;stroke-miterlimit:4;stroke-dasharray:none;stroke-opacity:1"
       inkscape:connector-curvature="0" />
    <g
       id="g957">
      <path
         inkscape:connector-curvature="0"
         id="path2114"
         style="font-style:normal;font-variant:normal;font-weight:bold;font-stretch:normal;font-size:medium;line-height:1.25;font-family:'Comic Neue';-inkscape-font-specification:'Comic Neue Bold';letter-spacing:0px;word-spacing:0px;fill:#e3e3e3;fill-opacity:1;stroke:none;stroke-width:7.86295128;stroke-miterlimit:4;stroke-dasharray:none;stroke-opacity:1"
         d="m 209.21625,112.67037 h 41.2147 c 4.33839,0 7.59219,-3.56369 7.59219,-7.59219 0,-4.33838 -3.2538,-7.902067 -7.59219,-7.902067 h -41.2147 V 69.286461 h 54.07493 c 4.33838,0 7.59218,-3.718602 7.59218,-7.747114 0,-4.338398 -3.2538,-7.747127 -7.59218,-7.747127 h -61.82206 c -4.33839,0 -7.74712,3.408729 -7.74712,7.747127 v 90.176523 c 0,4.33839 3.40873,7.74713 7.74712,7.74713 4.33839,0 7.74713,-3.40874 7.74713,-7.74713 z"
         inkscape:export-xdpi="251.71001"
         inkscape:export-ydpi="251.71001" />
      <path
         inkscape:connector-curvature="0"
         id="path2116"
         style="font-style:normal;font-variant:normal;font-weight:bold;font-stretch:normal;font-size:medium;line-height:1.25;font-family:'Comic Neue';-inkscape-font-specification:'Comic Neue Bold';letter-spacing:0px;word-spacing:0px;fill:#e3e3e3;fill-opacity:1;stroke:none;stroke-width:7.86295128;stroke-miterlimit:4;stroke-dasharray:none;stroke-opacity:1"
         d="m 299.75107,62.469004 c 0,-4.028513 -3.56367,-7.282299 -7.43724,-7.282299 -4.33838,0 -7.43724,3.253786 -7.43724,7.282299 v 89.866646 c 0,3.87355 3.56369,6.9724 7.43724,6.9724 3.56369,0 7.43724,-3.09885 7.43724,-6.9724 z"
         inkscape:export-xdpi="251.71001"
         inkscape:export-ydpi="251.71001" />
      <path
         inkscape:connector-curvature="0"
         id="path2118"
         style="font-style:normal;font-variant:normal;font-weight:bold;font-stretch:normal;font-size:medium;line-height:1.25;font-family:'Comic Neue';-inkscape-font-specification:'Comic Neue Bold';letter-spacing:0px;word-spacing:0px;fill:#e3e3e3;fill-opacity:1;stroke:none;stroke-width:7.86295128;stroke-miterlimit:4;stroke-dasharray:none;stroke-opacity:1"
         d="m 381.70838,87.104857 c -2.78896,-1.394485 -13.63493,-7.127356 -24.7908,-7.127356 -27.11494,0 -37.18619,28.354469 -37.18619,44.313549 0,20.29747 12.86022,33.9324 29.90389,33.9324 6.1977,0 12.24046,-2.01425 17.35357,-4.33838 0.77471,3.09885 3.25379,5.42298 7.28229,5.42298 4.33838,0 7.43724,-3.71862 7.43724,-7.74712 z m -15.18437,49.891473 c -3.87356,2.47909 -10.84596,6.35265 -17.04367,6.35265 -10.84597,0 -14.71954,-11.00092 -14.71954,-19.36781 0,-10.38115 5.88783,-29.284129 22.46667,-29.284129 3.25378,0 7.12735,0.774714 9.76138,1.859301 z"
         inkscape:export-xdpi="251.71001"
         inkscape:export-ydpi="251.71001" />
      <path
         inkscape:connector-curvature="0"
         id="path2120"
         style="font-style:normal;font-variant:normal;font-weight:bold;font-stretch:normal;font-size:medium;line-height:1.25;font-family:'Comic Neue';-inkscape-font-specification:'Comic Neue Bold';letter-spacing:0px;word-spacing:0px;fill:#c1f1fe;fill-opacity:1;stroke:none;stroke-width:7.86295128;stroke-miterlimit:4;stroke-dasharray:none;stroke-opacity:1"
         d="m 411.96092,159.30805 c 4.64827,0 9.1416,-4.49333 9.1416,-10.07125 0,-4.80322 -3.56368,-8.67678 -8.057,-8.67678 -4.80323,0 -9.14162,4.8032 -9.14162,9.91631 0,4.95816 3.25379,8.83172 8.05702,8.83172 z"
         inkscape:export-xdpi="251.71001"
         inkscape:export-ydpi="251.71001" />
      <path
         inkscape:connector-curvature="0"
         id="path2122"
         style="font-style:normal;font-variant:normal;font-weight:bold;font-stretch:normal;font-size:medium;line-height:1.25;font-family:'Comic Neue';-inkscape-font-specification:'Comic Neue Bold';letter-spacing:0px;word-spacing:0px;fill:#fec1c1;fill-opacity:1;stroke:none;stroke-width:7.86295128;stroke-miterlimit:4;stroke-dasharray:none;stroke-opacity:1"
         d="m 491.94754,96.401399 c 0,-6.662527 -3.25377,-14.719527 -14.87446,-14.719527 -9.14161,0 -15.95908,4.493328 -20.7623,9.916313 v -2.169199 c 0,-4.18343 -3.40872,-7.437228 -7.59218,-7.437228 -4.0285,0 -7.59218,3.253798 -7.59218,7.437228 v 62.751704 c 0,3.71863 3.71861,7.12736 7.59218,7.12736 3.87357,0 7.43724,-3.40873 7.43724,-7.12736 l 0.15493,-31.60825 c 0,-4.80323 1.70439,-9.91632 4.02851,-12.86023 4.64828,-6.1977 9.91632,-11.310811 14.87448,-11.310811 1.85931,0 2.16919,0.929657 2.16919,2.479085 v 2.014256 c 0,3.56367 1.85932,7.43723 7.2823,7.43723 4.18345,0 7.28229,-3.25379 7.28229,-7.28229 z"
         inkscape:export-xdpi="251.71001"
         inkscape:export-ydpi="251.71001" />
      <path
         inkscape:connector-curvature="0"
         id="path2124"
         style="font-style:normal;font-variant:normal;font-weight:bold;font-stretch:normal;font-size:medium;line-height:1.25;font-family:'Comic Neue';-inkscape-font-specification:'Comic Neue Bold';letter-spacing:0px;word-spacing:0px;fill:#fec1c1;fill-opacity:1;stroke:none;stroke-width:7.86295128;stroke-miterlimit:4;stroke-dasharray:none;stroke-opacity:1"
         d="m 554.16907,138.39082 c -3.40874,3.56367 -10.2262,6.50758 -15.33932,6.50758 -8.8317,0 -15.49425,-3.25379 -19.98758,-9.60642 l 41.5246,-23.86116 c 3.25376,-1.8593 4.8032,-4.49332 4.8032,-7.12735 0,-7.282299 -9.29653,-22.311712 -29.74896,-22.311712 -21.2271,0 -35.01699,19.057922 -35.01699,40.285042 0,19.36781 14.87446,37.03125 38.42573,37.03125 9.60644,0 20.29747,-5.1131 25.87541,-11.46574 1.08461,-1.08459 1.85931,-2.78897 1.85931,-4.64828 0,-4.18344 -3.09887,-7.28228 -7.28231,-7.28228 -2.01426,0 -3.71863,1.08458 -5.11309,2.47907 z m -39.66529,-17.35355 c 0.61977,-13.63495 8.98665,-24.480928 20.91723,-24.480928 7.12738,0 11.62069,1.704371 14.09977,5.113108 z"
         inkscape:export-xdpi="251.71001"
         inkscape:export-ydpi="251.71001" />
      <path
         inkscape:connector-curvature="0"
         id="path2126"
         style="font-style:normal;font-variant:normal;font-weight:bold;font-stretch:normal;font-size:medium;line-height:1.25;font-family:'Comic Neue';-inkscape-font-specification:'Comic Neue Bold';letter-spacing:0px;word-spacing:0px;fill:#fec1c1;fill-opacity:1;stroke:none;stroke-width:7.86295128;stroke-miterlimit:4;stroke-dasharray:none;stroke-opacity:1"
         d="m 650.36899,62.004175 c 0.15489,-4.183455 -3.5637,-7.902069 -7.43725,-7.902069 -4.18346,0 -7.43722,3.408729 -7.5922,7.592184 l -0.7747,23.086425 c -4.33839,-1.394485 -9.91632,-2.634027 -15.80414,-2.634027 -24.4809,0 -33.77747,19.987582 -33.77747,41.834482 0,17.19861 8.83175,34.70712 27.73471,34.70712 8.52184,0 15.33933,-2.94392 20.4524,-6.35264 0.30981,3.56367 2.94394,6.9724 7.43725,6.9724 4.18345,0 7.43726,-3.09885 7.5922,-7.12736 z m -50.51125,61.512175 c 0,-10.84598 2.94389,-26.650122 19.0579,-26.650122 5.73288,0 12.08551,2.479084 15.49426,4.028512 l -0.61975,32.07309 c 0,3.40875 -8.52188,11.77562 -21.07221,11.77562 -10.07125,0 -12.8602,-12.39539 -12.8602,-21.2271 z"
         inkscape:export-xdpi="251.71001"
         inkscape:export-ydpi="251.71001" />
    </g>
  </g>
  <text
     xml:space="preserve"
     style="font-style:normal;font-variant:normal;font-weight:normal;font-stretch:normal;font-size:30.47890282px;line-height:1.25;font-family:'Misc Fixed';-inkscape-font-specification:'Misc Fixed';letter-spacing:0px;word-spacing:0px;fill:#000000;fill-opacity:1;stroke:none;stroke-width:0.76197261"
     x="641.78088"
     y="387.01691"
     id="text869"><tspan
       sodipodi:role="line"
       id="tspan867"
       x="641.78088"
       y="417.03864"
       style="font-style:normal;font-variant:normal;font-weight:bold;font-stretch:normal;font-family:'URW Gothic';-inkscape-font-specification:'URW Gothic Bold';fill:#ffffff;stroke-width:0.76197261" /></text>
  <g
     id="g1686"
     transform="matrix(0.85378095,0,0,0.85378095,200.86472,9.324504)">
    <g
       transform="matrix(3.3574067,0,0,3.3574067,241.51422,110.11268)"
       id="g885">
      <path
         d="m 261.27012,79.768843 c -0.56262,2.893266 -5.03676,6.059391 -10.17585,6.673024 -2.67988,0.320082 -5.31807,0.613637 -8.13146,0.484786 -4.60125,-0.210762 -8.23175,-1.098419 -8.23175,-1.098419 0,0.448053 0.0277,0.874539 0.0828,1.273328 0.59818,4.540607 4.50271,4.81288 8.20114,4.939688 3.73282,0.127685 7.05636,-0.920597 7.05636,-0.920597 l 0.15363,3.375137 c 0,0 -2.61108,1.401886 -7.26217,1.659584 -2.56503,0.141095 -5.74952,-0.06442 -9.45902,-1.045948 -8.04459,-2.129502 -9.42812,-10.704652 -9.63976,-19.405736 -0.0647,-2.583386 -0.0248,-5.01956 -0.0248,-7.056655 0,-8.897563 5.82939,-11.505439 5.82939,-11.505439 2.93932,-1.349997 7.98308,-1.917573 13.22653,-1.960425 h 0.12885 c 5.24344,0.04285 10.29041,0.610428 13.22973,1.960425 0,0 5.82939,2.607876 5.82939,11.505439 0,0 0.0729,6.564291 -0.81303,11.121808"
         id="path2"
         inkscape:connector-curvature="0"
         style="fill:#3088d4;stroke-width:0.23321047" />
      <path
         d="m 231.90956,66.490479 c 0,-1.295192 1.05003,-2.344931 2.34493,-2.344931 1.2952,0 2.34493,1.049739 2.34493,2.344931 0,1.294901 -1.04973,2.344931 -2.34493,2.344931 -1.2949,0 -2.34493,-1.05003 -2.34493,-2.344931 m 33.63064,2.846509 v 10.773157 h -4.26804 V 69.653571 c 0,-2.204422 -0.9276,-3.322958 -2.78279,-3.322958 -2.05079,0 -3.07896,1.32726 -3.07896,3.95146 v 5.723277 h -4.24297 v -5.723277 c 0,-2.6242 -1.02817,-3.95146 -3.07896,-3.95146 -1.85519,0 -2.78278,1.118536 -2.78278,3.322958 v 10.456574 h -4.26805 V 69.336988 c 0,-2.201798 0.56058,-3.95146 1.6867,-5.246069 1.16138,-1.294319 2.68221,-1.957803 4.56976,-1.957803 2.1843,0 3.83835,0.839267 4.93152,2.518382 l 1.06344,1.782311 1.06315,-1.782311 c 1.09347,-1.679115 2.74722,-2.518382 4.93182,-2.518382 1.88755,0 3.40808,0.663484 4.56947,1.957803 1.12611,1.294609 1.68669,3.044271 1.68669,5.246069 m 14.70346,5.355415 c 0.88066,-0.930511 1.30481,-2.102393 1.30481,-3.515647 0,-1.413255 -0.42415,-2.585138 -1.30481,-3.481249 -0.84802,-0.930801 -1.92486,-1.378565 -3.22968,-1.378565 -1.3051,0 -2.38166,0.447764 -3.22967,1.378565 -0.8483,0.896111 -1.27246,2.067994 -1.27246,3.481249 0,1.413254 0.42416,2.585136 1.27246,3.515647 0.84801,0.896112 1.92457,1.344168 3.22967,1.344168 1.30482,0 2.38166,-0.448056 3.22968,-1.344168 m 1.30481,-12.132774 h 4.20857 v 17.234253 h -4.20857 v -2.033888 c -1.27217,1.689028 -3.03407,2.516343 -5.31749,2.516343 -2.18577,0 -4.04533,-0.861713 -5.61134,-2.619828 -1.53307,-1.757825 -2.31607,-3.929304 -2.31607,-6.479753 0,-2.516049 0.783,-4.687822 2.31607,-6.445646 1.56601,-1.757824 3.42557,-2.653935 5.61134,-2.653935 2.28342,0 4.04532,0.827314 5.31749,2.51605 z m 18.36806,8.306958 c 1.23952,0.93051 1.85956,2.240276 1.82691,3.894613 0,1.758118 -0.62004,3.136681 -1.89221,4.101883 -1.27245,0.930799 -2.80552,1.413254 -4.66508,1.413254 -3.36027,0 -5.64398,-1.378856 -6.85114,-4.101879 l 3.65412,-2.17119 c 0.48915,1.481759 1.56571,2.240276 3.19702,2.240276 1.50042,0 2.25106,-0.482743 2.25106,-1.482344 0,-0.723826 -0.9789,-1.378563 -2.96877,-1.895416 -0.75064,-0.206977 -1.3704,-0.413658 -1.85956,-0.586235 -0.68505,-0.275479 -1.27216,-0.58594 -1.76161,-0.964906 -1.20716,-0.930511 -1.82691,-2.171774 -1.82691,-3.757022 0,-1.689027 0.5871,-3.033193 1.76161,-3.998393 1.20716,-0.999599 2.67492,-1.482053 4.43683,-1.482053 2.80552,0 4.86098,1.206281 6.19815,3.653534 l -3.58823,2.067993 c -0.5221,-1.171591 -1.40276,-1.757532 -2.60992,-1.757532 -1.27246,0 -1.89221,0.482454 -1.89221,1.412964 0,0.723827 0.97861,1.378565 2.96877,1.89571 1.53336,0.344568 2.74022,0.861712 3.62117,1.516743 m 13.37628,-4.032793 h -3.68647 v 7.169474 c 0,0.861713 0.32649,1.378563 0.94625,1.619646 0.4568,0.172574 1.37011,0.206973 2.74022,0.137887 v 4.033081 c -2.83788,0.344568 -4.89333,0.0688 -6.10049,-0.862002 -1.20686,-0.896112 -1.79426,-2.550449 -1.79426,-4.928612 v -7.169474 h -2.83818 v -4.274165 h 2.83818 V 59.07838 l 4.20828,-1.344167 v 4.825416 h 3.68647 z m 13.4092,7.755267 c 0.8483,-0.896401 1.27216,-2.033885 1.27216,-3.412451 0,-1.378565 -0.42386,-2.516049 -1.27216,-3.41216 -0.8483,-0.896403 -1.89221,-1.344167 -3.16467,-1.344167 -1.27216,0 -2.31607,0.447764 -3.16437,1.344167 -0.81566,0.930509 -1.23981,2.067993 -1.23981,3.41216 0,1.34446 0.42415,2.481944 1.23981,3.412451 0.8483,0.896112 1.89221,1.344168 3.16437,1.344168 1.27246,0 2.31637,-0.448056 3.16467,-1.344168 m -9.29781,3.067595 c -1.66367,-1.757826 -2.47932,-3.894906 -2.47932,-6.480046 0,-2.550739 0.81565,-4.68753 2.47932,-6.445354 1.66366,-1.757824 3.71912,-2.653935 6.13314,-2.653935 2.41431,0 4.46948,0.896111 6.13344,2.653935 1.66395,1.757824 2.51197,3.929305 2.51197,6.445354 0,2.550741 -0.84802,4.72222 -2.51197,6.480046 -1.66396,1.758114 -3.68648,2.619535 -6.13344,2.619535 -2.44667,0 -4.46948,-0.861421 -6.13314,-2.619535 m 28.84,-2.964253 c 0.8483,-0.930511 1.27216,-2.102393 1.27216,-3.515647 0,-1.413255 -0.42386,-2.585138 -1.27216,-3.481249 -0.84801,-0.930801 -1.92486,-1.378565 -3.22967,-1.378565 -1.30511,0 -2.38166,0.447764 -3.26233,1.378565 -0.84801,0.896111 -1.27245,2.067994 -1.27245,3.481249 0,1.413254 0.42444,2.585136 1.27245,3.515647 0.88067,0.896112 1.98987,1.344168 3.26233,1.344168 1.30481,0 2.38166,-0.448056 3.22967,-1.344168 m 1.27216,-19.026475 h 4.20858 v 24.127954 h -4.20858 v -2.033888 c -1.23951,1.689028 -3.00142,2.516343 -5.28484,2.516343 -2.18576,0 -4.07768,-0.861713 -5.64369,-2.619828 -1.53336,-1.757825 -2.31637,-3.929304 -2.31637,-6.479753 0,-2.516049 0.78301,-4.687822 2.31637,-6.445646 1.56601,-1.757824 3.45793,-2.653935 5.64369,-2.653935 2.28342,0 4.04533,0.827314 5.28484,2.51605 z m 18.988,18.923133 c 0.84801,-0.896401 1.27216,-2.033885 1.27216,-3.412451 0,-1.378565 -0.42415,-2.516049 -1.27216,-3.41216 -0.8483,-0.896403 -1.89221,-1.344167 -3.16467,-1.344167 -1.27216,0 -2.31636,0.447764 -3.16437,1.344167 -0.81595,0.930509 -1.23981,2.067993 -1.23981,3.41216 0,1.34446 0.42386,2.481944 1.23981,3.412451 0.84801,0.896112 1.89221,1.344168 3.16437,1.344168 1.27246,0 2.31637,-0.448056 3.16467,-1.344168 m -9.29781,3.067595 c -1.66396,-1.757826 -2.47932,-3.894906 -2.47932,-6.480046 0,-2.550739 0.81536,-4.68753 2.47932,-6.445354 1.66395,-1.757824 3.71912,-2.653935 6.13314,-2.653935 2.41431,0 4.46948,0.896111 6.13344,2.653935 1.66395,1.757824 2.51196,3.929305 2.51196,6.445354 0,2.550741 -0.84801,4.72222 -2.51196,6.480046 -1.66396,1.758114 -3.68648,2.619535 -6.13344,2.619535 -2.44667,0 -4.46919,-0.861421 -6.13314,-2.619535 m 32.98325,-8.44464 v 10.581635 h -4.20858 V 69.763559 c 0,-1.137484 -0.29355,-1.999197 -0.88066,-2.653935 -0.55475,-0.585941 -1.33775,-0.896403 -2.34901,-0.896403 -2.38166,0 -3.58853,1.413255 -3.58853,4.274165 v 9.306265 h -4.20857 V 62.559688 h 4.20857 v 1.930108 c 1.01126,-1.619939 2.60963,-2.412563 4.86098,-2.412563 1.79427,0 3.26233,0.62034 4.40418,1.89571 1.17422,1.27537 1.76162,2.998795 1.76162,5.239073"
         id="path4"
         inkscape:connector-curvature="0"
         style="fill:#ffffff;stroke-width:0.23321047" />
    </g>
    <path
       d="m 620.51848,375.62573 h 8.78037 v -18.00937 h 2.81997 c 6.72948,0 9.80581,-0.51272 12.43351,-2.11498 3.84542,-2.43543 6.21676,-7.17811 6.21676,-12.62578 0,-5.44767 -2.30725,-9.93399 -6.40903,-12.43351 -2.69179,-1.60226 -5.8963,-2.17907 -12.11306,-2.17907 h -11.72852 z m 8.78037,-26.40519 v -12.5617 h 2.94815 c 2.88406,0 4.22996,0.12818 5.57585,0.44863 2.56361,0.705 4.10178,2.94816 4.10178,5.89631 0,2.30725 -1.02544,4.10178 -2.88406,5.12722 -1.3459,0.705 -3.71724,1.08954 -7.17811,1.08954 z"
       style="font-style:normal;font-variant:normal;font-weight:600;font-stretch:normal;font-size:medium;line-height:1.25;font-family:'URW Gothic';-inkscape-font-specification:'URW Gothic Semi-Bold';letter-spacing:0px;word-spacing:0px;fill:#ffffff;fill-opacity:1;stroke:none;stroke-width:1.60225701"
       id="path1627"
       inkscape:connector-curvature="0" />
    <path
       d="m 671.66052,339.28654 c -10.31854,0 -18.77845,8.39583 -18.77845,18.58619 0,10.25444 8.45991,18.58618 18.84254,18.58618 10.31853,0 18.90663,-8.33174 18.90663,-18.32982 0,-10.5749 -8.26765,-18.84255 -18.97072,-18.84255 z m 0.0641,7.81902 c 5.70403,0 10.31853,4.80677 10.31853,10.76717 0,5.96039 -4.6145,10.76716 -10.25444,10.76716 -5.76813,0 -10.31854,-4.80677 -10.31854,-10.89535 0,-5.83221 4.6145,-10.63898 10.25445,-10.63898 z"
       style="font-style:normal;font-variant:normal;font-weight:600;font-stretch:normal;font-size:medium;line-height:1.25;font-family:'URW Gothic';-inkscape-font-specification:'URW Gothic Semi-Bold';letter-spacing:0px;word-spacing:0px;fill:#ffffff;fill-opacity:1;stroke:none;stroke-width:1.60225701"
       id="path1629"
       inkscape:connector-curvature="0" />
    <path
       d="m 703.84585,375.62573 h 5.25541 l 6.85766,-23.00841 6.72948,23.00841 h 5.31949 l 12.81805,-35.50601 h -9.10082 l -6.47311,21.66251 -5.83222,-21.66251 h -6.79357 l -5.96039,21.66251 -6.34494,-21.66251 h -9.16491 z"
       style="font-style:normal;font-variant:normal;font-weight:600;font-stretch:normal;font-size:medium;line-height:1.25;font-family:'URW Gothic';-inkscape-font-specification:'URW Gothic Semi-Bold';letter-spacing:0px;word-spacing:0px;fill:#ffffff;fill-opacity:1;stroke:none;stroke-width:1.60225701"
       id="path1631"
       inkscape:connector-curvature="0" />
    <path
       d="m 778.60616,361.65405 c 0.25636,-1.2818 0.32045,-2.05089 0.32045,-3.33269 0,-10.95944 -7.75492,-19.03482 -18.32982,-19.03482 -10.44671,0 -18.71436,8.26765 -18.71436,18.71437 0,10.38262 8.39583,18.458 19.22709,18.458 5.83221,0 10.38262,-2.11498 14.09986,-6.40903 1.34589,-1.66635 2.24316,-3.14043 2.81997,-4.93495 h -9.29309 c -2.17907,2.56361 -4.29405,3.52496 -7.81901,3.52496 -5.06314,0 -8.78037,-2.69179 -9.80582,-6.98584 z m -27.75109,-7.49856 c 1.3459,-4.6145 4.80677,-7.04993 9.8699,-7.04993 5.25541,0 8.71628,2.49952 9.80582,7.04993 z"
       style="font-style:normal;font-variant:normal;font-weight:600;font-stretch:normal;font-size:medium;line-height:1.25;font-family:'URW Gothic';-inkscape-font-specification:'URW Gothic Semi-Bold';letter-spacing:0px;word-spacing:0px;fill:#ffffff;fill-opacity:1;stroke:none;stroke-width:1.60225701"
       id="path1633"
       inkscape:connector-curvature="0" />
    <path
       d="m 784.47844,375.62573 h 8.524 v -19.7398 c -0.19227,-5.25541 2.49953,-8.20356 7.62675,-8.39583 v -8.20356 h -0.6409 c -3.65315,0 -5.44768,1.02545 -7.69084,4.29405 v -3.46087 h -7.81901 z"
       style="font-style:normal;font-variant:normal;font-weight:600;font-stretch:normal;font-size:medium;line-height:1.25;font-family:'URW Gothic';-inkscape-font-specification:'URW Gothic Semi-Bold';letter-spacing:0px;word-spacing:0px;fill:#ffffff;fill-opacity:1;stroke:none;stroke-width:1.60225701"
       id="path1635"
       inkscape:connector-curvature="0" />
    <path
       d="m 838.94115,361.65405 c 0.25636,-1.2818 0.32045,-2.05089 0.32045,-3.33269 0,-10.95944 -7.75493,-19.03482 -18.32982,-19.03482 -10.44672,0 -18.71436,8.26765 -18.71436,18.71437 0,10.38262 8.39582,18.458 19.22708,18.458 5.83222,0 10.38263,-2.11498 14.09986,-6.40903 1.3459,-1.66635 2.24316,-3.14043 2.81997,-4.93495 h -9.29309 c -2.17907,2.56361 -4.29405,3.52496 -7.81901,3.52496 -5.06313,0 -8.78037,-2.69179 -9.80581,-6.98584 z m -27.75109,-7.49856 c 1.34589,-4.6145 4.80677,-7.04993 9.8699,-7.04993 5.2554,0 8.71628,2.49952 9.80581,7.04993 z"
       style="font-style:normal;font-variant:normal;font-weight:600;font-stretch:normal;font-size:medium;line-height:1.25;font-family:'URW Gothic';-inkscape-font-specification:'URW Gothic Semi-Bold';letter-spacing:0px;word-spacing:0px;fill:#ffffff;fill-opacity:1;stroke:none;stroke-width:1.60225701"
       id="path1637"
       inkscape:connector-curvature="0" />
    <path
       d="m 880.6399,328.26302 h -8.52401 v 14.99712 c -2.49952,-2.75588 -6.6013,-4.42223 -11.02353,-4.42223 -9.99808,0 -17.8171,8.33174 -17.8171,18.97072 0,10.5749 7.69084,18.65028 17.8171,18.65028 4.80677,0 8.26765,-1.60226 11.72852,-5.44768 v 4.6145 h 7.81902 z m -18.39391,18.39391 c 5.96039,0 10.5108,4.74268 10.5108,11.02352 0,6.15267 -4.55041,10.95944 -10.31853,10.95944 -5.9604,0 -10.5749,-4.87086 -10.5749,-11.2158 0,-6.08857 4.55041,-10.76716 10.38263,-10.76716 z"
       style="font-style:normal;font-variant:normal;font-weight:600;font-stretch:normal;font-size:medium;line-height:1.25;font-family:'URW Gothic';-inkscape-font-specification:'URW Gothic Semi-Bold';letter-spacing:0px;word-spacing:0px;fill:#ffffff;fill-opacity:1;stroke:none;stroke-width:1.60225701"
       id="path1639"
       inkscape:connector-curvature="0" />
    <path
       d="m 905.02322,375.62573 h 7.81902 v -4.55041 c 3.65314,3.90951 7.04993,5.38359 12.30533,5.38359 5.51176,0 9.8699,-2.05089 13.13851,-6.21676 2.69179,-3.46088 4.16587,-7.88311 4.16587,-12.62579 0,-10.76716 -7.62675,-18.77845 -17.88119,-18.77845 -4.67859,0 -7.69084,1.28181 -11.02353,4.55041 v -15.1253 h -8.52401 z m 18.32982,-28.9688 c 6.08858,0 10.51081,4.6145 10.51081,11.02352 0,6.53721 -4.22996,10.95944 -10.31854,10.95944 -6.21675,0 -10.5108,-4.55041 -10.5108,-11.02353 0,-6.40902 4.29405,-10.95943 10.31853,-10.95943 z"
       style="font-style:normal;font-variant:normal;font-weight:600;font-stretch:normal;font-size:medium;line-height:1.25;font-family:'URW Gothic';-inkscape-font-specification:'URW Gothic Semi-Bold';letter-spacing:0px;word-spacing:0px;fill:#ffffff;fill-opacity:1;stroke:none;stroke-width:1.60225701"
       id="path1641"
       inkscape:connector-curvature="0" />
    <path
       d="m 949.2245,387.48243 h 9.16491 l 20.50889,-47.36271 h -9.8699 l -8.52401,23.00841 -7.8831,-23.00841 h -9.74172 l 13.01032,32.17332 z"
       style="font-style:normal;font-variant:normal;font-weight:600;font-stretch:normal;font-size:medium;line-height:1.25;font-family:'URW Gothic';-inkscape-font-specification:'URW Gothic Semi-Bold';letter-spacing:0px;word-spacing:0px;fill:#ffffff;fill-opacity:1;stroke:none;stroke-width:1.60225701"
       id="path1643"
       inkscape:connector-curvature="0" />
  </g>
</svg>
