<?xml version="1.0" encoding="UTF-8" standalone="no"?>
<!-- Created with Inkscape (http://www.inkscape.org/) -->

<svg
   xmlns:dc="http://purl.org/dc/elements/1.1/"
   xmlns:cc="http://creativecommons.org/ns#"
   xmlns:rdf="http://www.w3.org/1999/02/22-rdf-syntax-ns#"
   xmlns:svg="http://www.w3.org/2000/svg"
   xmlns="http://www.w3.org/2000/svg"
   xmlns:sodipodi="http://sodipodi.sourceforge.net/DTD/sodipodi-0.dtd"
   xmlns:inkscape="http://www.inkscape.org/namespaces/inkscape"
   version="1.1"
   id="svg2"
   width="1601.3333"
   height="840"
   viewBox="0 0 1601.3333 840"
   sodipodi:docname="preview.svg"
   inkscape:version="0.92.2 2405546, 2018-03-11">
  <metadata
     id="metadata8">
    <rdf:RDF>
      <cc:Work
         rdf:about="">
        <dc:format>image/svg+xml</dc:format>
        <dc:type
           rdf:resource="http://purl.org/dc/dcmitype/StillImage" />
        <dc:title />
      </cc:Work>
    </rdf:RDF>
  </metadata>
  <defs
     id="defs6" />
  <sodipodi:namedview
     pagecolor="#ffffff"
     bordercolor="#666666"
     borderopacity="1"
     objecttolerance="10"
     gridtolerance="10"
     guidetolerance="10"
     inkscape:pageopacity="0"
     inkscape:pageshadow="2"
     inkscape:window-width="958"
     inkscape:window-height="1050"
     id="namedview4"
     showgrid="false"
     inkscape:zoom="0.14047619"
     inkscape:cx="1179.9423"
     inkscape:cy="471.01239"
     inkscape:window-x="0"
     inkscape:window-y="28"
     inkscape:window-maximized="0"
     inkscape:current-layer="svg2" />
  <rect
     style="opacity:1;fill:#1d282d;fill-opacity:1;stroke:none;stroke-width:12;stroke-linecap:round;stroke-linejoin:round;stroke-miterlimit:4;stroke-dasharray:none;stroke-dashoffset:0;stroke-opacity:1"
     id="rect1580"
     width="1601.3333"
     height="840"
     x="0"
     y="0"
     ry="1.52807" />
  <text
     xml:space="preserve"
     style="font-style:normal;font-variant:normal;font-weight:normal;font-stretch:normal;font-size:30.47890282px;line-height:1.25;font-family:'Misc Fixed';-inkscape-font-specification:'Misc Fixed';letter-spacing:0px;word-spacing:0px;fill:#000000;fill-opacity:1;stroke:none;stroke-width:0.76197261"
     x="641.78088"
     y="387.01691"
     id="text869"><tspan
       sodipodi:role="line"
       id="tspan867"
       x="641.78088"
       y="417.03864"
       style="font-style:normal;font-variant:normal;font-weight:bold;font-stretch:normal;font-family:'URW Gothic';-inkscape-font-specification:'URW Gothic Bold';fill:#ffffff;stroke-width:0.76197261" /></text>
  <g
     id="g14123"
     transform="matrix(5.3028615,0,0,5.3028615,-105.31382,-6764.125)">
    <path
       inkscape:connector-curvature="0"
       id="path860-2"
       d="m 61.253027,1326.6223 a 17.356877,20.508679 0 0 0 -17.354012,20.5096 17.356877,20.508679 0 0 0 0.08258,1.8186 c 0.8381,18.7625 14.504321,34.9666 34.629103,43.7492 20.023517,-8.7373 33.657152,-24.8198 34.621962,-43.4609 a 17.356877,20.508679 0 0 0 0.0932,-2.1069 17.356877,20.508679 0 0 0 -17.357631,-20.5096 17.356877,20.508679 0 0 0 -17.357621,20.5096 17.356877,20.508679 0 0 0 -17.357621,-20.5096 z"
       style="opacity:1;fill:#ff2a2a;fill-opacity:1;stroke:none;stroke-width:2.05479622;stroke-linecap:round;stroke-linejoin:round;stroke-miterlimit:4;stroke-dasharray:none;stroke-dashoffset:0;stroke-opacity:0.49803922" />
    <path
       d="m 132.79434,1381.0865 q 10.92288,-10.4806 15.65465,-15.4777 4.776,-4.9971 7.25244,-9.2867 2.52066,-4.3337 2.52066,-8.8444 0,-3.582 -2.25532,-5.6604 -2.25534,-2.1227 -6.05845,-2.1227 -5.61621,0 -9.15398,3.5378 -0.79601,0.796 -1.10556,1.4593 -0.30956,0.6191 -0.30956,1.2382 l 0.0443,0.4865 -0.61911,0.8402 -0.61911,-0.4865 -6.72178,-5.0855 q 3.27245,-5.2625 8.00422,-8.0485 4.77599,-2.8302 10.65755,-2.8302 5.04133,0 9.06554,2.1227 4.02422,2.0784 6.27955,5.8373 2.29955,3.7589 2.29955,8.6233 0,4.8203 -2.29955,9.2425 -2.25533,4.4222 -5.96999,8.5791 -3.67044,4.1569 -10.83444,11.3209 l -3.62621,3.582 h 18.44064 q 1.45933,0 2.12266,-0.1327 0.70756,-0.1769 1.23822,-0.6633 h 1.01712 v 9.1982 h -35.02397 z"
       style="font-style:normal;font-variant:normal;font-weight:bold;font-stretch:normal;font-size:medium;line-height:1.25;font-family:Inconsolata;-inkscape-font-specification:'Inconsolata Bold';letter-spacing:0px;word-spacing:0px;fill:#ffffff;fill-opacity:1;stroke:none;stroke-width:2.26417542"
       id="path13428"
       inkscape:connector-curvature="0" />
    <path
       d="m 176.26474,1375.2934 28.43485,-16.0526 -28.3464,-14.4607 v -8.9771 l 39.49039,20.7402 v 5.2625 l -39.57884,23.1724 z"
       style="font-style:normal;font-variant:normal;font-weight:bold;font-stretch:normal;font-size:medium;line-height:1.25;font-family:Inconsolata;-inkscape-font-specification:'Inconsolata Bold';letter-spacing:0px;word-spacing:0px;fill:#ffffff;fill-opacity:1;stroke:none;stroke-width:2.26417542"
       id="path13430"
       inkscape:connector-curvature="0" />
    <g
       transform="matrix(1.2618975,0,0,1.2618975,44.997779,1561.2031)"
       id="g13426">
      <g
         transform="matrix(1.1506474,0,0,1.1506474,120.55681,-274.60955)"
         id="g4691">
        <path
           sodipodi:nodetypes="cccccssczccscc"
           inkscape:connector-curvature="0"
           id="path985"
           d="m 55.992447,77.112089 c -8.959829,3.627163 -11.068653,5.873181 -18.623668,13.950053 -0.319776,-4.261257 -0.973585,-8.837189 -0.973585,-8.837189 0,0 0.129386,5.222915 -3.934643,11.452532 -3.42338,6.012219 -7.09835,10.719595 -7.10706,16.267225 0,7.01469 5.647071,12.66176 12.66176,12.66176 h 18.641755 c 7.014689,0 12.662276,-5.64707 12.662276,-12.66176 0,0 0.183303,-5.41679 -0.933794,-8.66872 C 67.26839,98.024061 60.96042,86.9224 51.330716,82.420292 c 1.428631,2.358202 5.094881,5.627563 2.350244,14.418757 -3.096591,-3.091505 -4.880864,-6.299112 -5.114933,-8.489405 -0.321731,-3.010574 0.250362,-5.03379 7.42642,-11.237039 z"
           style="fill:#cd2b2b;fill-opacity:1;stroke:none;stroke-width:0.95009553;stroke-linecap:butt;stroke-linejoin:round;stroke-miterlimit:4;stroke-dasharray:none;stroke-dashoffset:0;stroke-opacity:1" />
        <path
           inkscape:connector-curvature="0"
           id="path1021"
           d="m 57.044828,102.71403 c -8.285183,3.69771 -16.19918,5.71832 -23.598435,-0.60596 -0.682329,5.83783 -1.214325,10.11486 0.808743,14.07529 0,0 0.494841,0.17403 1.338204,0.43028 0.256894,0.53553 0.53799,1.0556 0.84732,1.55905 0,0 6.496315,1.65786 13.437355,1.19076 6.94103,-0.46709 10.483713,-2.63582 14.494002,-4.83828 -4.073823,-5.40005 -6.056724,-9.90617 -7.327189,-11.81114 z"
           style="fill:#331313;fill-opacity:1;stroke:none;stroke-width:2.14096808;stroke-linecap:butt;stroke-linejoin:round;stroke-miterlimit:4;stroke-dasharray:none;stroke-dashoffset:0;stroke-opacity:1" />
      </g>
    </g>
  </g>
</svg>
